<svg id="Layer_1" data-name="Layer 1" xmlns="http://www.w3.org/2000/svg" viewBox="0 0 251.2 208.42"><title>CA_r_1c_Grey_2014 (1)</title><path d="M308.89,213.32c-4.26,0-7.2-3-7.2-7.38s3-7.43,7.2-7.43,7.2,3,7.2,7.43S313.1,213.32,308.89,213.32Zm0-13.93c-3.41,0-6.17,2.34-6.17,6.55s2.76,6.5,6.17,6.5,6.22-2.33,6.22-6.5S312.3,199.39,308.89,199.39ZM311,209.86l-2.48-3.51h-0.8v3.36h-1.4v-8.14h2.48c1.73,0,2.9.85,2.9,2.39a2.22,2.22,0,0,1-1.68,2.24l2.34,3.32Zm-2.2-7h-1.08v2.43h1a1.25,1.25,0,0,0,1.49-1.21A1.21,1.21,0,0,0,308.85,202.85Z" transform="translate(-72 -72)" style="fill:#fff"/><path d="M75.35,247.2v-8.06H81.1v8.06h4.73v4.67H81.1v13.76c0,1.3.65,1.68,2.08,1.68a13,13,0,0,0,2.65-.46v4.77a37.44,37.44,0,0,1-4.56.38c-4.26,0-5.93-2.15-5.93-5.62V251.87H72V247.2h3.35Z" transform="translate(-72 -72)" style="fill:#fff"/><path d="M94.4,260.31c0.1,5,2.34,7,5,7s3.94-1.22,5.36-2.91L109,267c-2.24,3.47-5.47,5-10.12,5-6.27,0-10.2-4.92-10.2-12.63s3.93-12.64,10.46-12.64c6.33,0,9.86,5.35,9.86,11.19v2.4H94.4Zm9.29-3.95C103.6,253,101.83,251,99,251s-4.55,2-4.65,5.33h9.29Z" transform="translate(-72 -72)" style="fill:#fff"/><path d="M127.71,255.1c-0.94-2.08-1.95-3.7-4.76-3.7-3.21,0-4.74,2.54-4.74,8s1.53,7.95,4.94,7.95c2.51,0,3.95-1.75,5.1-3.87l4.37,2.47c-2.33,4.34-5.25,6.12-9.68,6.08-6.53,0-10.46-4.92-10.46-12.63s3.93-12.64,10.46-12.64c4.57,0,8.18,2.43,9.54,6.51Z" transform="translate(-72 -72)" style="fill:#fff"/><path d="M136.89,271.53V237.74h5.75V249.8c1.77-1.48,4.13-3.08,6.95-3.08,4.84,0,7.17,3.18,7.17,8.14v16.66H151v-15.8c0-3.29-1-4.33-3-4.33a7.4,7.4,0,0,0-5.39,2.57v17.56h-5.75Z" transform="translate(-72 -72)" style="fill:#fff"/><path d="M162.69,271.53V247.2H168v2.6c2.14-1.48,4.59-3.08,7.44-3.08,4.82,0,7.14,3.18,7.14,8.14v16.66h-5.75v-15.8c0-3.29-1-4.33-3-4.33a7.28,7.28,0,0,0-5.37,2.57v17.56h-5.77Z" transform="translate(-72 -72)" style="fill:#fff"/><path d="M197.13,246.73c6.56,0,10.5,4.91,10.5,12.64S203.69,272,197.13,272s-10.48-4.92-10.48-12.63S190.58,246.73,197.13,246.73Zm0,4.67c-3.2,0-4.73,2.54-4.73,8s1.52,7.95,4.73,7.95,4.74-2.53,4.74-7.95S200.35,251.4,197.13,251.4Z" transform="translate(-72 -72)" style="fill:#fff"/><path d="M212.33,271.53V237.74h5.74v33.79h-5.74Z" transform="translate(-72 -72)" style="fill:#fff"/><path d="M233.25,246.73c6.55,0,10.5,4.91,10.5,12.64S239.8,272,233.25,272s-10.48-4.92-10.48-12.63S226.7,246.73,233.25,246.73Zm0,4.67c-3.2,0-4.73,2.54-4.73,8s1.53,7.95,4.73,7.95,4.75-2.53,4.75-7.95S236.46,251.4,233.25,251.4Z" transform="translate(-72 -72)" style="fill:#fff"/><path d="M267.5,250.65a7.64,7.64,0,0,0-3.72.56,7.08,7.08,0,0,1,1.31,4.32c0,4.57-3.08,7.85-9.11,7.85-2.49,0-4.49.09-4.49,1.49,0,3.93,15.87-1.4,15.87,8.33,0,3.45-3.49,7.21-11.19,7.21-6.5,0-10.76-2-10.76-5.81a4.26,4.26,0,0,1,4.34-4.48V270c-1.1-.7-3.56-1.3-3.56-3.93,0-2.34,2.69-4.12,3.75-4.44-2-1.63-3.56-3.49-3.56-6.45,0-4.26,3.23-8.47,9.52-8.47a9.63,9.63,0,0,1,5.93,2.16c1.13-1.5,2.93-2.26,5.67-2.16v3.93Zm-16.81,23.21c0,1.85,1.59,2.7,6.42,2.7,3.71,0,5-1.86,5-2.7,0-1.13-1.73-2.81-7.31-2.81C251.64,271.05,250.69,272.83,250.69,273.87ZM255.85,251a4,4,0,1,0,3.94,4A4,4,0,0,0,255.85,251Z" transform="translate(-72 -72)" style="fill:#fff"/><path d="M271.64,242.71v-5.44h5.74v5.44h-5.74Zm5.74,21.67v7.15h-5.74V247.2h5.74v17.18Z" transform="translate(-72 -72)" style="fill:#fff"/><path d="M287.83,260.31c0.09,5,2.32,7,5,7s3.93-1.22,5.4-2.91l4.17,2.63c-2.24,3.47-5.48,5-10.13,5-6.26,0-10.21-4.92-10.21-12.63s3.94-12.64,10.49-12.64c6.33,0,9.85,5.35,9.85,11.19v2.4H287.83Zm9.29-3.95C297,253,295.25,251,292.47,251s-4.55,2-4.64,5.33h9.29Z" transform="translate(-72 -72)" style="fill:#fff"/><path d="M318.88,253.6c-1.15-1.25-2.7-2.56-4.51-2.56-2.24,0-3.23.93-3.23,2.38,0,4.17,12.06,2.37,12.06,11.28,0,5-3.82,7.3-8.88,7.3a10.63,10.63,0,0,1-9.13-4.92l3.86-2.9c1.35,1.87,3.14,3.5,5.62,3.5,2,0,3.43-1.12,3.43-2.77,0-4.14-12.07-2.64-12.07-11.13,0-4.53,3.81-7.06,8-7.06a11,11,0,0,1,8.51,3.7Z" transform="translate(-72 -72)" style="fill:#fff"/><path d="M291.84,192.54V120.45c0-17.52-3.31-27.25-12.69-35.82C270.25,76.5,255.72,72,236,72c-17,0-31.64,3.61-42.82,10.56A54.12,54.12,0,0,1,210.77,111c3.75-5.91,11.1-8.49,20.61-8.49,15.68,0,20.24,11,20.37,20.14l0.11,4.38c-43.37,2.13-84.23,10.2-83.45,49.87,0.55,27.8,25.72,39.16,43,39.14,20.09,0,31.33-5.38,42.36-19.08a91.52,91.52,0,0,0,1.91,16.36h38.88C292.39,206.45,291.84,199.63,291.84,192.54Zm-40-40.1c0,11.61-.2,17.87-5.45,25.88-4.64,7.09-12,11.46-20.18,11.46-11.18,0-20.5-5.09-20.5-17.25,0-17.87,26.14-24.23,46.14-25.38v5.29Z" transform="translate(-72 -72)" style="fill:#fff"/><path d="M164,178c-3.67,3.54-9,5.31-15,5.31-20.2,0-25.85-15.19-25.85-41.22,0-25.64,6.08-39.54,25.75-39.54,12.22,0,21.06,6.61,21.06,19.15H208C205.26,88.82,179.21,72,147.53,72c-43.64,0-69.28,30.81-69.28,73.36,0,40.9,24.81,70.64,66.82,70.64,10.75,0,22.77-2.29,33.1-7.72C170.32,201.5,164.51,191.62,164,178Z" transform="translate(-72 -72)" style="fill:#fff"/></svg>