<svg width="195px" height="29px" viewBox="0 0 195 29" version="1.1" xmlns="http://www.w3.org/2000/svg" xmlns:xlink="http://www.w3.org/1999/xlink">
    <g id="Cirro" stroke="none" stroke-width="1" fill="none" fill-rule="evenodd">
        <g id="Cirro" transform="translate(-4.000000, -3.000000)" fill="#FFFFFF">
            <path d="M26.644,31.54 C44.392,31.54 46.66,23.944 46.66,20.2 L46.66,19.264 L32.8,19.264 C32.692,19.912 32.116,22.936 25.816,22.936 C19.804,22.936 18.616,19.948 18.616,17.644 L18.616,17.212 C18.616,14.872 19.696,12.208 25.816,12.208 C32.044,12.208 32.62,15.016 32.8,15.592 L46.66,15.592 L46.66,15.052 C46.66,11.092 44.392,3.676 26.644,3.676 L25.384,3.676 C6.952,3.676 4.54,11.38 4.54,16.996 L4.54,18.076 C4.54,23.656 7.096,31.54 25.384,31.54 L26.644,31.54 Z M63.85675,4.216 L50.21275,4.216 L50.21275,31 L63.85675,31 L63.85675,4.216 Z M81.7375,14.908 L91.7095,14.908 C93.5815,14.908 94.1935,14.188 94.1935,13.216 C94.1935,12.208 93.5455,11.524 91.7095,11.524 L81.7375,11.524 L81.7375,14.908 Z M81.7375,22.432 L81.7375,31 L68.0575,31 L68.0575,4.216 L97.6495,4.216 C103.4095,4.216 108.1975,5.656 108.1975,10.984 L108.1975,11.308 C108.1975,15.304 104.4535,16.996 102.0055,17.5 C106.2895,18.328 108.3415,20.74 108.3415,24.232 L108.3415,28.3 C108.3415,29.632 108.5215,30.244 108.8095,30.784 L108.8095,31 L94.7335,31 C94.5535,30.82 94.5535,30.568 94.5535,30.172 L94.5535,26.932 C94.5535,24.196 93.2215,22.432 89.3695,22.432 L81.7375,22.432 Z M125.82625,14.908 L135.79825,14.908 C137.67025,14.908 138.28225,14.188 138.28225,13.216 C138.28225,12.208 137.63425,11.524 135.79825,11.524 L125.82625,11.524 L125.82625,14.908 Z M125.82625,22.432 L125.82625,31 L112.14625,31 L112.14625,4.216 L141.73825,4.216 C147.49825,4.216 152.28625,5.656 152.28625,10.984 L152.28625,11.308 C152.28625,15.304 148.54225,16.996 146.09425,17.5 C150.37825,18.328 152.43025,20.74 152.43025,24.232 L152.43025,28.3 C152.43025,29.632 152.61025,30.244 152.89825,30.784 L152.89825,31 L138.82225,31 C138.64225,30.82 138.64225,30.568 138.64225,30.172 L138.64225,26.932 C138.64225,24.196 137.31025,22.432 133.45825,22.432 L125.82625,22.432 Z M176.035,3.676 L177.835,3.676 C195.943,3.676 198.679,11.38 198.679,16.996 L198.679,18.076 C198.679,23.584 195.907,31.54 177.835,31.54 L176.035,31.54 C157.999,31.54 155.191,23.584 155.191,18.076 L155.191,16.996 C155.191,11.38 157.927,3.676 176.035,3.676 Z M184.567,17.716 L184.567,17.212 C184.567,14.872 182.767,12.208 176.899,12.208 C170.959,12.208 169.267,14.872 169.267,17.212 L169.267,17.644 C169.267,20.056 171.139,22.936 176.899,22.936 C182.731,22.936 184.567,20.164 184.567,17.716 Z" id="CIRRO"></path>
        </g>
    </g>
</svg>
