<?xml version="1.0" encoding="UTF-8" standalone="no"?>
<svg width="197px" height="50px" viewBox="0 0 197 50" version="1.1" xmlns="http://www.w3.org/2000/svg" xmlns:xlink="http://www.w3.org/1999/xlink">
    <!-- Generator: Sketch 41 (35326) - http://www.bohemiancoding.com/sketch -->
    <title>logo-accelerator.blk</title>
    <desc>Created with Sketch.</desc>
    <defs></defs>
    <g id="Page-1" stroke="none" stroke-width="1" fill="none" fill-rule="evenodd">
        <g id="A4-Copy-2" transform="translate(-41.000000, -431.000000)" fill="#FFFFFF">
            <g id="logo-accelerator.blk" transform="translate(41.000000, 431.000000)">
                <path d="M5.066,48.956 L6.46,43.516 L13.464,43.516 L14.824,48.956 L20.23,48.956 L13.566,24.408 L6.8,24.408 L0,48.956 L5.066,48.956 Z M12.376,39.742 L7.48,39.742 L9.826,29.134 L9.894,29.134 L12.376,39.742 Z M30.472,49.364 C35.266,49.364 37.884,47.256 37.884,40.694 L32.818,40.694 C32.75,42.632 32.852,45.692 30.472,45.692 C27.582,45.692 27.208,42.972 27.208,36.682 C27.208,30.392 27.582,27.672 30.472,27.672 C32.002,27.672 32.58,28.896 32.58,32.16 L37.612,32.16 C37.816,26.89 35.708,24 30.472,24 C22.006,24 22.006,30.188 22.006,36.682 C22.006,43.108 22.006,49.364 30.472,49.364 L30.472,49.364 Z M48.976,49.364 C53.77,49.364 56.388,47.256 56.388,40.694 L51.322,40.694 C51.254,42.632 51.356,45.692 48.976,45.692 C46.086,45.692 45.712,42.972 45.712,36.682 C45.712,30.392 46.086,27.672 48.976,27.672 C50.506,27.672 51.084,28.896 51.084,32.16 L56.116,32.16 C56.32,26.89 54.212,24 48.976,24 C40.51,24 40.51,30.188 40.51,36.682 C40.51,43.108 40.51,49.364 48.976,49.364 L48.976,49.364 Z M72.92,48.956 L72.92,45.182 L64.386,45.182 L64.386,38.008 L72.002,38.008 L72.002,34.234 L64.386,34.234 L64.386,28.182 L72.648,28.182 L72.648,24.408 L59.252,24.408 L59.252,48.956 L72.92,48.956 Z M88.704,48.956 L88.704,44.876 L81.02,44.876 L81.02,24.408 L75.886,24.408 L75.886,48.956 L88.704,48.956 Z M104.216,48.956 L104.216,45.182 L95.682,45.182 L95.682,38.008 L103.298,38.008 L103.298,34.234 L95.682,34.234 L95.682,28.182 L103.944,28.182 L103.944,24.408 L90.548,24.408 L90.548,48.956 L104.216,48.956 Z M112.18,28.182 L114.458,28.182 C116.09,28.182 117.076,29.066 117.076,31.412 C117.076,32.976 116.498,35.016 114.458,35.016 L112.18,35.016 L112.18,28.182 Z M112.18,38.79 L113.506,38.79 C117.45,38.79 117.178,41.272 117.178,44.196 C117.178,45.794 117.042,47.46 117.722,48.956 L122.754,48.956 C122.278,47.936 122.176,43.312 122.176,41.748 C122.176,37.328 118.844,37.056 117.722,36.92 L117.722,36.852 C121.054,36.308 122.278,33.962 122.278,30.834 C122.278,26.652 120.034,24.408 116.532,24.408 L107.046,24.408 L107.046,48.956 L112.18,48.956 L112.18,38.79 Z M128.848,48.956 L130.242,43.516 L137.246,43.516 L138.606,48.956 L144.012,48.956 L137.348,24.408 L130.582,24.408 L123.782,48.956 L128.848,48.956 Z M136.158,39.742 L131.262,39.742 L133.608,29.134 L133.676,29.134 L136.158,39.742 Z M142.048,24.408 L142.048,28.488 L147.76,28.488 L147.76,48.956 L152.894,48.956 L152.894,28.488 L158.606,28.488 L158.606,24.408 L142.048,24.408 Z M168.814,45.692 C165.924,45.692 165.55,42.972 165.55,36.682 C165.55,30.392 165.924,27.672 168.814,27.672 C171.704,27.672 172.078,30.392 172.078,36.682 C172.078,42.972 171.704,45.692 168.814,45.692 L168.814,45.692 Z M168.814,49.364 C177.28,49.364 177.28,43.108 177.28,36.682 C177.28,30.188 177.28,24 168.814,24 C160.348,24 160.348,30.188 160.348,36.682 C160.348,43.108 160.348,49.364 168.814,49.364 L168.814,49.364 Z M185.992,28.182 L188.27,28.182 C189.902,28.182 190.888,29.066 190.888,31.412 C190.888,32.976 190.31,35.016 188.27,35.016 L185.992,35.016 L185.992,28.182 Z M185.992,38.79 L187.318,38.79 C191.262,38.79 190.99,41.272 190.99,44.196 C190.99,45.794 190.854,47.46 191.534,48.956 L196.566,48.956 C196.09,47.936 195.988,43.312 195.988,41.748 C195.988,37.328 192.656,37.056 191.534,36.92 L191.534,36.852 C194.866,36.308 196.09,33.962 196.09,30.834 C196.09,26.652 193.846,24.408 190.344,24.408 L180.858,24.408 L180.858,48.956 L185.992,48.956 L185.992,38.79 Z" id="ACCELERATOR"></path>
                <g id="Cog">
                    <path d="M6.86484848,4.72405395 C6.88448485,3.86573544 6.82193939,3.00741693 6.42290909,2.5251099 C6.02193939,2.0459363 5.11721212,1.8772132 4.71624242,1.8772132 C3.11793939,1.8772132 2.48593939,2.84038106 2.41975758,3.04887461 C2.35939394,3.21566944 1.97975758,3.59360918 1.97975758,6.18929354 L1.97975758,10.2285245 C1.97975758,13.9346479 3.20109091,14.3745331 4.69224242,14.3745331 C5.28448485,14.3745331 7.07551515,14.1662806 7.09660606,11.2136264 L9.09612121,11.2136264 C9.1809697,15.9901773 5.79187879,15.9901773 4.80036364,15.9901773 C2.90678788,15.9901773 -0.000121212121,15.8624298 -0.000121212121,10.0005073 L-0.000121212121,5.72771535 C-0.000121212121,1.45781578 1.89345455,0.241081205 4.88278788,0.241081205 C7.89539394,0.241081205 9.05442424,1.79357475 8.86436364,4.72405395 L6.86484848,4.72405395 Z" id="Fill-1"></path>
                    <path d="M17.0546909,9.81206772 C17.0546909,6.92184103 16.1506909,6.2963604 14.8224485,6.2963604 C13.4973576,6.2963604 12.5911758,6.92184103 12.5911758,9.81206772 C12.5911758,13.2460648 13.0340848,14.4806359 14.8224485,14.4806359 C16.6142061,14.4806359 17.0546909,13.2460648 17.0546909,9.81206772 M10.7805091,10.5436029 C10.7805091,7.44705194 11.1397818,4.89186112 14.8224485,4.89186112 C18.5102061,4.89186112 18.8670545,7.44705194 18.8670545,10.5436029 C18.8670545,15.2114479 17.0762667,15.8829659 14.8224485,15.8829659 C12.5686303,15.8829659 10.7805091,15.2114479 10.7805091,10.5436029" id="Fill-4"></path>
                    <path d="M24.5944727,6.31593228 C22.6366545,6.31593228 22.5721697,8.65997819 22.5721697,10.0601389 C22.5721697,13.4543656 23.3525333,14.2495334 24.6378667,14.2495334 C26.7210182,14.2495334 26.6572606,11.799674 26.6572606,10.3344344 C26.6572606,8.76410445 26.7632,6.31593228 24.5944727,6.31593228 L24.5944727,6.31593228 Z M26.6177455,5.10112597 L28.3430788,5.10112597 L28.3430788,16.7413326 C28.3430788,19.1073125 26.7632,19.6727759 24.4247758,19.6727759 C22.6579879,19.6727759 21.057503,18.7927644 21.2051394,16.846423 L23.1423515,16.846423 C23.1634424,17.8334531 23.8136242,18.373608 24.7624727,18.373608 C25.9610182,18.373608 26.6177455,17.6396626 26.6177455,16.5528448 L26.6177455,14.3529366 L26.5520485,14.3529366 C26.1096242,15.1926956 25.1435636,15.6728333 24.2153212,15.6728333 C21.3299879,15.6728333 20.761503,13.2048964 20.761503,10.0601389 C20.761503,5.20332396 23.2257455,4.89190933 24.0875636,4.89190933 C25.2061091,4.89190933 26.0861091,5.37204706 26.5733818,6.39764247 L26.6177455,6.39764247 L26.6177455,5.10112597 Z" id="Fill-6"></path>
                    <path d="M36.9141333,15.6728333 L36.9141333,8.34663529 C36.9141333,7.21546743 36.515103,6.29616758 35.0409212,6.29616758 C33.1446788,6.29616758 32.8697697,7.96869555 32.8697697,9.41320631 L32.8697697,15.6728333 L31.1454061,15.6728333 L31.1454061,7.29886485 C31.1454061,6.56540143 31.1027394,5.83386628 31.0377697,5.10088494 L32.8697697,5.10088494 L32.8697697,6.46223931 L32.955103,6.46223931 C33.6263758,5.26695667 34.4285576,4.89190933 35.7972848,4.89190933 C38.070497,4.89190933 38.6421333,6.25205854 38.6421333,8.34663529 L38.6421333,15.6728333 L36.9141333,15.6728333 Z" id="Fill-9"></path>
                    <path d="M41.7980606,15.672761 L43.5250909,15.672761 L43.5250909,5.10081263 L41.7980606,5.10081263 L41.7980606,15.672761 Z M41.6930909,2.39931478 L43.630303,2.39931478 L43.630303,0.558063702 L41.6930909,0.558063702 L41.6930909,2.39931478 Z" id="Fill-11"></path>
                    <polygon id="Fill-13" points="52.726303 6.6725165 48.0315152 14.2703587 52.8749091 14.2703587 52.8749091 15.6729297 46.1561212 15.6729297 46.1561212 14.0633113 50.7905455 6.54766141 50.7905455 6.50331133 46.3849697 6.50331133 46.3849697 5.10098135 52.726303 5.10098135"></polygon>
                    <path d="M56.4747879,12.5332821 C56.4747879,13.5586364 56.9795152,14.4805877 58.1358788,14.4805877 C59.1904242,14.4805877 60.4949091,13.8314858 60.3249697,10.4177354 C58.6861818,10.4415977 56.4747879,10.2931214 56.4747879,12.5332821 L56.4747879,12.5332821 Z M60.3695758,14.1445877 L60.3249697,14.1445877 C59.8015758,15.3586709 58.98,15.8829176 57.6529697,15.8829176 C55.3991515,15.8829176 54.7494545,14.4362376 54.7494545,12.4074628 C54.7494545,9.20292912 57.9058182,9.05855036 60.3249697,9.11977274 C60.3695758,7.71937102 60.3913939,6.18929354 58.5373333,6.18929354 C57.378303,6.18929354 56.7693333,6.96204534 56.8740606,8.0720023 L55.0001212,8.0720023 C55.0830303,5.70698651 56.3482424,4.89205395 58.6003636,4.89205395 C61.3373333,4.89205395 62.0551515,6.2963122 62.0551515,8.0720023 L62.0551515,13.1616551 C62.0551515,13.9994858 62.138303,14.8580453 62.2655758,15.6727369 L60.3695758,15.6727369 L60.3695758,14.1445877 Z" id="Fill-14"></path>
                    <path d="M70.6238545,15.6728333 L70.6238545,8.34663529 C70.6238545,7.21546743 70.224097,6.29616758 68.7513697,6.29616758 C66.8539152,6.29616758 66.5799758,7.96869555 66.5799758,9.41320631 L66.5799758,15.6728333 L64.8546424,15.6728333 L64.8546424,7.29886485 C64.8546424,6.56540143 64.8131879,5.83386628 64.7511273,5.10088494 L66.5799758,5.10088494 L66.5799758,6.46223931 L66.6670061,6.46223931 C67.3394909,5.26695667 68.1409455,4.89190933 69.5091879,4.89190933 C71.7843394,4.89190933 72.3508848,6.25205854 72.3508848,8.34663529 L72.3508848,15.6728333 L70.6238545,15.6728333 Z" id="Fill-15"></path>
                    <path d="M75.7620364,5.10100545 L75.7620364,3.06909727 L77.4890667,2.29538135 L77.4890667,5.10100545 L79.8054303,5.10100545 L79.8054303,6.39752195 L77.4890667,6.39752195 L77.4890667,12.8670887 C77.4890667,13.5378835 77.4890667,14.3952379 79.0689455,14.3952379 C79.1964606,14.3952379 79.4696727,14.3528161 79.8468848,14.3118405 L79.8468848,15.6314961 C79.2781576,15.6729538 78.7104,15.7975679 78.1411879,15.7975679 C76.4994909,15.7975679 75.7620364,15.1279782 75.7620364,13.9129308 L75.7620364,6.39752195 L74.0136727,6.39752195 L74.0136727,5.10100545 L75.7620364,5.10100545 Z" id="Fill-16"></path>
                </g>
            </g>
        </g>
    </g>
</svg>
