<svg id="Layer_1" data-name="Layer 1" xmlns="http://www.w3.org/2000/svg" viewBox="0 0 394.08 252.4"><title>DO_Logo_Vertical_Blue (4)</title><path d="M68.39,154c52.41-33.67,111.82-9.45,141.41,6.76C168.81,144.54,108.72,140.74,68.39,154Z" transform="translate(-2.52 0.22)" style="fill:#fff;fill-rule:evenodd"/><path d="M160.4-.22a62,62,0,0,1,56.54,36.16h-19.7a47.83,47.83,0,0,0-73.69-.53c0.47-.37.94-0.74,1.44-1.1,20.59-14.7,48,1.5,48,1.5s-26.09-7.54-43.73,4.82-14.81,37.13-14.81,37.13-0.12-.33-0.29-0.92q0.11,0.43.23,0.85A30,30,0,0,0,99.48,72a60.74,60.74,0,0,1-1-11.07c0-33.78,27.73-61.16,61.93-61.16h0ZM81.2,139.68v-5.29c16.38-12.09,46.52-27.83,82.76-16.47,55.08,17.26,90.13,40.74,132.69,30.17S343,114.28,343,114.28s-7.51,32.83-49.45,40-80.56-.87-129.7-19.19c-33.16-12.36-65.26-2.77-82.63,4.55h0Zm0-10.62a94.94,94.94,0,0,1,9-5.48,23.37,23.37,0,0,1-3.87-3,27.43,27.43,0,0,1-5.14-7v11.37l0.33,0.33a21.16,21.16,0,0,0,1.71,1.45q-1-.5-2-1.07v3.48h0Zm0-53V56.57a45.45,45.45,0,0,1,12.69-2.39,66.33,66.33,0,0,0-.35,6.76,65.57,65.57,0,0,0,1,11.25A29.1,29.1,0,0,0,81.2,76Zm0-19.47V76a28.48,28.48,0,0,0,0,49.55v3.48c-3.48,2.35-6.87,4.86-9.68,7A44.3,44.3,0,0,1,81.2,56.57h0Zm0,56.94c-5.52-10.69-3.62-22.82-3.62-22.82s-9.35,21.43,3.62,34.2V113.51h0Zm0,20.88A97.94,97.94,0,0,0,67.88,146c0,0.23,4.95-2.77,13.31-6.3v-5.29Z" transform="translate(-2.52 0.22)" style="fill:#fff;fill-rule:evenodd"/><path d="M219.71,126s26.29,13.46,51,11.27,32.23-11,32.23-11S293.88,143.07,270.1,144,219.71,126.64,219.71,126Z" transform="translate(-2.52 0.22)" style="fill:#fff;fill-rule:evenodd"/><rect x="197.04" y="41.21" width="22.1" height="22.1" style="fill:#fff"/><rect x="284.8" y="102.43" width="17.09" height="17.09" style="fill:#fff"/><rect x="223.67" y="20.96" width="29.47" height="29.46" style="fill:#fff"/><rect x="309.22" y="71.95" width="29.47" height="29.46" style="fill:#fff"/><rect x="255.96" y="52.69" width="16.43" height="16.43" style="fill:#fff"/><rect x="266.95" y="85.05" width="16.43" height="16.43" style="fill:#fff"/><rect x="232.37" y="86.68" width="16.43" height="16.43" style="fill:#fff"/><rect x="289.95" y="53.26" width="16.43" height="16.43" style="fill:#fff"/><path d="M51.05,211.21a29.57,29.57,0,0,1-2,11,25.35,25.35,0,0,1-5.63,8.66,25.19,25.19,0,0,1-8.73,5.63,30.68,30.68,0,0,1-11.3,2H2.52V183.88H23.38a30.44,30.44,0,0,1,11.3,2,25.59,25.59,0,0,1,8.73,5.63A25.16,25.16,0,0,1,49,200.17,29.57,29.57,0,0,1,51.05,211.21Zm-10.39,0a25.09,25.09,0,0,0-1.21-8.07,17.12,17.12,0,0,0-3.44-6,14.85,14.85,0,0,0-5.42-3.8,18.67,18.67,0,0,0-7.2-1.32H12.76v38.48H23.38a18.65,18.65,0,0,0,7.2-1.32,14.82,14.82,0,0,0,5.42-3.8,17.1,17.1,0,0,0,3.44-6A25.08,25.08,0,0,0,40.66,211.21Z" transform="translate(-2.52 0.22)" style="fill:#fff"/><path d="M66.06,188.45a5.32,5.32,0,0,1-.49,2.27,6.16,6.16,0,0,1-3.21,3.12,5.85,5.85,0,0,1-2.34.47,5.62,5.62,0,0,1-2.29-.47,6,6,0,0,1-1.87-1.27,6.12,6.12,0,0,1-1.27-1.85,5.49,5.49,0,0,1-.47-2.27,5.85,5.85,0,0,1,.47-2.34A5.92,5.92,0,0,1,57.72,183a5.64,5.64,0,0,1,2.29-.47,5.87,5.87,0,0,1,2.34.47,6.25,6.25,0,0,1,1.91,1.27,6.1,6.1,0,0,1,1.3,1.89A5.66,5.66,0,0,1,66.06,188.45Zm-1.4,11.3v38.78H55.32V199.75h9.34Z" transform="translate(-2.52 0.22)" style="fill:#fff"/><path d="M84.84,199.07a20.59,20.59,0,0,1,4.69.51,16,16,0,0,1,4,1.49h11.15v3.48a1.93,1.93,0,0,1-.45,1.36,2.69,2.69,0,0,1-1.55.68l-3.48.64a12.11,12.11,0,0,1,.59,2.08,12.4,12.4,0,0,1,.21,2.31,11.54,11.54,0,0,1-1.15,5.2,11.66,11.66,0,0,1-3.17,3.95,14.73,14.73,0,0,1-4.8,2.51,19.68,19.68,0,0,1-6,.89,21.71,21.71,0,0,1-4.27-.42,3.06,3.06,0,0,0-1.81,2.47A1.82,1.82,0,0,0,79.83,228a8.75,8.75,0,0,0,2.83.78,31.18,31.18,0,0,0,4,.23q2.23,0,4.57.19a35.94,35.94,0,0,1,4.57.66,13.42,13.42,0,0,1,4,1.5,8,8,0,0,1,2.83,2.79,8.58,8.58,0,0,1,1.08,4.53,10.7,10.7,0,0,1-1.27,5A13.46,13.46,0,0,1,98.77,248,19.2,19.2,0,0,1,92.89,251,25.13,25.13,0,0,1,85,252.18a30.59,30.59,0,0,1-7.67-.85,17.93,17.93,0,0,1-5.39-2.27,9.84,9.84,0,0,1-3.19-3.27,7.67,7.67,0,0,1-1.06-3.86,6.59,6.59,0,0,1,1.66-4.57,11.41,11.41,0,0,1,4.61-2.95,6.43,6.43,0,0,1-2.31-2.12,6.16,6.16,0,0,1-.87-3.44,5.77,5.77,0,0,1,.3-1.79,7.16,7.16,0,0,1,.93-1.83,9,9,0,0,1,1.57-1.72,10.86,10.86,0,0,1,2.23-1.46,12.22,12.22,0,0,1-4.63-4.23,11.3,11.3,0,0,1-1.68-6.2,11.54,11.54,0,0,1,1.15-5.2,11.66,11.66,0,0,1,3.21-4,14.66,14.66,0,0,1,4.88-2.51A20.75,20.75,0,0,1,84.84,199.07Zm10.24,41.09a2.67,2.67,0,0,0-.68-1.89,4.47,4.47,0,0,0-1.85-1.14,13.46,13.46,0,0,0-2.74-.6,27.22,27.22,0,0,0-3.33-.19H82.86a15.41,15.41,0,0,1-3.61-.42A8.45,8.45,0,0,0,76.7,238a4.23,4.23,0,0,0-1,2.74,3.77,3.77,0,0,0,.51,1.91,4.26,4.26,0,0,0,1.63,1.53,9.67,9.67,0,0,0,2.89,1,22.36,22.36,0,0,0,4.35.36,21.77,21.77,0,0,0,4.5-.41A10.71,10.71,0,0,0,92.72,244a4.77,4.77,0,0,0,1.8-1.7A4.22,4.22,0,0,0,95.09,240.16Zm-10.24-22a8.75,8.75,0,0,0,3-.47,5.92,5.92,0,0,0,2.14-1.3,5.37,5.37,0,0,0,1.29-2,7.34,7.34,0,0,0,.43-2.57A6.08,6.08,0,0,0,90,207.3a7.11,7.11,0,0,0-5.16-1.68,7.1,7.1,0,0,0-5.16,1.68A6.08,6.08,0,0,0,78,211.85a7.21,7.21,0,0,0,.43,2.53,5.55,5.55,0,0,0,1.29,2,5.77,5.77,0,0,0,2.15,1.32A8.79,8.79,0,0,0,84.84,218.2Z" transform="translate(-2.52 0.22)" style="fill:#fff"/><path d="M118.11,188.45a5.32,5.32,0,0,1-.49,2.27,6.16,6.16,0,0,1-3.21,3.12,5.85,5.85,0,0,1-2.34.47,5.62,5.62,0,0,1-2.29-.47,6,6,0,0,1-1.87-1.27,6.12,6.12,0,0,1-1.27-1.85,5.49,5.49,0,0,1-.47-2.27,5.85,5.85,0,0,1,.47-2.34,6,6,0,0,1,1.27-1.89,6.06,6.06,0,0,1,1.87-1.27,5.64,5.64,0,0,1,2.29-.47,5.87,5.87,0,0,1,2.34.47,6.25,6.25,0,0,1,1.91,1.27,6.11,6.11,0,0,1,1.3,1.89A5.66,5.66,0,0,1,118.11,188.45Zm-1.4,11.3v38.78h-9.34V199.75h9.34Z" transform="translate(-2.52 0.22)" style="fill:#fff"/><path d="M136.21,239.14q-5,0-7.75-2.85t-2.72-7.88V206.75h-3.93a1.79,1.79,0,0,1-1.85-2v-3.7l6.24-1,2-10.58a1.87,1.87,0,0,1,.7-1.17,2.22,2.22,0,0,1,1.38-.42h4.84v12.21h10.21v6.65H135.08v21a4.12,4.12,0,0,0,.91,2.83,3.08,3.08,0,0,0,2.42,1,4.39,4.39,0,0,0,1.46-.21,8,8,0,0,0,1-.43q0.43-.23.77-0.43a1.3,1.3,0,0,1,.68-0.21,1.07,1.07,0,0,1,.68.21,3.2,3.2,0,0,1,.57.62l2.8,4.54a14.14,14.14,0,0,1-4.69,2.57A17.46,17.46,0,0,1,136.21,239.14Z" transform="translate(-2.52 0.22)" style="fill:#fff"/><path d="M179.34,238.54h-4.2a4.52,4.52,0,0,1-2.08-.4,2.55,2.55,0,0,1-1.13-1.61l-0.83-2.76a31.64,31.64,0,0,1-2.89,2.32,17.59,17.59,0,0,1-2.93,1.68,15,15,0,0,1-3.21,1,19.35,19.35,0,0,1-3.78.34,14.84,14.84,0,0,1-4.54-.66,9.77,9.77,0,0,1-3.57-2,9,9,0,0,1-2.32-3.3,11.75,11.75,0,0,1-.83-4.59,9.08,9.08,0,0,1,1.15-4.34,10.87,10.87,0,0,1,3.84-3.87,24.46,24.46,0,0,1,7.14-2.86,45.61,45.61,0,0,1,11.08-1.14V214.1q0-3.92-1.64-5.81a6,6,0,0,0-4.78-1.89,11.58,11.58,0,0,0-3.78.53,14.67,14.67,0,0,0-2.63,1.19q-1.12.66-2.06,1.19a4.18,4.18,0,0,1-2.08.53,2.7,2.7,0,0,1-1.62-.49,3.86,3.86,0,0,1-1.1-1.21l-1.7-3A23.06,23.06,0,0,1,165,199a15.61,15.61,0,0,1,6.07,1.12,12.9,12.9,0,0,1,4.52,3.1,13.27,13.27,0,0,1,2.82,4.74,18.23,18.23,0,0,1,1,6v24.49Zm-18.14-5.82a12.63,12.63,0,0,0,2.65-.26,10.13,10.13,0,0,0,2.29-.78,12.14,12.14,0,0,0,2.08-1.28,18.74,18.74,0,0,0,2-1.8v-6.49a37.88,37.88,0,0,0-6.82.51,18.07,18.07,0,0,0-4.4,1.31,5.66,5.66,0,0,0-2.36,1.87,4.14,4.14,0,0,0-.7,2.32,4.1,4.1,0,0,0,1.46,3.54A6.27,6.27,0,0,0,161.19,232.71Z" transform="translate(-2.52 0.22)" style="fill:#fff"/><path d="M194.68,182.37v56.17h-9.34V182.37h9.34Z" transform="translate(-2.52 0.22)" style="fill:#fff"/><path d="M254.41,211.21a30.29,30.29,0,0,1-2,11.13,26.36,26.36,0,0,1-5.63,8.86A25.49,25.49,0,0,1,238,237a31.55,31.55,0,0,1-22.62,0,25.65,25.65,0,0,1-8.77-5.84,26.21,26.21,0,0,1-5.65-8.86,31.92,31.92,0,0,1,0-22.26,26.22,26.22,0,0,1,5.65-8.86,25.66,25.66,0,0,1,8.77-5.84,29.59,29.59,0,0,1,11.32-2.1,29.22,29.22,0,0,1,11.3,2.12,25.85,25.85,0,0,1,8.73,5.84,26.17,26.17,0,0,1,5.63,8.84A30.29,30.29,0,0,1,254.41,211.21Zm-10.43,0a25.45,25.45,0,0,0-1.19-8.07,17.08,17.08,0,0,0-3.42-6.07,14.73,14.73,0,0,0-5.42-3.82,20.3,20.3,0,0,0-14.42,0,14.85,14.85,0,0,0-5.46,3.82,17.12,17.12,0,0,0-3.46,6.07,27.51,27.51,0,0,0,0,16.14,16.91,16.91,0,0,0,3.46,6,14.94,14.94,0,0,0,5.46,3.8,20.3,20.3,0,0,0,14.42,0,14.82,14.82,0,0,0,5.42-3.8,16.87,16.87,0,0,0,3.42-6A25.44,25.44,0,0,0,244,211.21Z" transform="translate(-2.52 0.22)" style="fill:#fff"/><path d="M285.36,208a4.65,4.65,0,0,1-.81.83,1.88,1.88,0,0,1-1.15.3,2.57,2.57,0,0,1-1.4-.43q-0.68-.43-1.62-1a12.19,12.19,0,0,0-2.25-1,10.35,10.35,0,0,0-3.23-.43,9.86,9.86,0,0,0-4.31.89,8.15,8.15,0,0,0-3.08,2.55,11.49,11.49,0,0,0-1.83,4,21.61,21.61,0,0,0-.6,5.35,21,21,0,0,0,.66,5.52,11.79,11.79,0,0,0,1.91,4.06,8.22,8.22,0,0,0,3,2.5,9.16,9.16,0,0,0,4,.85,9.94,9.94,0,0,0,3.61-.55,11.37,11.37,0,0,0,2.32-1.21q0.94-.66,1.64-1.21a2.48,2.48,0,0,1,1.57-.55,1.9,1.9,0,0,1,1.7.87l2.68,3.4a16.84,16.84,0,0,1-3.36,3,18.19,18.19,0,0,1-3.76,2,19.15,19.15,0,0,1-4,1,28.66,28.66,0,0,1-4.12.3,17.22,17.22,0,0,1-6.77-1.34,15.78,15.78,0,0,1-5.54-3.91,18.84,18.84,0,0,1-3.74-6.29,24.31,24.31,0,0,1-1.38-8.49,24.68,24.68,0,0,1,1.23-7.92,17.94,17.94,0,0,1,3.61-6.31,16.54,16.54,0,0,1,5.9-4.18,20.31,20.31,0,0,1,8.09-1.51,19.24,19.24,0,0,1,7.62,1.4,18.61,18.61,0,0,1,5.88,4Z" transform="translate(-2.52 0.22)" style="fill:#fff"/><path d="M306.41,199.15a18.85,18.85,0,0,1,6.75,1.17,14.8,14.8,0,0,1,5.31,3.42,15.64,15.64,0,0,1,3.48,5.52,20.84,20.84,0,0,1,1.25,7.47,13.61,13.61,0,0,1-.09,1.76,2.83,2.83,0,0,1-.34,1.1,1.38,1.38,0,0,1-.66.57,2.82,2.82,0,0,1-1.06.17h-24q0.42,6,3.21,8.77a10,10,0,0,0,7.41,2.8,12.8,12.8,0,0,0,3.91-.53,18.29,18.29,0,0,0,2.87-1.17q1.23-.64,2.15-1.17a3.62,3.62,0,0,1,1.8-.53,2,2,0,0,1,1,.23,2.17,2.17,0,0,1,.72.64l2.72,3.4a15.54,15.54,0,0,1-3.48,3,19.53,19.53,0,0,1-4,2,22.06,22.06,0,0,1-4.27,1,30.67,30.67,0,0,1-4.21.3,20.74,20.74,0,0,1-7.52-1.34,16.82,16.82,0,0,1-6-4,18.59,18.59,0,0,1-4-6.5,25.17,25.17,0,0,1-1.47-9,21.47,21.47,0,0,1,1.29-7.46,18,18,0,0,1,3.69-6.09,17.36,17.36,0,0,1,5.86-4.1A19.3,19.3,0,0,1,306.41,199.15Zm0.19,6.69a8.63,8.63,0,0,0-6.39,2.31,11.36,11.36,0,0,0-2.95,6.54h17.54a11.65,11.65,0,0,0-.49-3.42,7.91,7.91,0,0,0-1.51-2.82,7.17,7.17,0,0,0-2.57-1.91A8.75,8.75,0,0,0,306.6,205.84Z" transform="translate(-2.52 0.22)" style="fill:#fff"/><path d="M357.4,238.54h-4.2a4.52,4.52,0,0,1-2.08-.4,2.55,2.55,0,0,1-1.13-1.61l-0.83-2.76a31.9,31.9,0,0,1-2.89,2.32,17.61,17.61,0,0,1-2.93,1.68,15,15,0,0,1-3.21,1,19.36,19.36,0,0,1-3.78.34,14.84,14.84,0,0,1-4.54-.66,9.76,9.76,0,0,1-3.57-2,9,9,0,0,1-2.32-3.3,11.74,11.74,0,0,1-.83-4.59,9.07,9.07,0,0,1,1.15-4.34,10.87,10.87,0,0,1,3.84-3.87,24.47,24.47,0,0,1,7.14-2.86,45.6,45.6,0,0,1,11.07-1.14V214.1q0-3.92-1.64-5.81a6,6,0,0,0-4.78-1.89,11.58,11.58,0,0,0-3.78.53,14.71,14.71,0,0,0-2.63,1.19q-1.12.66-2.06,1.19a4.17,4.17,0,0,1-2.08.53,2.7,2.7,0,0,1-1.63-.49,3.86,3.86,0,0,1-1.1-1.21l-1.7-3A23.06,23.06,0,0,1,343,199a15.62,15.62,0,0,1,6.07,1.12,12.91,12.91,0,0,1,4.52,3.1,13.27,13.27,0,0,1,2.82,4.74,18.23,18.23,0,0,1,1,6v24.49Zm-18.14-5.82a12.64,12.64,0,0,0,2.65-.26,10.12,10.12,0,0,0,2.29-.78,12.15,12.15,0,0,0,2.08-1.28,18.73,18.73,0,0,0,2-1.8v-6.49a37.89,37.89,0,0,0-6.82.51,18.07,18.07,0,0,0-4.4,1.31,5.66,5.66,0,0,0-2.36,1.87,4.14,4.14,0,0,0-.7,2.32,4.1,4.1,0,0,0,1.45,3.54A6.27,6.27,0,0,0,339.26,232.71Z" transform="translate(-2.52 0.22)" style="fill:#fff"/><path d="M362.81,238.54V199.75h5.71a2.29,2.29,0,0,1,2.38,1.7l0.64,3.06a21.28,21.28,0,0,1,2.48-2.19,17.34,17.34,0,0,1,2.76-1.7,14.05,14.05,0,0,1,3.12-1.1,16.37,16.37,0,0,1,3.63-.38,13.9,13.9,0,0,1,5.63,1.08,11.13,11.13,0,0,1,4.1,3,13.29,13.29,0,0,1,2.49,4.65,19.74,19.74,0,0,1,.85,6v24.68h-9.34V213.85a8.28,8.28,0,0,0-1.64-5.5,6.1,6.1,0,0,0-4.93-1.95,9.71,9.71,0,0,0-4.54,1.1,16.25,16.25,0,0,0-4,3v28h-9.34Z" transform="translate(-2.52 0.22)" style="fill:#fff"/></svg>