<svg id="Layer_1" data-name="Layer 1" xmlns="http://www.w3.org/2000/svg" viewBox="0 0 757.93 762.22"><title>dino-circle</title><path d="M423.33,13.75a24.25,24.25,0,0,1,21.84,26.4l-3,32a24.22,24.22,0,0,1-26.39,21.73l-23.9-2.26,7.57-80.14Zm-6.24,66.08a10.3,10.3,0,0,0,11.11-9l3-32a10.25,10.25,0,0,0-9.21-11l-9.84-.93-4.92,52Z" transform="translate(-9.32 -11.49)" style="fill:#231f20"/><path d="M483.13,24.37l13.59,3.84-21.9,77.45-13.59-3.84Z" transform="translate(-9.32 -11.49)" style="fill:#231f20"/><path d="M541.12,134.35l-12.65-6.28,3.17-51.55-21.17,42.61-12.55-6.23,35.81-72.08,12.65,6.28-3.17,51.55L564.39,56l12.55,6.23Z" transform="translate(-9.32 -11.49)" style="fill:#231f20"/><path d="M631.86,132.67l-21.09,25.55a24.11,24.11,0,0,1-37.19-30.7L594.67,102A24.11,24.11,0,1,1,631.86,132.67ZM600,149.29l21.09-25.55a10.49,10.49,0,0,0-1.37-14.37,10.37,10.37,0,0,0-14.21,1.51l-21.09,25.55c-4,5-2.76,10.68,1.34,14.07C590.07,153.94,596.58,153.4,600,149.29Z" transform="translate(-9.32 -11.49)" style="fill:#231f20"/><path d="M634.38,199.8c3.33,4.29,8.31,5.38,12,2.51,5.57-4.33.37-15.28-1-25.6-1.1-7.26.65-16.33,8.37-22.33,10.55-8.2,25-5.69,33.09,4.69a24.25,24.25,0,0,1-4.26,34L673.93,182a10.47,10.47,0,0,0,1.71-14.26c-3.4-4.37-7.81-5.62-12.1-2.29-4.8,3.73-1.09,13.64.53,23,1.29,8.21.88,18.3-7.78,25-10.38,8.07-24.85,5.56-33-5a24.18,24.18,0,0,1,4.31-33.75l8.6,11.06A10.26,10.26,0,0,0,634.38,199.8Z" transform="translate(-9.32 -11.49)" style="fill:#231f20"/><path d="M672.34,248.33l-20.28,4-6-12.8,81.27-16.14,8.07,17.33-64.68,51.79-6-12.8L681,266.84ZM714.47,240l-28.93,5.8,5.91,12.7Z" transform="translate(-9.32 -11.49)" style="fill:#231f20"/><path d="M708,349.77a24.11,24.11,0,0,1-9.85-47.21l55.72-11.62,2.86,13.72L701,316.28c-6.25,1.42-8.83,6.61-7.74,11.82,1.24,5.4,6.66,9,11.87,8l55.72-11.62,2.86,13.72Z" transform="translate(-9.32 -11.49)" style="fill:#231f20"/><path d="M715.66,391.71L686.45,391l0.34-14.12,80.46,1.95-0.58,24a24.27,24.27,0,0,1-24.8,23.74l-3-.07a23.89,23.89,0,0,1-21.07-13.87l-32.15,13.13L686,409.57l29.52-12.11Zm14,0.34-0.24,9.88c0,5.54,4.42,10.32,9.74,10.45l3,0.07a10.24,10.24,0,0,0,10.35-10l0.24-9.88Z" transform="translate(-9.32 -11.49)" style="fill:#231f20"/><path d="M694.17,495.22a24.17,24.17,0,0,1,11.92-46.85l7.89,2-3.48,13.69-7.89-2c-5.16-1.31-10.73,2.09-12.2,7.43-1.31,5.16,1.06,10.36,7.25,12l55.16,14-3.48,13.69Z" transform="translate(-9.32 -11.49)" style="fill:#231f20"/><path d="M666.54,534.71c-2.46,4.84-1.33,9.8,2.83,11.92,6.29,3.2,14-6.17,22.72-11.85,6.1-4.09,15.05-6.36,23.77-1.93,11.91,6.06,15.8,20.22,9.84,31.93a24.24,24.24,0,0,1-32.57,10.61l6.35-12.49a10.47,10.47,0,0,0,13.63-4.52c2.51-4.94,1.76-9.46-3.08-11.92-5.42-2.76-12.81,4.82-20.57,10.26-6.88,4.67-16.19,8.59-26,3.61-11.72-6-15.6-20.12-9.55-32a24.18,24.18,0,0,1,32.38-10.47L680,530.33A10.26,10.26,0,0,0,666.54,534.71Z" transform="translate(-9.32 -11.49)" style="fill:#231f20"/><path d="M587.86,687.16a10,10,0,1,0,16.25-11.82l-19.49-26.79c-3.86-5.12-9.66-5.33-14-2.2a10.28,10.28,0,0,0-2.29,14l4.79,6.59-11.42,8.31L557,668.68a24.12,24.12,0,0,1,39-28.37l19.49,26.79a24.12,24.12,0,1,1-39,28.37l-4.66-6.41,11.42-8.31Z" transform="translate(-9.32 -11.49)" style="fill:#231f20"/><path d="M504.89,730l-13.09-30.43a24.11,24.11,0,0,1,44.3-19.05L549.2,711A24.11,24.11,0,1,1,504.89,730Zm-0.21-36,13.09,30.43a10.49,10.49,0,0,0,13.41,5.35,10.37,10.37,0,0,0,5.15-13.33l-13.09-30.43c-2.63-5.84-8.24-7.33-13.13-5.23C505.06,683.15,502.58,689.19,504.68,694.07Z" transform="translate(-9.32 -11.49)" style="fill:#231f20"/><path d="M415.06,692.32L429,689.86,457,733.21l-8.29-46.85,13.8-2.44,14,79.26-13.91,2.46-28.07-43.35,8.29,46.85-13.8,2.44Z" transform="translate(-9.32 -11.49)" style="fill:#231f20"/><path d="M375.81,739.86l-27.13-1.24,0.64-14,27.13,1.24L378,692.66l14,0.64-3.68,80.41-41.13-1.88,0.65-14.11L374.93,759Z" transform="translate(-9.32 -11.49)" style="fill:#231f20"/><path d="M303.94,730.2l-26.28-6.85,3.54-13.56,26.28,6.85,4.82-18.5L286,691.29l3.56-13.66L329.42,688l-20.3,77.88-39.83-10.39,3.56-13.66,26.28,6.85Z" transform="translate(-9.32 -11.49)" style="fill:#231f20"/><path d="M243.49,689.62l13.38-26,12.55,6.47-36.87,71.55-21.34-11A24.27,24.27,0,0,1,200.68,698l1.39-2.7a23.89,23.89,0,0,1,21.68-12.9L226,647.73l14.39,7.41-2,31.84Zm-6.42,12.46-8.79-4.53c-5-2.44-11.22-.52-13.65,4.21l-1.39,2.7a10.25,10.25,0,0,0,4.45,13.66l8.79,4.53Z" transform="translate(-9.32 -11.49)" style="fill:#231f20"/><path d="M168.28,663.18l-20.86-17.39,9-10.76,20.86,17.39,12.24-14.68-20.86-17.39,9-10.84,31.62,26.36-51.54,61.82-31.62-26.36,9-10.85L156,677.87Z" transform="translate(-9.32 -11.49)" style="fill:#231f20"/><path d="M133.22,555.94l8.59,11.2L116.3,612l37.75-29,8.53,11.12-63.86,49L90.12,632l25.52-44.9L77.89,616l-8.53-11.12Z" transform="translate(-9.32 -11.49)" style="fill:#231f20"/><path d="M56.81,530.39a10,10,0,1,0,8.28,18.31L95.28,535c5.79-2.74,7.18-8.37,5-13.22A10.28,10.28,0,0,0,87,516.73l-7.42,3.36-5.82-12.87,7.42-3.36A24.11,24.11,0,0,1,101,547.81L70.86,561.46A24.11,24.11,0,1,1,51,517.52l7.22-3.27L64,527.12Z" transform="translate(-9.32 -11.49)" style="fill:#231f20"/><path d="M47.44,470l-5.59-26.57,13.71-2.89,5.59,26.57,18.71-3.94-5.59-26.57,13.82-2.91L96.56,474,17.8,490.59,9.32,450.3l13.82-2.91L28.73,474Z" transform="translate(-9.32 -11.49)" style="fill:#231f20"/><path d="M80.19,319.76l8.56-32,13.75,3.67L90,338.34l-10.81-2.89c-12.07-3.23-21.73-13.34-25-31.87-0.77-4.25-3-11.25-10.09-13.15A10.16,10.16,0,0,0,38.82,310l-3.65,13.64a24.28,24.28,0,1,1,12.54-46.91c17.21,4.6,17.82,19.15,19.47,26C68.17,307.1,71.9,317.54,80.19,319.76Z" transform="translate(-9.32 -11.49)" style="fill:#231f20"/><path d="M82.36,203.84l29.25,15.57A24.11,24.11,0,0,1,88.94,262L59.7,246.41A24.12,24.12,0,1,1,82.36,203.84ZM66.28,234L86.9,245l-20.31-28.9a9.71,9.71,0,0,0-4.63,4.3A10.3,10.3,0,0,0,66.28,234ZM105,231.78L82.2,219.63l21.57,30.68a10.62,10.62,0,0,0,5.27-4.82A10.38,10.38,0,0,0,105,231.78Z" transform="translate(-9.32 -11.49)" style="fill:#231f20"/><path d="M133,204.91L144.14,192l-39.46-34.25L93.51,170.67l-10.66-9.26,20.43-23.54,50.12,43.5,11.18-12.88,10.66,9.26-31.61,36.42Z" transform="translate(-9.32 -11.49)" style="fill:#231f20"/><path d="M156.65,118.86a24.28,24.28,0,1,1,39.22-28.62l-11.41,8.32a10.16,10.16,0,0,0-16.41,12l6,8.16a36.28,36.28,0,0,1,7.09-7.6,24.28,24.28,0,1,1-5.31,34Zm30.55,17.91a10,10,0,0,0,14.14,2.05,10.28,10.28,0,0,0,2.27-14,10.47,10.47,0,0,0-14.18-2.29A10.34,10.34,0,0,0,187.21,136.77Z" transform="translate(-9.32 -11.49)" style="fill:#231f20"/></svg>