<?xml version="1.0" standalone="no"?> <!DOCTYPE svg PUBLIC "-//W3C//DTD SVG 1.1//EN" "http://www.w3.org/Graphics/SVG/1.1/DTD/svg11.dtd"> 
<svg id="home-logo" data-name="Layer 1" xmlns="http://www.w3.org/2000/svg" viewBox="0 0 725.44 94.91"><polygon points="720.97 20.99 720.97 3.11 664.46 3.11 664.46 56.75 702.13 56.75 702.13 74.63 664.46 74.63 664.46 92.51 720.97 92.51 720.97 38.87 683.3 38.87 683.3 20.99 720.97 20.99" style=""/><polygon points="626.78 20.99 626.78 74.63 607.95 74.63 607.95 92.51 645.62 92.51 645.62 3.11 626.78 3.11 626.78 20.99 626.78 20.99" style=""/><polygon points="570.27 92.51 589.11 92.51 589.11 74.63 570.27 74.63 570.27 92.51 570.27 92.51" style=""/><polygon points="551.43 92.51 551.43 74.63 532.6 74.63 532.6 92.51 551.43 92.51 551.43 92.51" style=""/><polygon points="494.92 3.11 494.92 92.51 513.76 92.51 513.76 74.63 532.6 74.63 532.6 56.75 513.76 56.75 513.76 20.99 532.6 20.99 532.6 56.75 551.43 56.75 551.43 3.11 494.92 3.11" style=""/><polygon points="457.25 20.99 457.25 74.63 438.41 74.63 438.41 3.11 419.57 3.11 419.57 92.51 476.08 92.51 476.08 3.11 457.25 3.11 457.25 20.99 457.25 20.99" style=""/><path d="M344.22,3.11v89.4h18.84V74.63h18.83V92.51h18.84V3.11H344.22Zm37.67,35.76V56.75H363.06V21h18.83V38.87h0Z" style=""/><polygon points="268.87 3.11 268.87 56.75 306.54 56.75 306.54 74.63 268.87 74.63 268.87 92.51 325.38 92.51 325.38 38.87 287.71 38.87 287.71 20.99 325.38 20.99 325.38 3.11 268.87 3.11" style=""/><path d="M193.52,3.11v89.4H250V3.11H193.52Zm37.67,35.76V74.63H212.36V21h18.83V38.87h0Z" style=""/><polygon points="118.17 3.11 118.17 92.51 137.01 92.51 137.01 20.99 155.84 20.99 155.84 92.51 174.68 92.51 174.68 3.11 118.17 3.11" style=""/><polygon points="80.49 20.99 80.49 92.51 99.33 92.51 99.33 3.11 80.49 3.11 80.49 20.99 80.49 20.99" style=""/><polygon points="42.82 38.87 42.82 74.63 61.65 74.63 61.65 20.99 42.82 20.99 42.82 38.87 42.82 38.87" style=""/><polygon points="23.98 56.75 23.98 20.99 42.82 20.99 42.82 3.11 5.14 3.11 5.14 92.51 42.82 92.51 42.82 74.63 23.98 74.63 23.98 56.75 23.98 56.75" style=""/></svg>
