<svg id="Layer_1" data-name="Layer 1" xmlns="http://www.w3.org/2000/svg" viewBox="0 0 375.68 104.7"><title>GoDaddy_Logo_RGB_Full_B (1)</title><path d="M29.31,12.75a2.85,2.85,0,0,1,0-.43c0-2.14,2-4.49,2.05-6.87h0V5.38a1,1,0,0,0-.61-0.83,2.51,2.51,0,0,0-1-.19A3.25,3.25,0,0,0,27,5.65c-1,2.1-2.6,4.3-2.62,6.58a4,4,0,0,0,.6,2.14c0.88,1.94,2.07,3.68,3,5.76a2.61,2.61,0,0,1,.23,1,2.65,2.65,0,0,1-.78,1.76c-0.15.21-1.15,0.16-1.66,1l0,0.05V24a1.45,1.45,0,0,0,0,.31,1.93,1.93,0,0,0,1.42,1.7,3.42,3.42,0,0,0,1.24.23,4.29,4.29,0,0,0,3.52-2.05,4.9,4.9,0,0,0,.72-2.54c-0.05-3.24-2.93-6.07-3.27-8.95" transform="translate(-3.39 -3.82)" style="fill:#231f20"/><path d="M41.12,16.69a27.43,27.43,0,0,1-2.81-4.55,4.18,4.18,0,0,1-.62-1.82,2.61,2.61,0,0,1,1-2,2.29,2.29,0,0,0,.64-1.73,2.83,2.83,0,0,0-.91-2.18,3.06,3.06,0,0,0-1.69-.62A2.78,2.78,0,0,0,34.44,5.7a26,26,0,0,0-1.31,3.57,5,5,0,0,0-.23,1.48c0.06,3.7,4,6.57,4.89,10a3.66,3.66,0,0,1,.15,1,7.68,7.68,0,0,1-.62,2.57,2.21,2.21,0,0,0-.15.76,1.81,1.81,0,0,0,1.92,1.72h0a2,2,0,0,0,1.43-.59c1.87-1.93,2.58-3.56,2.58-5,0-1.85-1.1-3.24-2-4.53" transform="translate(-3.39 -3.82)" style="fill:#231f20"/><path d="M8.54,16.37a5,5,0,0,1-.43-2.26c0-1.11.19-2.31,0.19-3.46A5.52,5.52,0,0,0,8,8.76,1.06,1.06,0,0,0,7,8.15a3.31,3.31,0,0,0-3,2.2,48.69,48.69,0,0,0-.61,5A5.11,5.11,0,0,0,5,19.23c1.79,1.71,3.69,3.06,4.75,4.56a2.89,2.89,0,0,1,.69,1.62,3,3,0,0,1-.26,1.16A8.69,8.69,0,0,0,9,29v0.12a0.8,0.8,0,0,0,.7.75H9.74c0.41,0,.7-0.17,1-0.17H11a4,4,0,0,0,3.75-3.18,4.82,4.82,0,0,0,.1-1c-0.08-4.11-4.87-6.06-6.34-9.11" transform="translate(-3.39 -3.82)" style="fill:#231f20"/><path d="M20.57,15.59c-1.52-2.53-3.62-4.81-3.84-7.29a0.16,0.16,0,0,1,.09-0.07,15.65,15.65,0,0,1,2.05-.66,6.38,6.38,0,0,0,1.51-.65,1.71,1.71,0,0,0,1-1.29A1,1,0,0,0,21,4.86a5.07,5.07,0,0,0-2.61-.69c-2.7,0-5.54,1.82-6.24,4.41A5.3,5.3,0,0,0,12,9.77c0.07,3.84,4.38,6.54,5.47,10v0A3.72,3.72,0,0,1,17.67,21a8.76,8.76,0,0,1-.47,2.39,1.53,1.53,0,0,0-.09.55,1.23,1.23,0,0,0,.6,1.09,2.2,2.2,0,0,0,1.17.3,3.08,3.08,0,0,0,2.21-.86,5.74,5.74,0,0,0,1.26-3.61,10.48,10.48,0,0,0-1.77-5.28" transform="translate(-3.39 -3.82)" style="fill:#231f20"/><path d="M50.24,82.6H50.08" transform="translate(-3.39 -3.82)" style="fill:#22201f"/><path d="M61.38,46.94a15,15,0,0,0-6.83-1.48h-0.1C52,39.39,49,34.85,45.3,32a27.93,27.93,0,0,0-17.35-5.53,40.86,40.86,0,0,0-10.18,1.39c-0.25-.65-0.48-1.3-0.78-1.9a0.63,0.63,0,0,0-1-.19,1.45,1.45,0,0,0-.4,1.37,5.12,5.12,0,0,1,.07,1.31,47.21,47.21,0,0,0-5.65,2.11L9.1,31a0.72,0.72,0,0,0-.4.82l1.2,5.06c-0.52.47-1,1-1.6,1.38s-0.56,1.44-.15,1.56a10.57,10.57,0,0,0,2.52.32l1.24,5.23-0.05.15c-0.14.35-.35,0.7-0.47,1-0.29.64,0.27,1.39,0.6,1.19,0.14-.09.26-0.2,0.4-0.29l1.36,5.74a10.69,10.69,0,0,0-2.57,2.46,6.7,6.7,0,0,0-1.23,4,5.32,5.32,0,0,0,.44,2.23s0,0.06.06,0.09a7.62,7.62,0,0,0-.47,2.7c0,0.36,0,.74.05,1.12a5.66,5.66,0,0,0,3,4.51,11.47,11.47,0,0,0,5,1.29l5.55,23.43a0.72,0.72,0,0,0,.7.55,0.74,0.74,0,0,0,.35-0.09l1.47-.8a71.25,71.25,0,0,0,6.32-3.94,5,5,0,0,1,3.05-1,14,14,0,0,1,3.36.63,22.2,22.2,0,0,0,5.69.95,12.75,12.75,0,0,0,2.78-.31,7.76,7.76,0,0,0,5.32-3.87,9.36,9.36,0,0,0,1-4.35c0-.45,0-0.79-0.05-1-0.05-2.3-1.26-4.72-2.44-7.06l-0.37-.75c-2-3.88-2.4-5.32-2.38-5.85a0.19,0.19,0,0,0,0-.11A18,18,0,0,1,53,66.36c1.07-.26,2.09-0.53,2.92-0.8A6.37,6.37,0,0,0,57.18,65a2.77,2.77,0,0,0,.75-0.59,2.34,2.34,0,0,0,.59-1.53,38.24,38.24,0,0,0-.8-6.3,13.35,13.35,0,0,0,3.67-1.18c1.78-.93,3.16-2.36,3.19-4.25s-1.41-3.31-3.19-4.24M12.09,59.47a4.65,4.65,0,0,1,.78-2.6,11,11,0,0,1,1.42-1.5l0.53,2.22a10.79,10.79,0,0,0-2.73,1.88" transform="translate(-3.39 -3.82)" style="fill:#fff"/><path d="M14.84,45.25c0.43-.53.89-1.11,1.39-1.79l0.11-.15A2.74,2.74,0,0,1,17.88,42h0.05a8.19,8.19,0,0,1,3.87,1.78c0.34,0.24.69,0.48,1.07,0.72s0.46,0.33.69,0.49a3.8,3.8,0,0,0,2.16,1h0L26,46h0a0.78,0.78,0,0,0,.54-0.55A2.59,2.59,0,0,1,26.84,45v0a0.86,0.86,0,0,0-.16-0.78l-0.05-.09-0.3-.63a9.72,9.72,0,0,0-1.17-2c-0.63-.82-1.22-1.62-1.8-2.4l-1-1.33a7.77,7.77,0,0,1,2.47-1.17c0.41-.14.82-0.28,1.23-0.45a1.17,1.17,0,0,0,.48-1.25,1,1,0,0,0-.46-0.64l0,0h0a9.31,9.31,0,0,1-2.83-.73,7.2,7.2,0,0,0-1.5-.13,4.84,4.84,0,0,1-2-.31,1.59,1.59,0,0,1-.51-1.1c0-.12-0.05-0.24-0.08-0.35s-0.14-.47-0.21-0.7l-0.1-.31a37.81,37.81,0,0,1,9.12-1.21,25,25,0,0,1,15.58,4.92c3,2.35,5.66,6.16,7.84,11.32a13.1,13.1,0,0,0-3.69,1.12,6,6,0,0,0-2.76,2.54,5.21,5.21,0,0,0-.55,0,8.24,8.24,0,0,0-1.45.17c-0.85-3.61-4.62-6.22-9-6.23-4.71,0-8.6,3-9.12,6.89a25.51,25.51,0,0,0-8.42,1.58Z" transform="translate(-3.39 -3.82)" style="fill:#231f20"/><path d="M11.91,32.87c1-.42,2-0.78,2.88-1.11-0.12.39-.24,0.77-0.34,1.15a1.83,1.83,0,0,1-.45.46l-0.18.15V33.9a14.62,14.62,0,0,1-1.42,1Z" transform="translate(-3.39 -3.82)" style="fill:#231f20"/><path d="M16.91,54a23.86,23.86,0,0,1,8-1.53c0.89,3.55,4.65,6.12,9,6.13,4.61,0,8.51-2.91,9.11-6.75h0a6.83,6.83,0,0,1,1.37-.19h0.09a5.28,5.28,0,0,0,3.23,4,15.66,15.66,0,0,0,6.87,1.38h0.3a38.62,38.62,0,0,1,.77,5.55,23.08,23.08,0,0,1-2.95.88h0c-2.32.6-4.93,1.27-6.16,2.34-2,1.78-.19,5.4,1.75,9.23a36.08,36.08,0,0,1,2.16,4.82c-4.27-.63-7.11-1.73-9.48-3.68s-4.17-4.58-6.34-7.72a1.43,1.43,0,0,0-2-.36,1.42,1.42,0,0,0-.36,2l0.13,0.19c2.22,3.2,4.13,6,6.74,8.12,2.81,2.3,6.29,3.67,11,4.3l0.78,0.1a5,5,0,0,1-4.1,5.29,9.26,9.26,0,0,1-2,.21,19.44,19.44,0,0,1-4.89-.79,17.32,17.32,0,0,0-4.4-.77,7.77,7.77,0,0,0-4.64,1.53c-0.83.57-2.72,1.87-5,3.18Z" transform="translate(-3.39 -3.82)" style="fill:#231f20"/><path d="M17.38,69.1a8.06,8.06,0,0,1-3.17-.94,3.27,3.27,0,0,1-1.87-2.68c0-.38,0-0.67,0-0.92a4.35,4.35,0,0,1,1.06-3.14A7.33,7.33,0,0,1,15.22,60Z" transform="translate(-3.39 -3.82)" style="fill:#231f20"/><path d="M54.54,54.65a13.53,13.53,0,0,1-5.78-1.13c-1.3-.66-2-1.44-2-2.32s0.66-1.65,2-2.32a11.5,11.5,0,0,1,3.64-1,16.82,16.82,0,0,1,2.11-.14h0l0.43,0,0.27,0A12.66,12.66,0,0,1,60.32,49c1.48,0.77,2,1.65,2,2.22s-0.49,1.45-2,2.23a11.25,11.25,0,0,1-3.08,1,14.85,14.85,0,0,1-2.69.26h0Z" transform="translate(-3.39 -3.82)" style="fill:#231f20"/><path d="M33.89,56.14A7.91,7.91,0,0,1,29,54.51a4.49,4.49,0,0,1,0-7.32,8.21,8.21,0,0,1,9.8,0,4.48,4.48,0,0,1,0,7.32,7.8,7.8,0,0,1-4.9,1.62" transform="translate(-3.39 -3.82)" style="fill:#231f20"/><path d="M13.65,44.14c0.2-.73.33-1.43,0.43-2l0.13-.79c0.06-.33.11-0.67,0.18-1a3.18,3.18,0,0,1,.3-0.7c0.09-.17.18-0.34,0.25-0.53a1.22,1.22,0,0,0-.08-1.17v0h0a0.83,0.83,0,0,0-.53-0.17,1.9,1.9,0,0,0-.89.28,0.86,0.86,0,0,1-.23.06l-0.22,0a4.15,4.15,0,0,1-2.22.09,2.42,2.42,0,0,1,.76-0.55l0.36-.21c0.29-.15.59-0.3,0.88-0.47a4.52,4.52,0,0,0,.79-0.57,0.91,0.91,0,0,1,.26-0.13A0.66,0.66,0,0,0,14.18,36l0.28-.28a3.15,3.15,0,0,0,.75-0.93,10.21,10.21,0,0,0,1.11-3.09l0.13-.55c0.1-.4.21-0.82,0.36-1.23,0.13,0.28.26,0.6,0.4,1,0.23,0.63.42,1.27,0.63,2s0.48,1.62.8,2.42a0.27,0.27,0,0,0,.29.2h0.21a0.1,0.1,0,0,1,.12.08l0.08,0.19,0.16-.13a1.87,1.87,0,0,1,1.23-.36h1.47a0.8,0.8,0,0,1,.58.2l-0.64.34a10,10,0,0,1-1.76.83h0a1.47,1.47,0,0,0-.52.9,0.91,0.91,0,0,0,.14.69,1.1,1.1,0,0,0,.47.49,1.25,1.25,0,0,1,.29.24A20.48,20.48,0,0,1,23.89,43h0a0.84,0.84,0,0,1-.43-0.31l-0.1-.1a13.7,13.7,0,0,0-2.11-1.37,12.57,12.57,0,0,1-2.35-1.57,0.93,0.93,0,0,0-.62-0.26,2.39,2.39,0,0,0-1.49,1.16,6.36,6.36,0,0,1-.75.83A11.66,11.66,0,0,0,14.51,43l-0.34.44L14,43.69c-0.12.16-.23,0.31-0.36,0.45h0Z" transform="translate(-3.39 -3.82)" style="fill:#231f20"/><path d="M159.2,75c0,10.08-8.48,18.15-19.06,18.15S121.09,85.08,121.09,75s8.48-18.36,19.06-18.36S159.2,64.84,159.2,75Zm-12.1-.07a7,7,0,1,0-7,7A7,7,0,0,0,147.1,74.93Z" transform="translate(-3.39 -3.82)" style="fill:#fff"/><path d="M210.22,67.62c0,14.54-10.15,24.48-24.48,24.48H165a1.72,1.72,0,0,1-1.74-1.74V45.09A1.71,1.71,0,0,1,165,43.42h20.73C200.07,43.42,210.22,53.09,210.22,67.62Zm-13.07,0c0-6.82-4.73-12.73-11.68-12.73H175.8V80.63h9.67C192.42,80.63,197.15,74.44,197.15,67.62Z" transform="translate(-3.39 -3.82)" style="fill:#fff"/><path d="M228.65,56.64c4.1,0,7.37,1.53,8.83,3.69v-1a1.62,1.62,0,0,1,1.6-1.6h8.69a1.57,1.57,0,0,1,1.6,1.6V90.51a1.57,1.57,0,0,1-1.6,1.6h-8.69a1.57,1.57,0,0,1-1.6-1.6v-1c-1.46,2.16-4.8,3.69-8.9,3.69-8.76,0-17.18-7-17.18-18.36S219.89,56.64,228.65,56.64ZM230.46,82a7.1,7.1,0,1,0-7-7.09A7,7,0,0,0,230.46,82Z" transform="translate(-3.39 -3.82)" style="fill:#fff"/><path d="M267.95,56.64c4.24,0,7.51,1.6,9,3.48V45a1.62,1.62,0,0,1,1.6-1.6h8.83A1.57,1.57,0,0,1,289,45V90.51a1.57,1.57,0,0,1-1.6,1.6h-8.69a1.57,1.57,0,0,1-1.6-1.6v-1c-1.74,2.16-4.8,3.69-8.9,3.69-8.76,0-17.18-7-17.18-18.36S259.32,56.64,267.95,56.64ZM270,82a7.1,7.1,0,1,0-7-7.09A7,7,0,0,0,270,82Z" transform="translate(-3.39 -3.82)" style="fill:#fff"/><path d="M307.52,56.64c4.24,0,7.51,1.6,9,3.48V45a1.62,1.62,0,0,1,1.6-1.6h8.83a1.57,1.57,0,0,1,1.6,1.6V90.51a1.57,1.57,0,0,1-1.6,1.6h-8.69a1.57,1.57,0,0,1-1.6-1.6v-1c-1.74,2.16-4.8,3.69-8.9,3.69-8.76,0-17.18-7-17.18-18.36S298.9,56.64,307.52,56.64ZM309.61,82a7.1,7.1,0,1,0-7-7.09A7,7,0,0,0,309.61,82Z" transform="translate(-3.39 -3.82)" style="fill:#fff"/><path d="M357.59,97.11c-2.16,7.3-7.23,11.41-15.16,11.41a17.42,17.42,0,0,1-11.2-3.83,2.21,2.21,0,0,1-.7-1.46,2.75,2.75,0,0,1,.56-1.46l3.27-5a1.83,1.83,0,0,1,1.39-.76,2.7,2.7,0,0,1,1.81.7,7.46,7.46,0,0,0,4,1.53,3.7,3.7,0,0,0,3.76-2.64l1.11-3.48h-5.29a2.17,2.17,0,0,1-2.09-1.67l-8.83-30a6,6,0,0,1-.28-1.46,1.27,1.27,0,0,1,1.46-1.25h10.43a1.92,1.92,0,0,1,1.67,1.67l5.77,21.56h0.42l4.66-21.56a1.92,1.92,0,0,1,1.67-1.67h10.57a1.27,1.27,0,0,1,1.46,1.25,6.06,6.06,0,0,1-.28,1.46Z" transform="translate(-3.39 -3.82)" style="fill:#fff"/><path d="M108.71,85.36c-4.17,5.84-11.13,7.79-17.25,7.79-14.12,0-24.55-10.64-24.55-25.39,0-14.12,11.27-25.38,26-25.38,10.92,0,19.68,4.66,23.65,13.56,0.49,1,.83,2.71-2.09,3.27l-7.72,1.39a3,3,0,0,1-3.13-1.32A12.8,12.8,0,0,0,93.2,54C85.48,54,80,59.9,80,67.83c0,8.76,6.26,13.84,13,13.84a13,13,0,0,0,10.71-4.94H96.89A1.72,1.72,0,0,1,95.15,75V68.46a1.72,1.72,0,0,1,1.74-1.74h20.79a1.72,1.72,0,0,1,1.74,1.74V90.37a1.72,1.72,0,0,1-1.74,1.74h-7.23a1.72,1.72,0,0,1-1.74-1.74v-5Z" transform="translate(-3.39 -3.82)" style="fill:#fff"/><path d="M368.13,49.16A0.17,0.17,0,0,1,368.3,49h4.26a0.17,0.17,0,0,1,.17.18v0.67a0.16,0.16,0,0,1-.17.17H371v4.2a0.18,0.18,0,0,1-.18.18H370a0.17,0.17,0,0,1-.17-0.18V50H368.3a0.16,0.16,0,0,1-.17-0.17V49.16Z" transform="translate(-3.39 -3.82)" style="fill:#fff"/><path d="M376.18,51.83l1.19-2.69a0.25,0.25,0,0,1,.25-0.15h1.28a0.17,0.17,0,0,1,.17.17V54.2a0.16,0.16,0,0,1-.16.17h-0.76A0.16,0.16,0,0,1,378,54.2V50.39l-1.25,2.77a0.24,0.24,0,0,1-.25.17h-0.62a0.23,0.23,0,0,1-.25-0.17l-1.25-2.77V54.2a0.16,0.16,0,0,1-.16.17h-0.77a0.16,0.16,0,0,1-.16-0.17V49.15a0.17,0.17,0,0,1,.17-0.17h1.31a0.24,0.24,0,0,1,.25.15Z" transform="translate(-3.39 -3.82)" style="fill:#fff"/></svg>
