<svg id="Layer_1" data-name="Layer 1" xmlns="http://www.w3.org/2000/svg" viewBox="0 0 375.68 104.7"><title>GoDaddy_Logo_RGB_Full_B (1)</title><path d="M222,82.26c0,10.08-8.48,18.15-19.06,18.15s-19.06-8.07-19.06-18.15,8.48-18.36,19.06-18.36S222,72.1,222,82.26Zm-12.1-.07a7,7,0,1,0-7,7A7,7,0,0,0,209.88,82.19Z" transform="translate(-66.16 -11.08)" style="fill:#fff"/><path d="M273,74.89c0,14.54-10.15,24.48-24.48,24.48H227.79a1.72,1.72,0,0,1-1.74-1.74V52.35a1.71,1.71,0,0,1,1.74-1.67h20.73C262.84,50.68,273,60.35,273,74.89Zm-13.07,0c0-6.82-4.73-12.73-11.68-12.73h-9.67V87.89h9.67C255.19,87.89,259.92,81.7,259.92,74.89Z" transform="translate(-66.16 -11.08)" style="fill:#fff"/><path d="M291.43,63.9c4.1,0,7.37,1.53,8.83,3.69v-1a1.62,1.62,0,0,1,1.6-1.6h8.69a1.57,1.57,0,0,1,1.6,1.6V97.77a1.57,1.57,0,0,1-1.6,1.6h-8.69a1.57,1.57,0,0,1-1.6-1.6v-1c-1.46,2.16-4.8,3.69-8.9,3.69-8.76,0-17.18-7-17.18-18.36S282.66,63.9,291.43,63.9Zm1.81,25.38a7.1,7.1,0,1,0-7-7.09A7,7,0,0,0,293.23,89.28Z" transform="translate(-66.16 -11.08)" style="fill:#fff"/><path d="M330.72,63.9c4.24,0,7.51,1.6,9,3.48V52.28a1.62,1.62,0,0,1,1.6-1.6h8.83a1.57,1.57,0,0,1,1.6,1.6V97.77a1.57,1.57,0,0,1-1.6,1.6h-8.69a1.57,1.57,0,0,1-1.6-1.6v-1c-1.74,2.16-4.8,3.69-8.9,3.69-8.76,0-17.18-7-17.18-18.36S322.1,63.9,330.72,63.9Zm2.09,25.38a7.1,7.1,0,1,0-7-7.09A7,7,0,0,0,332.81,89.28Z" transform="translate(-66.16 -11.08)" style="fill:#fff"/><path d="M370.29,63.9c4.24,0,7.51,1.6,9,3.48V52.28a1.62,1.62,0,0,1,1.6-1.6h8.83a1.57,1.57,0,0,1,1.6,1.6V97.77a1.57,1.57,0,0,1-1.6,1.6H381a1.57,1.57,0,0,1-1.6-1.6v-1c-1.74,2.16-4.8,3.69-8.9,3.69-8.76,0-17.18-7-17.18-18.36S361.67,63.9,370.29,63.9Zm2.09,25.38a7.1,7.1,0,1,0-7-7.09A7,7,0,0,0,372.38,89.28Z" transform="translate(-66.16 -11.08)" style="fill:#fff"/><path d="M420.37,104.37c-2.16,7.3-7.23,11.41-15.16,11.41A17.42,17.42,0,0,1,394,112a2.21,2.21,0,0,1-.7-1.46,2.75,2.75,0,0,1,.56-1.46l3.27-5a1.83,1.83,0,0,1,1.39-.76,2.7,2.7,0,0,1,1.81.7,7.46,7.46,0,0,0,4,1.53,3.7,3.7,0,0,0,3.76-2.64l1.11-3.48H404a2.17,2.17,0,0,1-2.09-1.67l-8.83-30a6,6,0,0,1-.28-1.46,1.27,1.27,0,0,1,1.46-1.25h10.43a1.92,1.92,0,0,1,1.67,1.67l5.77,21.56h0.42l4.66-21.56a1.92,1.92,0,0,1,1.67-1.67h10.57a1.27,1.27,0,0,1,1.46,1.25,6.06,6.06,0,0,1-.28,1.46Z" transform="translate(-66.16 -11.08)" style="fill:#fff"/><path d="M171.49,92.62c-4.17,5.84-11.13,7.79-17.25,7.79-14.12,0-24.55-10.64-24.55-25.39,0-14.12,11.27-25.38,26-25.38,10.92,0,19.68,4.66,23.65,13.56,0.49,1,.83,2.71-2.09,3.27l-7.72,1.39a3,3,0,0,1-3.13-1.32A12.8,12.8,0,0,0,156,61.25c-7.72,0-13.21,5.91-13.21,13.84,0,8.76,6.26,13.84,13,13.84A13,13,0,0,0,166.48,84h-6.82a1.72,1.72,0,0,1-1.74-1.74V75.72A1.72,1.72,0,0,1,159.66,74h20.79a1.72,1.72,0,0,1,1.74,1.74V97.63a1.72,1.72,0,0,1-1.74,1.74h-7.23a1.72,1.72,0,0,1-1.74-1.74v-5Z" transform="translate(-66.16 -11.08)" style="fill:#fff"/><path d="M92.08,20a2.85,2.85,0,0,1,0-.43c0-2.14,2-4.49,2.05-6.87h0V12.64a1,1,0,0,0-.61-0.83,2.51,2.51,0,0,0-1-.19,3.25,3.25,0,0,0-2.71,1.3c-1,2.1-2.6,4.3-2.62,6.58a4,4,0,0,0,.6,2.14c0.88,1.94,2.07,3.68,3,5.76a2.61,2.61,0,0,1,.23,1,2.65,2.65,0,0,1-.78,1.76c-0.15.21-1.15,0.16-1.66,1l0,0.05V31.3a1.45,1.45,0,0,0,0,.31,1.93,1.93,0,0,0,1.42,1.7,3.42,3.42,0,0,0,1.24.23,4.29,4.29,0,0,0,3.52-2.05A4.9,4.9,0,0,0,95.35,29c-0.05-3.24-2.93-6.07-3.27-8.95" transform="translate(-66.16 -11.08)" style="fill:#231f20"/><path d="M103.89,23.95a27.43,27.43,0,0,1-2.81-4.55,4.18,4.18,0,0,1-.62-1.82,2.61,2.61,0,0,1,1-2,2.29,2.29,0,0,0,.64-1.73,2.83,2.83,0,0,0-.91-2.18,3.06,3.06,0,0,0-1.69-.62A2.78,2.78,0,0,0,97.22,13a26,26,0,0,0-1.31,3.57A5,5,0,0,0,95.68,18c0.06,3.7,4,6.57,4.89,10a3.66,3.66,0,0,1,.15,1,7.68,7.68,0,0,1-.62,2.57,2.21,2.21,0,0,0-.15.76,1.81,1.81,0,0,0,1.92,1.72h0a2,2,0,0,0,1.43-.59c1.87-1.93,2.58-3.56,2.58-5,0-1.85-1.1-3.24-2-4.53" transform="translate(-66.16 -11.08)" style="fill:#231f20"/><path d="M71.32,23.63a5,5,0,0,1-.43-2.26c0-1.11.19-2.31,0.19-3.46A5.52,5.52,0,0,0,70.81,16a1.06,1.06,0,0,0-1.06-.61,3.31,3.31,0,0,0-3,2.2,48.69,48.69,0,0,0-.61,5,5.11,5.11,0,0,0,1.59,3.9c1.79,1.71,3.69,3.06,4.75,4.56a2.89,2.89,0,0,1,.69,1.62,3,3,0,0,1-.26,1.16,8.69,8.69,0,0,0-1.17,2.39v0.12a0.8,0.8,0,0,0,.7.75h0.07c0.41,0,.7-0.17,1-0.17h0.26a4,4,0,0,0,3.75-3.18,4.82,4.82,0,0,0,.1-1c-0.08-4.11-4.87-6.06-6.34-9.11" transform="translate(-66.16 -11.08)" style="fill:#231f20"/><path d="M83.34,22.85c-1.52-2.53-3.62-4.81-3.84-7.29a0.16,0.16,0,0,1,.09-0.07,15.65,15.65,0,0,1,2.05-.66,6.38,6.38,0,0,0,1.51-.65,1.71,1.71,0,0,0,1-1.29,1,1,0,0,0-.43-0.77,5.07,5.07,0,0,0-2.61-.69c-2.7,0-5.54,1.82-6.24,4.41a5.3,5.3,0,0,0-.15,1.2c0.07,3.84,4.38,6.54,5.47,10v0a3.72,3.72,0,0,1,.21,1.22A8.76,8.76,0,0,1,80,30.67a1.53,1.53,0,0,0-.09.55,1.23,1.23,0,0,0,.6,1.09,2.2,2.2,0,0,0,1.17.3,3.08,3.08,0,0,0,2.21-.86,5.74,5.74,0,0,0,1.26-3.61,10.48,10.48,0,0,0-1.77-5.28" transform="translate(-66.16 -11.08)" style="fill:#231f20"/><path d="M113,89.86h-0.17" transform="translate(-66.16 -11.08)" style="fill:#22201f"/><path d="M124.15,54.21a15,15,0,0,0-6.83-1.48h-0.1c-2.43-6.08-5.5-10.61-9.16-13.48a27.93,27.93,0,0,0-17.35-5.53,40.86,40.86,0,0,0-10.18,1.39c-0.25-.65-0.48-1.3-0.78-1.9a0.63,0.63,0,0,0-1-.19,1.45,1.45,0,0,0-.4,1.37,5.12,5.12,0,0,1,.07,1.31,47.21,47.21,0,0,0-5.65,2.11l-1,.44a0.72,0.72,0,0,0-.4.82l1.2,5.06c-0.52.47-1,1-1.6,1.38s-0.56,1.44-.15,1.56a10.57,10.57,0,0,0,2.52.32l1.24,5.23-0.05.15c-0.14.35-.35,0.7-0.47,1-0.29.64,0.27,1.39,0.6,1.19,0.14-.09.26-0.2,0.4-0.29l1.36,5.74A10.69,10.69,0,0,0,74,62.84a6.7,6.7,0,0,0-1.23,4A5.32,5.32,0,0,0,73.16,69s0,0.06.06,0.09a7.62,7.62,0,0,0-.47,2.7c0,0.36,0,.74.05,1.12a5.66,5.66,0,0,0,3,4.51,11.47,11.47,0,0,0,5,1.29l5.55,23.43a0.72,0.72,0,0,0,.7.55,0.74,0.74,0,0,0,.35-0.09l1.47-.8a71.25,71.25,0,0,0,6.32-3.94,5,5,0,0,1,3.05-1,14,14,0,0,1,3.36.63,22.2,22.2,0,0,0,5.69.95,12.75,12.75,0,0,0,2.78-.31,7.76,7.76,0,0,0,5.32-3.87,9.36,9.36,0,0,0,1-4.35c0-.45,0-0.79-0.05-1-0.05-2.3-1.26-4.72-2.44-7.06l-0.37-.75c-2-3.88-2.4-5.32-2.38-5.85a0.19,0.19,0,0,0,0-.11,18,18,0,0,1,4.59-1.57c1.07-.26,2.09-0.53,2.92-0.8a6.37,6.37,0,0,0,1.21-.53,2.77,2.77,0,0,0,.75-0.59,2.34,2.34,0,0,0,.59-1.53,38.24,38.24,0,0,0-.8-6.3,13.35,13.35,0,0,0,3.67-1.18c1.78-.93,3.16-2.36,3.19-4.25s-1.41-3.31-3.19-4.24M74.86,66.73a4.65,4.65,0,0,1,.78-2.6,11,11,0,0,1,1.42-1.5l0.53,2.22a10.79,10.79,0,0,0-2.73,1.88" transform="translate(-66.16 -11.08)" style="fill:#fff"/><path d="M77.61,52.51C78,52,78.5,51.4,79,50.71l0.11-.15a2.74,2.74,0,0,1,1.53-1.33H80.7A8.19,8.19,0,0,1,84.57,51c0.34,0.24.69,0.48,1.07,0.72s0.46,0.33.69,0.49a3.8,3.8,0,0,0,2.16,1h0l0.33,0h0a0.78,0.78,0,0,0,.54-0.55,2.59,2.59,0,0,1,.26-0.41v0a0.86,0.86,0,0,0-.16-0.78l-0.05-.09-0.3-.63a9.72,9.72,0,0,0-1.17-2c-0.63-.82-1.22-1.62-1.8-2.4l-1-1.33a7.77,7.77,0,0,1,2.47-1.17c0.41-.14.82-0.28,1.23-0.45a1.17,1.17,0,0,0,.48-1.25,1,1,0,0,0-.46-0.64l0,0h0A9.31,9.31,0,0,1,86,40.71a7.2,7.2,0,0,0-1.5-.13,4.84,4.84,0,0,1-2-.31,1.59,1.59,0,0,1-.51-1.1c0-.12-0.05-0.24-0.08-0.35s-0.14-.47-0.21-0.7l-0.1-.31a37.81,37.81,0,0,1,9.12-1.21,25,25,0,0,1,15.58,4.92c3,2.35,5.66,6.16,7.84,11.32A13.1,13.1,0,0,0,110.45,54a6,6,0,0,0-2.76,2.54,5.21,5.21,0,0,0-.55,0,8.24,8.24,0,0,0-1.45.17c-0.85-3.61-4.62-6.22-9-6.23-4.71,0-8.6,3-9.12,6.89a25.51,25.51,0,0,0-8.42,1.58Z" transform="translate(-66.16 -11.08)" style="fill:#fff"/><path d="M74.68,40.13c1-.42,2-0.78,2.88-1.11-0.12.39-.24,0.77-0.34,1.15a1.83,1.83,0,0,1-.45.46l-0.18.15v0.38a14.62,14.62,0,0,1-1.42,1Z" transform="translate(-66.16 -11.08)" style="fill:#fff"/><path d="M79.68,61.25a23.86,23.86,0,0,1,8-1.53c0.89,3.55,4.65,6.12,9,6.13,4.61,0,8.51-2.91,9.11-6.75h0a6.83,6.83,0,0,1,1.37-.19h0.09a5.28,5.28,0,0,0,3.23,4,15.66,15.66,0,0,0,6.87,1.38h0.3a38.62,38.62,0,0,1,.77,5.55,23.08,23.08,0,0,1-2.95.88h0c-2.32.6-4.93,1.27-6.16,2.34-2,1.78-.19,5.4,1.75,9.23a36.08,36.08,0,0,1,2.16,4.82c-4.27-.63-7.11-1.73-9.48-3.68s-4.17-4.58-6.34-7.72a1.43,1.43,0,0,0-2-.36,1.42,1.42,0,0,0-.36,2l0.13,0.19c2.22,3.2,4.13,6,6.74,8.12,2.81,2.3,6.29,3.67,11,4.3l0.78,0.1a5,5,0,0,1-4.1,5.29,9.26,9.26,0,0,1-2,.21,19.44,19.44,0,0,1-4.89-.79,17.32,17.32,0,0,0-4.4-.77,7.77,7.77,0,0,0-4.64,1.53c-0.83.57-2.72,1.87-5,3.18Z" transform="translate(-66.16 -11.08)" style="fill:#fff"/><path d="M80.15,76.36A8.06,8.06,0,0,1,77,75.42a3.27,3.27,0,0,1-1.87-2.68c0-.38,0-0.67,0-0.92a4.35,4.35,0,0,1,1.06-3.14A7.33,7.33,0,0,1,78,67.25Z" transform="translate(-66.16 -11.08)" style="fill:#fff"/><path d="M117.31,61.91a13.53,13.53,0,0,1-5.78-1.13c-1.3-.66-2-1.44-2-2.32s0.66-1.65,2-2.32a11.5,11.5,0,0,1,3.64-1,16.82,16.82,0,0,1,2.11-.14h0l0.43,0L118,55a12.66,12.66,0,0,1,5.07,1.19c1.48,0.77,2,1.65,2,2.22s-0.49,1.45-2,2.23a11.25,11.25,0,0,1-3.08,1,14.85,14.85,0,0,1-2.69.26h0Z" transform="translate(-66.16 -11.08)" style="fill:#231f20"/><path d="M96.66,63.4a7.91,7.91,0,0,1-4.9-1.62,4.49,4.49,0,0,1,0-7.32,8.21,8.21,0,0,1,9.8,0,4.48,4.48,0,0,1,0,7.32,7.8,7.8,0,0,1-4.9,1.62" transform="translate(-66.16 -11.08)" style="fill:#231f20"/><path d="M76.42,51.4c0.2-.73.33-1.43,0.43-2L77,48.58c0.06-.33.11-0.67,0.18-1a3.18,3.18,0,0,1,.3-0.7c0.09-.17.18-0.34,0.25-0.53a1.22,1.22,0,0,0-.08-1.17v0h0a0.83,0.83,0,0,0-.53-0.17,1.9,1.9,0,0,0-.89.28,0.86,0.86,0,0,1-.23.06l-0.22,0a4.15,4.15,0,0,1-2.22.09,2.42,2.42,0,0,1,.76-0.55l0.36-.21c0.29-.15.59-0.3,0.88-0.47a4.52,4.52,0,0,0,.79-0.57,0.91,0.91,0,0,1,.26-0.13A0.66,0.66,0,0,0,77,43.23l0.28-.28A3.15,3.15,0,0,0,78,42a10.21,10.21,0,0,0,1.11-3.09l0.13-.55c0.1-.4.21-0.82,0.36-1.23,0.13,0.28.26,0.6,0.4,1,0.23,0.63.42,1.27,0.63,2s0.48,1.62.8,2.42a0.27,0.27,0,0,0,.29.2h0.21a0.1,0.1,0,0,1,.12.08l0.08,0.19,0.16-.13a1.87,1.87,0,0,1,1.23-.36H85a0.8,0.8,0,0,1,.58.2L84.9,43a10,10,0,0,1-1.76.83h0a1.47,1.47,0,0,0-.52.9,0.91,0.91,0,0,0,.14.69,1.1,1.1,0,0,0,.47.49,1.25,1.25,0,0,1,.29.24,20.48,20.48,0,0,1,3.2,4.06h0a0.84,0.84,0,0,1-.43-0.31l-0.1-.1A13.7,13.7,0,0,0,84,48.44a12.57,12.57,0,0,1-2.35-1.57A0.93,0.93,0,0,0,81,46.6a2.39,2.39,0,0,0-1.49,1.16,6.36,6.36,0,0,1-.75.83,11.66,11.66,0,0,0-1.5,1.71l-0.34.44L76.78,51c-0.12.16-.23,0.31-0.36,0.45h0Z" transform="translate(-66.16 -11.08)" style="fill:#231f20"/><path d="M430.9,56.42a0.17,0.17,0,0,1,.17-0.18h4.26a0.17,0.17,0,0,1,.17.18v0.67a0.16,0.16,0,0,1-.17.17h-1.56v4.2a0.18,0.18,0,0,1-.18.18h-0.8a0.17,0.17,0,0,1-.17-0.18v-4.2h-1.55a0.16,0.16,0,0,1-.17-0.17V56.42Z" transform="translate(-66.16 -11.08)" style="fill:#fff"/><path d="M439,59.09l1.19-2.69a0.25,0.25,0,0,1,.25-0.15h1.28a0.17,0.17,0,0,1,.17.17v5.05a0.16,0.16,0,0,1-.16.17h-0.76a0.16,0.16,0,0,1-.17-0.17V57.65l-1.25,2.77a0.24,0.24,0,0,1-.25.17h-0.62a0.23,0.23,0,0,1-.25-0.17l-1.25-2.77v3.81a0.16,0.16,0,0,1-.16.17H436.2a0.16,0.16,0,0,1-.16-0.17V56.41a0.17,0.17,0,0,1,.17-0.17h1.31a0.24,0.24,0,0,1,.25.15Z" transform="translate(-66.16 -11.08)" style="fill:#fff"/></svg>
