<svg id="Layer_1" data-name="Layer 1" xmlns="http://www.w3.org/2000/svg" viewBox="0 0 346.63 175.48"><title>godaddy-logo-vector</title><path d="M28.59,83.66c-6.93,2.42-8.14,5.21-7.79,9.35s5.18,5.88,10,5.53" transform="translate(-9.85 -10)" style="fill:none;stroke:#fff;stroke-miterlimit:10"/><path d="M28.59,83.66c-6.93,2.42-8.14,5.21-7.79,9.35s5.18,5.88,10,5.53" transform="translate(-9.85 -10)" style="fill:none;stroke:#fff;stroke-width:1.123px"/><path d="M19.21,49.84c14.44-6.58,32.52-8.08,45,1.63S81.08,85.38,81.08,91.28c0,1.38-10,2.42-12.82,4.85-3.65,3.19,6.41,15.07,6.24,20.79,0,0,1.21,8-6.41,9.7-8.47,1.92-14.21-4.85-21.14,0a93.17,93.17,0,0,1-8.31,5.2l-19.43-82" transform="translate(-9.85 -10)" style="fill:none;stroke:#fff;stroke-miterlimit:10"/><path d="M19.21,49.84c14.44-6.58,32.52-8.08,45,1.63S81.08,85.38,81.08,91.28c0,1.38-10,2.42-12.82,4.85-3.65,3.19,6.41,15.07,6.24,20.79,0,0,1.21,8-6.41,9.7-8.47,1.92-14.21-4.85-21.14,0a93.17,93.17,0,0,1-8.31,5.2Z" transform="translate(-9.85 -10)" style="fill:none;stroke:#fff;stroke-linecap:round;stroke-width:1.123px"/><path d="M45.25,33.26a4.15,4.15,0,0,1-.83,4.59c-0.58.5-1.79,0.53-2.18,1.31a2.05,2.05,0,0,0,1.54,2.22c2.39,0.92,4.72-.61,5.77-2.36,3.06-5.52-2.85-10.47-3.56-15.95-0.44-3.6,2.77-7.27,2.76-10.55,0-1.22-3.66-1.27-4.86.7C42.08,17.14,39,21.32,41.15,25c1.2,2.77,2.82,5.25,4.09,8.27" transform="translate(-9.85 -10)" style="fill:#fff"/><path d="M56.23,33.32c0.54,1.93,0,3.59-.65,5.48-0.91,2.48,2.1,3.51,3.43,2.08,5.6-6.07,2.94-9.53.74-12.83a37.8,37.8,0,0,1-3.86-6.57c-0.46-1-2.08-3.46.69-6.06,1-.93.93-3.56-0.35-4.68-3.74-2.63-5,2.22-6.31,6.6-1.73,5.69,4.82,10.2,6.31,16" transform="translate(-9.85 -10)" style="fill:#fff"/><path d="M18.29,38.23A4.14,4.14,0,0,1,19,42.85a13,13,0,0,0-1.54,3.22c0.16,1.06,1,.25,2.06.33,2.55,0.12,4.29-2.07,4.73-4.06,1.16-6.21-6-9-8.42-14-1.56-3.28.33-7.77-.73-10.89-0.41-1.15-3.87,0-4.39,2.2-0.47,4.3-2,9.23,1.13,12,2,2.24,4.33,4.08,6.5,6.55" transform="translate(-9.85 -10)" style="fill:#fff"/><path d="M28.65,31.91c0.64,1.9.21,3.58-.34,5.51-0.77,2.53,3.05,2.44,4.33,1,2.89-3.9,1.22-8.52-.78-11.94s-5-6.81-5.29-10.63c0-1.08,2.24-1.13,3.31-1.64,1.31-.39,4-1.77,2.68-2.82-3.89-2.41-10,.49-11.11,4.94-1.41,5.77,5.39,9.91,7.21,15.6" transform="translate(-9.85 -10)" style="fill:#fff"/><path d="M49.72,99.94c6.23,9,10,14.55,22.86,16.28" transform="translate(-9.85 -10)" style="fill:none;stroke:#fff;stroke-linecap:round;stroke-width:1.123px"/><path d="M23.49,53.23c0.88-.78,3.51-8.57,3.32-9.16s3.41,7.8,3.61,8.09,7.31,0.69,7.79,1.36-4.39,2.14-5,2.92,6.92,9.84,6.53,10.42-10.13-6-10.72-5.65-7.41,7.41-7.7,7.41,2-8.77,1.75-9.45-5.16.39-5.55-.49,5.94-5.46,5.94-5.46" transform="translate(-9.85 -10)" style="fill:#b3b3b3"/><path d="M26.29,62.17c-1.29,1.12-2.13,2.73-3.34,4-0.28.26-.2-0.26-0.2-0.37,0.48-1.72.67-3.33,1-5.21a13.34,13.34,0,0,1,.76-1.73,1.42,1.42,0,0,0-.08-1.38,1.62,1.62,0,0,0-1.69.15,5.65,5.65,0,0,1-4.07.23,4.71,4.71,0,0,1,1.74-1.35,8.67,8.67,0,0,0,2.24-1.38,2.61,2.61,0,0,0,.85-0.49A6.37,6.37,0,0,0,24.88,53c1.32-2.09,1.4-4.72,2.33-7,1.21,2.32,1.66,5.05,2.7,7.67C30,54,30.55,53.48,30.75,54c0.92-.75,2-0.52,3.06-0.52a1.84,1.84,0,0,1,1.85.52,25.18,25.18,0,0,1-3.53,1.72,1.53,1.53,0,0,0-.45,1.87,4.17,4.17,0,0,0,1,1,28.88,28.88,0,0,1,4.46,5.7c-0.48.37-.84-0.11-1.21-0.49-2-1.61-4-2.17-6-4-1.32-1.16-2.38,1.31-3.62,2.37m0,2.58c0.73-1,1.57-2.17,2.5-2.09,2.69,0.3,4.91,2.39,7.35,4,1.37,0.9,2.58,2.24,4.15,2,0.39,0,.56-0.75,1-1.23a1,1,0,0,0-.28-1c-1.32-1.08-1.57-2.85-2.53-4.08-1.38-1.77-2.58-3.46-3.9-5.22,1.6-1.35,3.45-1.61,5.22-2.35a1.44,1.44,0,0,0,.53-1.46,1.3,1.3,0,0,0-.53-0.75,12.83,12.83,0,0,1-3.9-1c-1.6-.34-3.17.11-4.74-0.6-0.65-.3-0.73-1.39-0.93-2.1a43.57,43.57,0,0,0-2.69-7.66,0.86,0.86,0,0,0-1.29-.26,2,2,0,0,0-.56,1.86c0.56,2.69-.76,5.42-1.4,7.89a3,3,0,0,1-.84.86V52a27.76,27.76,0,0,1-4,2.7c-1.29.78-2.41,2.13-3.7,3.1-0.68.49-.76,1.95-0.2,2.1a16.61,16.61,0,0,0,6.51.26,18.8,18.8,0,0,1-1.49,7.46c-0.2.48-.48,1-0.65,1.35-0.39.86,0.36,1.87,0.82,1.61C22.94,69.25,24.57,67.08,26.29,64.75Z" transform="translate(-9.85 -10)" style="fill:#fff"/><path d="M38.38,75.42c-12,.51-15.65,4.21-17.63,6.78s-1.81,7.68.45,8.13" transform="translate(-9.85 -10)" style="fill:none;stroke:#fff;stroke-width:1.123px"/><path d="M50.41,83.73c6,0,10.86-3.95,10.86-8.82S56.41,66.1,50.41,66.1,39.54,70,39.54,74.92s4.86,8.82,10.87,8.82" transform="translate(-9.85 -10)"/><ellipse cx="40.55" cy="64.92" rx="10.86" ry="8.82" style="fill:none;stroke:#fff;stroke-width:1.123px"/><path d="M78.42,81.69c6.71,0,12.14-2.83,12.14-6.33S85.13,69,78.42,69s-12.14,2.44-12.14,6.33,5.44,6.33,12.14,6.33" transform="translate(-9.85 -10)"/><ellipse cx="68.57" cy="65.37" rx="12.14" ry="6.33" style="fill:none;stroke:#fff;stroke-width:1.123px"/><path d="M61.27,74.92s5.07-1.58,5,.45" transform="translate(-9.85 -10)" style="fill:none;stroke:#fff;stroke-width:1.123px"/><path d="M356.49,96.53c0,9.81-19.37,17.75-43.27,17.75s-43.27-7.95-43.27-17.75,19.37-17.75,43.27-17.75,43.27,7.95,43.27,17.75" transform="translate(-9.85 -10)" style="fill:#221f1f"/><path d="M355.4,95.44c0,9.8-19.37,17.75-43.27,17.75s-43.28-7.95-43.28-17.75,19.38-17.75,43.28-17.75,43.27,7.95,43.27,17.75" transform="translate(-9.85 -10)" style="fill:#fff"/><path d="M281.32,98.86a1.92,1.92,0,0,1,1.48.66,2.31,2.31,0,0,1,.6,1.61,2.25,2.25,0,0,1-.61,1.59,2,2,0,0,1-2.94,0,2.29,2.29,0,0,1-.61-1.6,2.25,2.25,0,0,1,.6-1.58,2,2,0,0,1,1.48-.67" transform="translate(-9.85 -10)" style="fill:#231f20"/><path d="M299.78,97.49l2.15,3.43-0.29.23a0.93,0.93,0,0,0-.48-0.23,3,3,0,0,0-1,.51,13.66,13.66,0,0,1-3.07,1.52,10.12,10.12,0,0,1-3.08.43,8.63,8.63,0,0,1-5.68-1.81,7.44,7.44,0,0,1-2-2.59,8.48,8.48,0,0,1-.79-3.65,8.21,8.21,0,0,1,1.45-4.8q2.28-3.26,7-3.25a10.22,10.22,0,0,1,3.09.43,13.3,13.3,0,0,1,3.08,1.53,2.91,2.91,0,0,0,1,.51,0.91,0.91,0,0,0,.48-0.23l0.29,0.25-2.15,3.38-0.28-.22a1,1,0,0,1,0-.2c0-.08,0-0.15,0-0.18q0-.67-1.71-1.52a7.31,7.31,0,0,0-3.27-.81,5.55,5.55,0,0,0-3.81,1.32,5.09,5.09,0,0,0,0,7.62,5.64,5.64,0,0,0,3.81,1.3,7.43,7.43,0,0,0,3.59-1c0.93-.51,1.4-1,1.4-1.35,0,0,0-.15,0-0.39l0.28-.23" transform="translate(-9.85 -10)" style="fill:#231f20"/><path d="M311.33,87.28A8.59,8.59,0,0,1,317,89.15a7.76,7.76,0,0,1,2.71,6.3,7.48,7.48,0,0,1-2.71,6.05,9.39,9.39,0,0,1-11.27,0,8.36,8.36,0,0,1,0-12.35,8.75,8.75,0,0,1,5.61-1.87m0,2.93a4.63,4.63,0,0,0-3.59,1.53,5.65,5.65,0,0,0,0,7.17,5,5,0,0,0,7.19,0,5,5,0,0,0,1.29-3.51,5.17,5.17,0,0,0-1.29-3.66A4.8,4.8,0,0,0,311.35,90.21Z" transform="translate(-9.85 -10)" style="fill:#231f20"/><path d="M330.29,103.05L325.13,92.9v8.73a1,1,0,0,0,.18.65,1.31,1.31,0,0,0,.63.38v0.39h-4.73v-0.39a1.18,1.18,0,0,0,.62-0.36,1,1,0,0,0,.18-0.66V89a1.06,1.06,0,0,0-.17-0.66,1.26,1.26,0,0,0-.63-0.37V87.58h6V88a0.78,0.78,0,0,0-.6.79,3.1,3.1,0,0,0,.43,1.38l3.54,7,3.56-6.94a4,4,0,0,0,.61-1.55,0.7,0.7,0,0,0-.62-0.72V87.58H340V88a1.23,1.23,0,0,0-.63.37,1.05,1.05,0,0,0-.18.65v12.64a1.08,1.08,0,0,0,.18.66,1.18,1.18,0,0,0,.63.37v0.39h-5v-0.39a1.17,1.17,0,0,0,.63-0.36,1.07,1.07,0,0,0,.18-0.66V92.9l-5.49,10.16" transform="translate(-9.85 -10)" style="fill:#231f20"/><path d="M105,58.66c5.08-4.8,11.27-4.34,16,0,1.6,1.38.7,3.5-.62,4.42-3.34,2.22-6.67-1.2-10,0-3,1-4.38,5.74-5.36,9.25-2.36,8.52-3.76,21,3.34,25.36a2.85,2.85,0,0,0,4.31-1.3c1-2.69,2.71-6.29.7-8.05-0.7-.46-2-1.3-2-1.76-1.67-3.52,1.67-5.46,3.69-6.21,3.61-1.48,9,1.3,7,7.13,0,0.37-1.39.83-1.39,1.3,0,3.14-.9,5.74-1.32,8.88-0.28,2.22-2,3.15-3,4.91-1.32,1.3-3,.92-4.31,1.76-6.33,3.62-13.72-1.76-15-11.11-1.88-12.87-.63-26.56,8-34.59" transform="translate(-9.85 -10)" style="fill:#fff"/><path d="M132,84.13c-7.3-2.2.21-14.9,1.73-12.76C137.5,76.78,137,85.61,132,84.13m-2.22,9.2c1.87,1.39,5.48,1.3,7-.84,3.68-5.21,6.25-11.39,4.79-18.65a25.86,25.86,0,0,0-3.4-9.08c-2.64-3.9-7.5-5.38-9.16-.37-0.83,2.6-3.34,5.3-4.46,10.46C123.05,81.83,125.07,89.61,129.8,93.33Z" transform="translate(-9.85 -10)" style="fill:#fff"/><path d="M165.84,93.08c-0.63,0-1.32-29.46-1.32-32.52,5.35,0.84,9.31,7.32,10.84,13.16,1.39,5.1-1,10.19-3.06,14.55-1.11,2.31-3.82,5.55-6.46,4.82m-5.63,7.69c3.2,1.58,6.46.46,9.38-1.58,8.9-5.84,15.72-21.58,8.9-34.09a40.56,40.56,0,0,0-8.9-11.39,12.91,12.91,0,0,0-8.48-3.15,3.7,3.7,0,0,0-4.72,3.15c0,0.37-.28,1.58,0,1.94,0.56,1.21,1.74,2.41,1.74,3.52,0.9,11,1.74,21.77,1.53,32.33-0.07,1.58-1.81,2.23-2.37,3.43C156.66,97.25,158.47,99.93,160.21,100.77Z" transform="translate(-9.85 -10)" style="fill:#fff"/><path d="M197.94,96.24c-0.56,1.76-10.4-.28-10.33-4.36,0.14-8,7.19-6.39,11.25-8.43,1.54,4.91-.28,8.05-0.91,12.79m1.26,11.21c3.83,3.43,4.25-8.89,4.53-14.55,0.49-8.62,3.83-16.49,1-24.36-3.14-8.7-13.54-6.11-18.57-1.57-0.63.83,0,8.33,2.79,7,3.7-1.67,6.29-4.17,10.41-3,1.53,0.37,1.12,4.54.49,5.83-0.14.28-10-2.87-15.64,7.23-1.74,3.06-2.5,9.64-.63,13,2.79,6.21,8.37,5.83,13.33,7C197.94,104.11,198,106.43,199.2,107.44Z" transform="translate(-9.85 -10)" style="fill:#fff"/><path d="M213.84,83.43c-0.7-5.74,5-8.43,8.68-8.43,0,5.28-1.32,10.19-.69,15.56-3.68,1.76-7.5-2.69-8-7.13m-7,1.3c0,6.77,4.31,9.92,7.71,13,2.57,2.32,5.28,1.3,8,1.3,1.66,0.47,1.66,6.3,4.63,5.84,1,0,2.7-1.4,2.7-2.24-2-15.66-2.35-31.69,1.67-46.33,0.28-1.76-1.32-3.15-2-3.62-1.66-.93-3.67.93-4.64,3.15-1,3.15-.35,8-2,9.82C217.52,71.39,206.82,73.15,206.82,84.73Z" transform="translate(-9.85 -10)" style="fill:#fff"/><path d="M239.55,83.43c-0.7-5.74,5-8.43,8.68-8.43,0,5.28-1.32,10.19-.69,15.56-3.68,1.76-7.5-2.69-8-7.13m-7,1.3c0,6.77,4.31,9.92,7.71,13,2.57,2.32,5.28,1.3,8,1.3,1.66,0.47,1.66,6.3,4.64,5.84,1,0,2.71-1.4,2.71-2.24-2-15.66-2.36-31.69,1.67-46.33,0.28-1.76-1.32-3.15-2-3.62-1.67-.93-3.67.93-4.64,3.15-1,3.15-.34,8-2,9.82C243.23,71.39,232.53,73.15,232.53,84.73Z" transform="translate(-9.85 -10)" style="fill:#fff"/><path d="M260.34,62.32c1.39-2.78,5.07-3.15,6.18,0,1.67,4.63.35,10.1,1,15.56,0.35,1.39,1,0,1.39-.46,2.09-5.93,3.47-12.78,7.57-16,1.74-1.3,6.12-.56,4.45,3.7-3.54,9.08-8.61,17.88-9.24,28.81-0.42,6.49-5.22,25.44-8.62,31.18-2.5,4.09-8.62,4.56-10.35,0-1-2.78-2-6.85.35-8.71,1.74-1.39,4.1.92,4.45,3.61,4.87-5,5.36-15,6.61-22.84,0.77-5-2.43-9.17-2.78-13.71-0.35-5.1-1-9.64-1.39-14.73-0.14-2.22-.7-5,0.35-6.39" transform="translate(-9.85 -10)" style="fill:#fff"/><path d="M297.68,61.6a5.64,5.64,0,1,1-.76-2.81,5.52,5.52,0,0,1,.76,2.81m-1.11,0a4.53,4.53,0,1,0-1.33,3.2A4.34,4.34,0,0,0,296.57,61.6Zm-7.07-3h2.69a2.41,2.41,0,0,1,1.65.46,1.57,1.57,0,0,1,.51,1.23,1.52,1.52,0,0,1-.4,1,2.28,2.28,0,0,1-1.23.64,1.7,1.7,0,0,1,.51.28,3.07,3.07,0,0,1,.48.62l1,1.76h-1.77a13.8,13.8,0,0,0-1.15-2.08,0.8,0.8,0,0,0-.58-0.34l-0.18,0v2.4h-1.5v-6Zm1.5,2.54h0.65a1.49,1.49,0,0,0,.91-0.21,0.65,0.65,0,0,0,.27-0.54,0.66,0.66,0,0,0-.26-0.54,1.37,1.37,0,0,0-.86-0.21H291v1.5Z" transform="translate(-9.85 -10)" style="fill:#fff"/><path d="M264,173.47c-33.83-4.28-89.71-2.43-103.83,12,0-.43.1-0.84,0.7-0.71,24.09-9.7,68.56-10.55,98.25-6.36,5.19,0.73,13.38,4.19,16.17,0-0.29-4.55-7.42-4.45-11.3-4.94" transform="translate(-9.85 -10)" style="fill:#fff;fill-rule:evenodd"/><polyline points="119.48 106.71 112.71 106.71 112.71 123.42 110.19 123.42 110.19 106.71 103.42 106.71 103.42 104.47 119.48 104.47 119.48 106.71" style="fill:#fff"/><path d="M142.79,133.41H140.4v-8.09a14,14,0,0,0-.11-1.84,3.38,3.38,0,0,0-.42-1.34,1.92,1.92,0,0,0-.92-0.79,3.91,3.91,0,0,0-1.55-.26,5,5,0,0,0-2,.48,10.55,10.55,0,0,0-2,1.23v10.62h-2.39v-19.8h2.39v7.17a9.73,9.73,0,0,1,2.32-1.45,6.1,6.1,0,0,1,2.46-.52,4.4,4.4,0,0,1,3.51,1.39,5.91,5.91,0,0,1,1.21,4v9.23" transform="translate(-9.85 -10)" style="fill:#fff"/><path d="M157.48,126.55H147a6,6,0,0,0,.4,2.29,4.21,4.21,0,0,0,2.65,2.51,6.26,6.26,0,0,0,2,.31,7.91,7.91,0,0,0,2.92-.58,7.14,7.14,0,0,0,2.09-1.14h0.13v2.61a20.56,20.56,0,0,1-2.47.85,10.08,10.08,0,0,1-2.65.34,7.62,7.62,0,0,1-5.52-1.92,7.21,7.21,0,0,1-2-5.44,7.82,7.82,0,0,1,1.9-5.54,6.52,6.52,0,0,1,5-2,5.76,5.76,0,0,1,4.44,1.68,6.77,6.77,0,0,1,1.56,4.77v1.3m-2.33-1.83a4.23,4.23,0,0,0-.95-2.91,3.65,3.65,0,0,0-2.84-1,4.16,4.16,0,0,0-3.06,1.13,4.41,4.41,0,0,0-1.29,2.81h8.15Z" transform="translate(-9.85 -10)" style="fill:#fff"/><polyline points="175.69 109.2 171.98 123.42 169.77 123.42 166.12 112.46 162.49 123.42 160.29 123.42 156.54 109.2 159.04 109.2 161.65 120.21 165.2 109.2 167.17 109.2 170.81 120.21 173.28 109.2 175.69 109.2" style="fill:#fff"/><path d="M199.07,126.55H188.59a6.07,6.07,0,0,0,.39,2.29,4.21,4.21,0,0,0,2.65,2.51,6.26,6.26,0,0,0,2,.31,7.92,7.92,0,0,0,2.92-.58,7.13,7.13,0,0,0,2.09-1.14h0.13v2.61a20.66,20.66,0,0,1-2.47.85,10.09,10.09,0,0,1-2.65.34,7.62,7.62,0,0,1-5.52-1.92,7.21,7.21,0,0,1-2-5.44,7.81,7.81,0,0,1,1.9-5.54,6.51,6.51,0,0,1,5-2,5.76,5.76,0,0,1,4.44,1.68,6.76,6.76,0,0,1,1.56,4.77v1.3m-2.33-1.83a4.23,4.23,0,0,0-.95-2.91,3.65,3.65,0,0,0-2.84-1,4.16,4.16,0,0,0-3.06,1.13,4.39,4.39,0,0,0-1.29,2.81h8.15Z" transform="translate(-9.85 -10)" style="fill:#fff"/><path d="M213.9,126.2a9.6,9.6,0,0,1-.5,3.21A7.22,7.22,0,0,1,212,131.8a6.22,6.22,0,0,1-2,1.51,5.59,5.59,0,0,1-2.38.5,7,7,0,0,1-2.11-.28,10,10,0,0,1-1.78-.77l-0.15.66h-2.24v-19.8h2.39v7.08a10.11,10.11,0,0,1,2.14-1.36,5.94,5.94,0,0,1,2.54-.53,4.71,4.71,0,0,1,4,1.94,8.93,8.93,0,0,1,1.46,5.46m-2.47.06a7.23,7.23,0,0,0-.84-3.86,3,3,0,0,0-2.71-1.32,5.39,5.39,0,0,0-2.11.45,8.69,8.69,0,0,0-2,1.16v8.15a10.29,10.29,0,0,0,1.75.64,7,7,0,0,0,1.66.18,3.89,3.89,0,0,0,3.11-1.31A6.17,6.17,0,0,0,211.43,126.26Z" transform="translate(-9.85 -10)" style="fill:#fff"/><path d="M90.59,142.88h-2.7V140.4h2.7v2.48Zm-0.15,16.6H88V145.26h2.39v14.22Z" transform="translate(-9.85 -10)" style="fill:#fff"/><path d="M104,155.38a3.88,3.88,0,0,1-1.61,3.2,7,7,0,0,1-4.4,1.25,10.5,10.5,0,0,1-2.9-.37,12.63,12.63,0,0,1-2.21-.82v-2.69H93a9.62,9.62,0,0,0,2.52,1.36,7.77,7.77,0,0,0,2.66.5,5,5,0,0,0,2.47-.51,1.71,1.71,0,0,0,.89-1.6,1.61,1.61,0,0,0-.48-1.27,4.36,4.36,0,0,0-1.86-.74l-1.33-.27c-0.55-.1-1-0.21-1.5-0.33a5,5,0,0,1-2.65-1.46,3.63,3.63,0,0,1-.78-2.36,3.9,3.9,0,0,1,.36-1.66,4,4,0,0,1,1.1-1.39,5.29,5.29,0,0,1,1.81-.95,8.14,8.14,0,0,1,2.46-.35,11,11,0,0,1,2.58.31,9.74,9.74,0,0,1,2.17.76v2.56h-0.13a8.65,8.65,0,0,0-2.23-1.14,7.7,7.7,0,0,0-2.57-.46,4.48,4.48,0,0,0-2.21.51,1.76,1.76,0,0,0-.36,2.82,4.26,4.26,0,0,0,1.73.73c0.44,0.1.93,0.2,1.48,0.3s1,0.2,1.37.28a5.1,5.1,0,0,1,2.57,1.31,3.46,3.46,0,0,1,.9,2.5" transform="translate(-9.85 -10)" style="fill:#fff"/><polyline points="115.92 135.27 107.62 154.73 105.06 154.73 107.71 148.8 102.05 135.27 104.64 135.27 109.01 145.81 113.41 135.27 115.92 135.27" style="fill:#fff"/><path d="M139,152.38a8,8,0,0,1-1.78,5.49,6.69,6.69,0,0,1-9.56,0,9.37,9.37,0,0,1,0-11,6.67,6.67,0,0,1,9.56,0,8,8,0,0,1,1.78,5.49m-2.47,0a6.46,6.46,0,0,0-1.08-4.1,4,4,0,0,0-6,0,8.24,8.24,0,0,0,0,8.16,4,4,0,0,0,6,0A6.44,6.44,0,0,0,136.49,152.38Z" transform="translate(-9.85 -10)" style="fill:#fff"/><path d="M152.63,159.48h-2.39V157.9a11.59,11.59,0,0,1-2.32,1.46,5.77,5.77,0,0,1-2.44.51A4.48,4.48,0,0,1,142,158.5a5.77,5.77,0,0,1-1.25-4v-9.23h2.39v8.09a14,14,0,0,0,.1,1.85,3.35,3.35,0,0,0,.43,1.32,2.08,2.08,0,0,0,.89.82,4,4,0,0,0,1.59.25,5.07,5.07,0,0,0,2-.48,9.57,9.57,0,0,0,2.06-1.23V145.26h2.39v14.22" transform="translate(-9.85 -10)" style="fill:#fff"/><path d="M164.38,147.87h-0.13a9.2,9.2,0,0,0-1-.18,11,11,0,0,0-1.19-.06,4.9,4.9,0,0,0-2.14.49,9.88,9.88,0,0,0-2,1.26v10.09h-2.39V145.26h2.39v2.1a11.68,11.68,0,0,1,2.52-1.62,5.47,5.47,0,0,1,2.22-.48c0.42,0,.72,0,0.9,0l0.84,0.12v2.45" transform="translate(-9.85 -10)" style="fill:#fff"/><path d="M174.66,164a3.36,3.36,0,0,1-1.44-1,2.25,2.25,0,0,1-.64-1.48,1.1,1.1,0,0,1,.09-0.45,3.64,3.64,0,0,1,.89-0.82,1.43,1.43,0,0,0,.7-0.94,136.05,136.05,0,0,0-1-16.43,1.69,1.69,0,0,0-.42-0.89l-0.75-.9v-1a2.24,2.24,0,0,1,2.5-1.65,5.19,5.19,0,0,1,.71,0,10,10,0,0,1,5.74,1.6,23.5,23.5,0,0,1,6,5.79,9.41,9.41,0,0,1,1.88,5.65,11.81,11.81,0,0,1-2.35,6.87,14.6,14.6,0,0,1-5.56,4.8,9.42,9.42,0,0,1-4.24,1.18,5.87,5.87,0,0,1-2.12-.38m3.81-3.88,0.56,0q2.21,0,3.81-2.5,2.35-3.63,2.36-5.79a4.47,4.47,0,0,0-.29-1.6,11.5,11.5,0,0,0-2.73-4.33,7.65,7.65,0,0,0-4.62-2.35q0,2.17.28,8.85Q178.19,160.14,178.47,160.16Z" transform="translate(-9.85 -10)" style="fill:#fff"/><path d="M193.44,160.28a7.49,7.49,0,0,1-3.86-7,8.78,8.78,0,0,1,.33-2.4,10.8,10.8,0,0,1,1.55-3.15,22.09,22.09,0,0,0,1.46-2.17,2.52,2.52,0,0,1,2.5-1.6,4.76,4.76,0,0,1,3.67,1.74,11.4,11.4,0,0,1,2.35,4.66,8.37,8.37,0,0,1,.28,2.12q0,3.67-3.53,7.39a3.48,3.48,0,0,1-2.63.89,4.29,4.29,0,0,1-2.12-.47m1.51-4.66a2.9,2.9,0,0,0,.71.1q2.12,0,2.12-2.59a5.93,5.93,0,0,0-1.64-4,0.61,0.61,0,0,0-.33-0.09q-0.75,0-1.86,1.48a4.87,4.87,0,0,0-1.1,2.9Q192.83,155.15,194.94,155.62Z" transform="translate(-9.85 -10)" style="fill:#fff"/><path d="M203,151.24q0-4.52,3.11-4.52a4.57,4.57,0,0,1,1.22.19,1.68,1.68,0,0,1,1.32,1.79,10.61,10.61,0,0,1-.16,1.51,10.79,10.79,0,0,0-.16,1.51,2.65,2.65,0,0,0,.38,1.51,10.7,10.7,0,0,0,2-2.92,20.24,20.24,0,0,1,1.88-3.06,3.31,3.31,0,0,1,2.64-1.41,4.31,4.31,0,0,1,1.65.38l0.94,0.9a22.22,22.22,0,0,1,.38,2.78,10.41,10.41,0,0,0,.56,2.63q1.6-1.79,3.16-3.58a6,6,0,0,1,4-1.93,5.16,5.16,0,0,1,1.79.33,2.11,2.11,0,0,1,.85,1.6c0,0.63.06,1.27,0.09,1.93a51.06,51.06,0,0,1,.52,6.82,26.92,26.92,0,0,1-1.7,9.79q-0.42,1.46-2.4,1.46a4.11,4.11,0,0,1-2.07-.56c-0.12,0-.22-0.17-0.28-0.52a2.42,2.42,0,0,1,0-1.08,24.2,24.2,0,0,0,1.41-8.47,35.1,35.1,0,0,0-.47-5.56c0-.22-0.06-0.33-0.19-0.33a1.21,1.21,0,0,0-1,.8,51.62,51.62,0,0,0-4.42,9.56,3.06,3.06,0,0,1-1.29,1.27,3.77,3.77,0,0,1-1.91.56,1.75,1.75,0,0,1-1.65-.92,4.36,4.36,0,0,1-.52-2.19,19.87,19.87,0,0,1,.28-2.68,20.19,20.19,0,0,0,.28-2.78,6.39,6.39,0,0,0-.33-2.12q-0.75,1.32-2.4,5a32.59,32.59,0,0,1-2.5,4.8,2.61,2.61,0,0,1-2.26,1,1.92,1.92,0,0,1-2-1.11,9.54,9.54,0,0,1-.59-2.71,29.41,29.41,0,0,1,0-3q0.1-2.78.09-3.11c0-.41,0-1-0.12-1.81s-0.12-1.39-.12-1.77" transform="translate(-9.85 -10)" style="fill:#fff"/><path d="M241.48,167.46a2.85,2.85,0,0,1-.83-1.06,1,1,0,0,0-.71-0.66l-5-.85a6,6,0,0,1-4-2.73,4.26,4.26,0,0,1-.75-2.64,6.37,6.37,0,0,1,1.18-4q2.83-3.81,8.29-3.81a6.27,6.27,0,0,1,2.26.14,2.87,2.87,0,0,0,.38-1.6,1.2,1.2,0,0,0-.71-1.39,6.18,6.18,0,0,0-1.41-.16,7.45,7.45,0,0,0-2.71.59q-1.48.59-2.89,1.11a1.11,1.11,0,0,1-.42.1,1.44,1.44,0,0,1-1.22-1.08,4.46,4.46,0,0,1-.38-1.84,1.25,1.25,0,0,1,.14-0.75,12.18,12.18,0,0,1,7-2.12q4.09,0,5.51,2.92a8.09,8.09,0,0,1,.75,3.49,22.39,22.39,0,0,1-.61,4.38,42.2,42.2,0,0,0-.85,4.52q-0.23,3.53-.47,4.8-0.56,2.87-1.79,2.87a1.42,1.42,0,0,1-.77-0.26m-0.87-5.72q0.14-.66.61-2.35a7.43,7.43,0,0,0,.42-2.17,5,5,0,0,0-.42-2q-2.4.52-4.76,1-2.78.8-2.82,3.29,0,1.08,2.07,1.84a10.17,10.17,0,0,0,3.67.71A1.36,1.36,0,0,0,240.61,161.74Z" transform="translate(-9.85 -10)" style="fill:#fff"/><path d="M247.48,154.54a12.42,12.42,0,0,1,.85-5.37,2.36,2.36,0,0,1,2.3-1.32,3.42,3.42,0,0,1,1.37.28,1.84,1.84,0,0,1,1.32,1.6,0.9,0.9,0,0,1-.28.66,5.35,5.35,0,0,0-.89,3.06,13.91,13.91,0,0,1-.38,3,4.39,4.39,0,0,0-.24,1.51,12.39,12.39,0,0,0,.21,1.86,12.39,12.39,0,0,1,.21,1.91,11.61,11.61,0,0,1-.07,1.27,0.54,0.54,0,0,1-.49.61,7,7,0,0,1-1.84.28,1.74,1.74,0,0,1-1.88-1.13,12.6,12.6,0,0,1-.38-3.3q0-.8.09-2.45c0.06-1.1.09-1.92,0.09-2.45m1.18-10.64a1.59,1.59,0,0,1-.33-1.08,2.49,2.49,0,0,1,1-2.36,4.21,4.21,0,0,1,2.12-.56,2.81,2.81,0,0,1,1.67.52,1.68,1.68,0,0,1,.73,1.46,3.9,3.9,0,0,1-1.6,2.87,2.37,2.37,0,0,1-1.22.33A3,3,0,0,1,248.66,143.9Z" transform="translate(-9.85 -10)" style="fill:#fff"/><path d="M254.92,156.23q0-.76-0.12-2.4t-0.12-2.45a8.39,8.39,0,0,1,.43-2.92,1.74,1.74,0,0,1,1.79-1,1.77,1.77,0,0,1,1.93,1.22,2,2,0,0,1,.1.66,6.14,6.14,0,0,1-.26,1.44,6.15,6.15,0,0,0-.26,1.48,1.05,1.05,0,0,1,.42.57,27.3,27.3,0,0,1,2.12-3.2,3.84,3.84,0,0,1,3-1.55,4.56,4.56,0,0,1,1.27.19,17.34,17.34,0,0,1,2.16,6.82q0.14,1.18.42,7.3,0.52,2.07-.61,2.4a7.48,7.48,0,0,1-2,.38,1,1,0,0,1-1.23-.8q-0.23-1.78-.42-5.84a36.22,36.22,0,0,0-.56-5.69,14.15,14.15,0,0,0-2.45,4.47,44.48,44.48,0,0,1-2.07,4.83,2,2,0,0,1-1.84,1.06,1.64,1.64,0,0,1-1.65-1.46,11.42,11.42,0,0,1-.19-2.73q0.14-3.06.14-2.78" transform="translate(-9.85 -10)" style="fill:#fff"/><path d="M274.12,160.8a1.62,1.62,0,0,0,.94.23,5.56,5.56,0,0,0,.12,1.74,10.56,10.56,0,0,1,.21,1.51,1.86,1.86,0,0,1-1,1.75,2.68,2.68,0,0,1-1.41.47q-2.07,0-2.87-3.81a2.17,2.17,0,0,1,.75-1.67,2.57,2.57,0,0,1,1.79-.68,2.51,2.51,0,0,1,1.5.47m-0.66-2.17a1.83,1.83,0,0,1-1.27-1.88,7.23,7.23,0,0,1,.19-1.37,9.27,9.27,0,0,0,.24-1.36,86.72,86.72,0,0,1,3.44-16.38,1.93,1.93,0,0,1,2-1.32,2.52,2.52,0,0,1,1.48.45,1.11,1.11,0,0,1,.54,1.11A65.93,65.93,0,0,1,278.17,148a104.44,104.44,0,0,0-2.26,10.26,0.71,0.71,0,0,1-.8.8A5,5,0,0,1,273.47,158.63Z" transform="translate(-9.85 -10)" style="fill:#fff"/><polyline points="274.01 132.64 274.01 128.4 272.5 128.4 272.5 127.54 276.55 127.54 276.55 128.4 275.04 128.4 275.04 132.64 274.01 132.64" style="fill:#fff"/><polyline points="277.91 132.64 277.91 127.54 279.45 127.54 280.38 131.02 281.29 127.54 282.84 127.54 282.84 132.64 281.88 132.64 281.88 128.62 280.87 132.64 279.88 132.64 278.87 128.62 278.87 132.64 277.91 132.64" style="fill:#fff"/></svg>