<svg id="Layer_1" data-name="Layer 1" xmlns="http://www.w3.org/2000/svg" viewBox="0 0 376 123.28"><title>google-2015-logo</title><path id="path2998" d="M99.63,50.74H55.76v13H86.87c-1.54,18.26-16.73,26-31.06,26A34.21,34.21,0,0,1,21.46,55.14c0-19.71,15.26-34.88,34.39-34.88a33.77,33.77,0,0,1,23.46,9.41l9.12-9.44s-11.7-13-33-13c-27.17,0-48.2,22.93-48.2,47.71a48.46,48.46,0,0,0,48.89,47.94c25.61,0,44.35-17.54,44.35-43.48a39,39,0,0,0-.79-8.63h0Z" transform="translate(-7.19 -7.2)" style="fill:#fff"/><path id="path3000" d="M135.57,41.31a30.38,30.38,0,0,0-30.9,30.49c0,16.66,12.51,31,31.12,31,16.84,0,30.64-12.87,30.64-30.64,0-20.36-16-30.85-30.85-30.85h0Zm0.18,12.08c8.85,0,17.24,7.16,17.24,18.69,0,11.29-8.35,18.65-17.28,18.65-9.81,0-17.55-7.86-17.55-18.74,0-10.65,7.64-18.6,17.59-18.6h0Z" transform="translate(-7.19 -7.2)" style="fill:#fff"/><path id="path3005" d="M202.79,41.31a30.38,30.38,0,0,0-30.9,30.49c0,16.66,12.51,31,31.12,31,16.84,0,30.64-12.87,30.64-30.64,0-20.36-16-30.85-30.85-30.85h0ZM203,53.38c8.85,0,17.24,7.16,17.24,18.69,0,11.29-8.35,18.65-17.28,18.65-9.81,0-17.55-7.86-17.55-18.74,0-10.65,7.64-18.6,17.59-18.6h0Z" transform="translate(-7.19 -7.2)" style="fill:#fff"/><path id="path3007" d="M268.71,41.34c-16.52,0-29.51,14.47-29.51,30.72,0,18.5,15.06,30.77,29.23,30.77,8.76,0,13.42-3.48,16.86-7.47v6.06c0,10.61-6.44,17-16.16,17-9.39,0-14.1-7-15.74-10.94l-11.81,4.94c4.19,8.86,12.63,18.1,27.65,18.1,16.43,0,29-10.35,29-32.05V43.19H285.29V48.4a21.74,21.74,0,0,0-16.58-7.06h0Zm1.2,12.05c8.1,0,16.42,6.92,16.42,18.73,0,12-8.3,18.63-16.6,18.63-8.81,0-17-7.15-17-18.51,0-11.8,8.51-18.85,17.19-18.85h0Z" transform="translate(-7.19 -7.2)" style="fill:#fff"/><path id="path3011" d="M355.49,41.27c-15.59,0-28.68,12.4-28.68,30.7,0,19.36,14.59,30.85,30.17,30.85,13,0,21-7.12,25.75-13.49l-10.63-7.07c-2.76,4.28-7.37,8.46-15.06,8.46-8.64,0-12.62-4.73-15.08-9.32l41.22-17.1-2.14-5c-4-9.82-13.27-18-25.56-18h0ZM356,53.09c5.62,0,9.66,3,11.38,6.57L339.87,71.16c-1.19-8.91,7.25-18.07,16.15-18.07h0Z" transform="translate(-7.19 -7.2)" style="fill:#fff"/><path id="path3015" d="M307.16,101H320.7V10.38H307.16V101Z" transform="translate(-7.19 -7.2)" style="fill:#fff"/></svg>