<?xml version="1.0" encoding="utf-8"?>
<!-- Generator: Adobe Illustrator 17.1.0, SVG Export Plug-In . SVG Version: 6.00 Build 0)  -->
<!DOCTYPE svg PUBLIC "-//W3C//DTD SVG 1.1//EN" "http://www.w3.org/Graphics/SVG/1.1/DTD/svg11.dtd">
<svg version="1.1" id="Layer_1" xmlns="http://www.w3.org/2000/svg" xmlns:xlink="http://www.w3.org/1999/xlink" x="0px" y="0px"
	 viewBox="0 0 411.111 139.13" enable-background="new 0 0 411.111 139.13" xml:space="preserve">
<g>
	<g>
		<path fill="#FFFFFF" d="M22.301,46.383L22.23,72.861l23.036-26.416l22.695,0.061L42.22,73.995l25.819,44.379l-22.695-0.061
			L32.17,93.962c-2.689-4.87-5.026-6.945-7.008-6.233c-1.986,0.717-2.977,1.795-2.981,3.234l-0.027,9.997l-0.046,17.292
			l-18.913-0.051l0.249-92.942l9.726,0.026c2.52,0.007,4.679,0.916,6.477,2.719c1.793,1.807,2.691,3.883,2.685,6.221L22.301,46.383z
			"/>
		<path fill="#FFFFFF" d="M69.393,44.753l19.521,0.052l-0.197,73.624l-19.521-0.052L69.393,44.753z M87.66,20.044
			c-1.098-0.003-2.196-0.006-3.293-0.009c-2.242-0.006-4.483-0.012-6.725-0.018c-1.808-0.005-3.615-0.01-5.423-0.015
			c-0.252-0.001-0.503-0.001-0.755-0.002c-0.864-0.002-1.588,0.717-1.59,1.582c-0.003,1.098-0.006,2.196-0.009,3.293
			c-0.006,2.242-0.012,4.483-0.018,6.725c-0.005,1.808-0.01,3.615-0.015,5.423c-0.001,0.252-0.001,0.503-0.002,0.755
			c-0.002,0.864,0.717,1.588,1.582,1.59c1.098,0.003,2.196,0.006,3.293,0.009c2.242,0.006,4.483,0.012,6.725,0.018
			c1.808,0.005,3.615,0.01,5.423,0.015c0.252,0.001,0.503,0.001,0.755,0.002c0.864,0.002,1.588-0.717,1.59-1.582
			c0.003-1.098,0.006-2.196,0.009-3.293c0.006-2.242,0.012-4.483,0.018-6.725c0.005-1.808,0.01-3.615,0.015-5.423
			c0.001-0.252,0.001-0.503,0.002-0.755C89.244,20.77,88.525,20.047,87.66,20.044z"/>
		<path fill="#FFFFFF" d="M140.186,71.353c-0.354-2.747-1.273-5.227-2.756-7.437c-2.16-2.978-5.518-4.473-10.077-4.485
			c-6.501-0.017-10.956,3.191-13.365,9.623c-1.274,3.411-1.917,7.945-1.932,13.604c-0.014,5.391,0.605,9.727,1.861,13.009
			c2.285,6.131,6.61,9.204,12.976,9.221c4.514,0.012,7.722-1.195,9.624-3.622c1.902-2.427,3.062-5.575,3.478-9.447l19.656,0.053
			c-0.467,5.853-2.601,11.386-6.4,16.599c-6.064,8.405-15.022,12.591-26.876,12.559c-11.855-0.032-20.567-3.567-26.138-10.607
			c-5.57-7.04-8.341-16.155-8.311-27.347c0.034-12.629,3.147-22.448,9.341-29.456c6.194-7.008,14.723-10.498,25.587-10.469
			c9.24,0.025,16.795,2.117,22.667,6.275c5.87,4.159,9.333,11.486,10.387,21.98L140.186,71.353z"/>
		<path fill="#FFFFFF" d="M264.044,54.2c-5.489-6.994-13.104-10.505-22.848-10.531c-5.394-0.014-9.838,1.1-13.333,3.342
			c-2.951,1.794-5.656,4.399-8.111,7.814l-0.16-3.417l-0.083-33.869l-9.726,0.026c-2.52,0.007-4.679,0.916-6.477,2.719
			c-1.793,1.807-2.691,3.883-2.685,6.221l0.018,10.985l-0.041,0l-0.116,35.522l-22.793-26.138l-22.695,0.061l25.741,27.49
			l-25.819,44.379l22.695-0.061l13.174-24.352c2.689-4.871,5.026-6.945,7.008-6.233c1.32,0.476,2.19,1.116,2.633,1.911
			l-0.094,28.735l18.98,0.051l0.001-0.224l0.446-0.001l-0.021-8.481c2.417,3.313,4.677,5.666,6.775,7.037
			c3.705,2.442,8.612,3.67,14.723,3.687c9.731,0.026,17.323-3.713,22.774-11.219c5.451-7.505,8.193-16.976,8.224-28.415
			C272.262,70.208,269.532,61.195,264.044,54.2z M249.645,99.007c-2.78,4.001-6.668,5.994-11.662,5.98
			c-5.767-0.015-10.052-2.098-12.856-6.249c-2.804-4.15-4.197-9.377-4.18-15.682c0.014-5.358,0.707-9.725,2.078-13.098
			c2.65-6.342,7.495-9.504,14.532-9.485c6.946,0.019,11.705,3.274,14.276,9.765c1.352,3.426,2.022,7.751,2.008,12.974
			C253.824,89.742,252.425,95.007,249.645,99.007z"/>
		<path fill="#FFFFFF" d="M335.589,110.161c-6.235,7.654-15.679,11.464-28.332,11.43c-12.654-0.034-22.077-3.894-28.271-11.582
			c-6.194-7.687-9.276-16.93-9.247-27.729c0.028-10.617,3.16-19.81,9.395-27.577c6.235-7.767,15.678-11.634,28.333-11.6
			c12.653,0.034,22.077,3.951,28.27,11.752c6.193,7.8,9.276,17.009,9.247,27.627C344.955,93.281,341.823,102.507,335.589,110.161z
			 M320.217,99.48c3.027-3.994,4.551-9.677,4.571-17.052c0.02-7.374-1.474-13.055-4.48-17.042
			c-3.007-3.987-7.324-5.989-12.953-6.004c-5.629-0.015-9.969,1.964-13.018,5.935c-3.051,3.97-4.586,9.643-4.605,17.017
			c-0.02,7.375,1.484,13.067,4.514,17.077c3.028,4.01,7.356,6.022,12.986,6.037C312.861,105.463,317.189,103.475,320.217,99.48z"/>
		<path fill="#FFFFFF" d="M335.059,119.166l25.227-37.218L336.336,45.68l23.574,0.063l12.242,21.358l12.075-21.293l22.897,0.061
			l-24.277,35.802l25.026,37.69l-23.977-0.064l-12.613-22.169l-12.853,22.101L335.059,119.166z"/>
	</g>
</g>
</svg>
