<svg id="Layer_1" data-name="Layer 1" xmlns="http://www.w3.org/2000/svg" viewBox="0 0 2012.84 1518.3"><title>logo-01</title><polygon points="629.43 452.68 629.43 506.8 686.45 506.8 686.45 398.57 686.45 344.46 629.43 344.46 629.43 452.68" style="fill:#fff0e2"/><polygon points="914.48 724.52 914.48 670.41 857.49 670.41 857.49 778.63 914.48 778.63 914.48 724.52" style="fill:#fff0e2"/><rect x="1313.58" y="670.41" width="57.02" height="108.23" style="fill:#fff0e2"/><path d="M0,0V1518.3H2012.84V0H0ZM857.48,344.46V290.34h57V560.91h-57V344.46Zm-57,271.84h171V886.86h-57V832.75h-57v54.11h-57V616.3Zm-228.06-326h114v54.11h57V506.79h-57v54.11h-114V290.34Zm114,919.31h-114v-54.11h57V939.09h57v270.56Zm57-539.25h-114v54.11h114V886.86h-171V832.75h114V778.64h-114V616.3h171v54.11Zm228,322.8h-114v54.11h114v162.34h-171v-54.11h114v-54.11h-114V939.09h171v54.11Zm228-106.34h-171V616.3h57V832.75h57V616.3h57V886.86Zm0-326h-57V344.46h-57V560.91h-57V290.34h171V560.91Zm228,217.73h-57v54.11h57v54.11h-57V832.75h-57v54.11h-57V616.3h171V778.64Zm0-217.73h-171V290.34h171V560.91Z" style="fill:#fff0e2"/><polygon points="1370.57 398.57 1370.57 344.46 1313.58 344.46 1313.58 506.8 1370.57 506.8 1370.57 398.57" style="fill:#fff0e2"/></svg>