<svg id="Layer_1" data-name="Layer 1" xmlns="http://www.w3.org/2000/svg" viewBox="0 0 164.91 150.38"><title>crest-logotype</title><polygon points="108.16 12.02 108.16 29.39 103.5 33.96 103.5 24.02 91.64 35.18 70.48 4.33 70.48 35.05 48.45 2.92 48.45 29.36 42.12 36.51 42.12 71.84 52.15 86.64 52.15 69.93 74.65 102.58 74.65 79 80.58 71.52 80.58 107.23 103.5 85.47 103.5 67.42 108.16 63.09 108.16 72.9 120.76 61.33 120.76 0 108.16 12.02" style="fill:#fff"/><path d="M36.23,143.15c0-3.76,1.85-8.57,7.18-8.57a7.49,7.49,0,0,1,2.24.34l1-1.7a12.68,12.68,0,0,0-3.28-.43c-6.37,0-11.57,4.69-11.57,10.36a10.14,10.14,0,0,0,4.85,8.45l1.43-2.35A10.1,10.1,0,0,1,36.23,143.15Z" transform="translate(-2.89 -3.19)" style="fill:#fff"/><path d="M48.94,134.07v3.25a10.25,10.25,0,0,1,1.71,5.83c0,3.82-1.85,8.56-7.23,8.56a7,7,0,0,1-3-.64v2.12a12.72,12.72,0,0,0,3,.38c6.36,0,11.57-4.69,11.57-10.42A10.31,10.31,0,0,0,48.94,134.07Z" transform="translate(-2.89 -3.19)" style="fill:#fff"/><path d="M19.76,152.82v-1.1c3.25,0,3.77-.75,3.77-4.87v-8.47l-7.08,15.2h-1l-7-15.08v8.35c0,4.12.52,4.87,3.77,4.87v1.1H2.89v-1.1c3.25,0,3.77-.75,3.77-4.87v-7.42c0-4.12-.52-4.81-3.77-4.81v-1.1H10l6.9,14.79,6.9-14.79h7v1.1c-3.25,0-3.77.7-3.77,4.81v7.42c0,4.12.52,4.87,3.77,4.87v1.1H19.76Z" transform="translate(-2.89 -3.19)" style="fill:#fff"/><path d="M55.57,151.72c3.25,0,3.77-.75,3.77-4.87v-7.42c0-4.12-.52-4.81-3.77-4.81v-1.1H65.95c8.29,0,11.89,4.35,11.89,9.63s-3.6,9.69-11.89,9.69H55.57v-1.1Zm10.56-16.47H63.34v12.58c0,2.67.29,3.19,2.38,3.19h0.41c6,0,7.13-4.41,7.13-7.95S72.15,135.24,66.12,135.24Z" transform="translate(-2.89 -3.19)" style="fill:#fff"/><path d="M142.45,139h-0.93l-0.29-1.1c-0.52-1.91-1.16-2.61-5.28-2.61h-3.19v6.5c4.52,0,4.87-.41,4.87-3.42h1.1V147h-1.1c0-3-.35-3.42-4.87-3.42v2.67c0,4.12.52,4.81,3.54,4.81h0.81c4.12,0,4.76-.7,5.28-2.61l0.29-1h0.87l-0.35,5.45H125v-1.1c3.25,0,3.77-.75,3.77-4.87v-7.42c0-4.12-.52-4.81-3.77-4.81v-1.1H142Z" transform="translate(-2.89 -3.19)" style="fill:#fff"/><path d="M152.14,135.24c-4.18,0-4.81.7-5.28,2.61l-0.29,1.1h-1L146,133.5h21.34L167.8,139h-0.93l-0.29-1.1c-0.52-1.91-1.1-2.61-5.28-2.61h-2.61v11.6c0,4.12.52,4.87,3.77,4.87v1.1H151v-1.1c3.19,0,3.77-.75,3.77-4.87v-11.6h-2.61Z" transform="translate(-2.89 -3.19)" style="fill:#fff"/><path d="M120.53,139.59h1.22v-6.84h-1.1a3.25,3.25,0,0,1-.75,1.57,6.65,6.65,0,0,0-2.27-1.17V135A5.62,5.62,0,0,1,120.53,139.59Z" transform="translate(-2.89 -3.19)" style="fill:#fff"/><path d="M119.6,142.15l-3.19-1.57c-2.78-1.28-4-2.09-4-3.6,0-1.34,1.28-2.22,2.76-2.35l1-1.77a7.77,7.77,0,0,0-.85-0.05c-3.6,0-6.21,2.38-6.21,5.16,0,2.55,1.74,4.47,4.06,5.57l3.31,1.57c2.38,1.1,3.71,2.26,3.71,3.77,0,1.74-1.51,2.78-3.36,2.78-3.42,0-6.09-2.26-6.55-6.09h-1.16v8h1.1a4.15,4.15,0,0,1,.93-2,8.58,8.58,0,0,0,5.22,2c3.89,0,7.08-2.55,7.08-6.21C123.49,145.63,122.39,143.48,119.6,142.15Z" transform="translate(-2.89 -3.19)" style="fill:#fff"/><path d="M89.39,151c-3,0-3.54-.7-3.54-4.81v-2.67c4.53,0,4.87.41,4.87,3.42h1.1v-8.64h-1.1c0,3-.35,3.42-4.87,3.42v-6.5H89c4.12,0,4.76.7,5.28,2.61L94.6,139h0.93l-0.41-5.45H78.08v1.1c3.25,0,3.77.7,3.77,4.81v7.42c0,4.12-.52,4.87-3.77,4.87v1.1h11l1.06-1.8H89.39Z" transform="translate(-2.89 -3.19)" style="fill:#fff"/><path d="M96.64,147.36H95.76l-0.29,1c-0.44,1.63-1,2.37-3.65,2.56v1.85h4.46Z" transform="translate(-2.89 -3.19)" style="fill:#fff"/></svg>