<?xml version="1.0" encoding="utf-8"?>
<!-- Generator: Adobe Illustrator 19.2.1, SVG Export Plug-In . SVG Version: 6.00 Build 0)  -->
<svg version="1.1" id="Layer_1" xmlns="http://www.w3.org/2000/svg" xmlns:xlink="http://www.w3.org/1999/xlink" x="0px" y="0px"
	 viewBox="0 0 1094.6 567.1" style="enable-background:new 0 0 1094.6 567.1;" xml:space="preserve">
<style type="text/css">
	.st0{fill:#FFFFFF;}
</style>
<title>Opendoor_Logo_RGB_Black</title>
<g id="New_Symbol">
	<path class="st0" d="M666.8,416.6l-34.5-45.7c-2.8-3.5-7.2-5.6-11.7-5.5H450.8c-4.5-0.1-8.9,1.9-11.7,5.5l-34.5,45.7
		c-1.1,1.4-1.7,3.1-1.7,4.9v7c0,2.3,1.9,4.2,4.2,4.2h257c2.3,0,4.2-1.9,4.2-4.2l0,0v-7C668.4,419.7,667.9,418,666.8,416.6z"/>
	<path class="st0" d="M134.5,210c0-47.1,32.4-65.7,61.2-65.7c30.8,0,59.8,18.4,59.8,62.9c0,47.5-32.4,65.6-61.2,65.6
		C163.5,272.7,134.5,253,134.5,210z M221.5,211.1c0-41.9-7.2-59.3-26.9-59.3c-17.4,0-26.1,12.2-26.1,54.4c0,41.7,6.8,58.9,26.9,58.9
		C213.1,265.2,221.6,253.2,221.5,211.1L221.5,211.1z"/>
	<path class="st0" d="M373.1,223.6c0-31.2,23.1-48.5,46.7-48.5c24.4,0,39.8,12.1,40.6,43.6c0,0.6-0.5,1.1-1.1,1.1c0,0,0,0,0,0h-56.8
		c-0.6,0-1.1,0.5-1.1,1.1c0,0,0,0,0,0c0.8,28.4,11.9,36.3,30.1,36.3c7.6,0,15.1-1.6,22-4.7c0.4-0.2,1-0.1,1.3,0.3l2.4,2.8
		c0.4,0.4,0.4,1,0,1.4c-9.9,10-23.3,15.6-37.3,15.6C388.7,272.7,373.1,254.1,373.1,223.6z M401.4,213l30.6-1.6
		c0-21.7-2.9-29.6-13.6-29.6C409.3,181.9,402.2,190.5,401.4,213z"/>
	<path class="st0" d="M674.8,224.1c0-34.4,24.4-49.1,48.5-49.1c26,0,48.7,15.6,48.7,48.2c0,34.4-24,49.4-48.7,49.4
		C697.3,272.7,674.8,256.9,674.8,224.1z M741.9,225c0-36.2-7-43-19.2-43c-11.3,0-17.9,8.2-17.9,39c0,36.7,5.9,44.6,19,44.6
		C734.6,265.7,741.9,259.4,741.9,225L741.9,225z"/>
	<path class="st0" d="M781.6,224.1c0-34.4,24.4-49.1,48.5-49.1c26,0,48.7,15.6,48.7,48.2c0,34.4-24,49.4-48.7,49.4
		C804.2,272.7,781.6,256.9,781.6,224.1z M848.8,225c0-36.2-7-43-19.2-43c-11.3,0-17.9,8.2-17.9,39c0,36.7,5.9,44.6,19,44.6
		C841.4,265.7,848.8,259.4,848.8,225L848.8,225z"/>
	<path class="st0" d="M534.1,175.1c-13.1,0-24.9,5.9-34.4,12.7H499l0.4-11.3c0-0.8-0.6-1.4-1.4-1.5c-0.1,0-0.1,0-0.2,0l-25.1,2.8
		c-0.7,0.1-1.3,0.7-1.3,1.4v89.8c0,0.8,0.6,1.4,1.4,1.4h0h25.6c0.8,0,1.4-0.6,1.4-1.4v0v-75.1c5.5-1.4,11-2.2,16.7-2.3
		c8.4,0,12.4,3.4,12.4,14.3v63c0,0.8,0.6,1.4,1.4,1.4h25.8c0.8,0,1.4-0.6,1.4-1.4v-70C557.6,183,549.4,175.1,534.1,175.1z"/>
	<path class="st0" d="M662.9,157.5c0-9.3,0.3-17.8,0.5-21.2c0-0.9-0.7-1.7-1.6-1.8c-0.1,0-0.2,0-0.2,0l-25.8,2.9
		c-0.8,0.1-1.3,0.7-1.3,1.4V164c0,6.4,0.4,13.1,0.4,13.1c-4.4-1.3-9-1.9-13.6-2c-27.9,0-51.9,14.9-51.9,52.1
		c0,32.6,17.4,45.5,35.1,45.5c12.5,0,22.6-5,30.3-11.6h0.7l-0.3,9.9c0,0.9,0.7,1.7,1.6,1.8c0.1,0,0.2,0,0.3,0l24.6-2.7
		c0.8-0.1,1.4-0.8,1.5-1.7L662.9,157.5L662.9,157.5z M634.4,254.6c-2.9,1.1-7.7,3.9-15,3.9c-13.6,0-20.8-9.1-20.8-37.2
		c0-29.6,9-39,21.8-39c6.6,0,10.9,3.8,14,7.5L634.4,254.6L634.4,254.6z"/>
	<path class="st0" d="M945.4,175.1c-10.4,0-20.6,7.9-26.2,13.8h-0.7l0.3-12c0-0.9-0.7-1.7-1.6-1.7c-0.1,0-0.2,0-0.2,0l-24.8,2.8
		c-0.7,0.1-1.3,0.7-1.3,1.4v89.5c0,0.9,0.8,1.7,1.7,1.7l0,0h25.1c0.9,0,1.7-0.8,1.7-1.7l0,0v-72.7c2.5-2.3,6.6-4.7,9.8-4.7
		c1.6,0,2.7,0.4,3.8,2.3c3.4,5.6,6.1,8.8,13.8,8.8c7,0,13.2-5.5,13.2-14.1C960.1,179.7,954,175.1,945.4,175.1z"/>
	<path class="st0" d="M327.5,175.1c-12.5,0-22.6,5.9-30.1,12.4h-0.9l0.4-10.7c0-0.9-0.7-1.6-1.5-1.6c-0.1,0-0.2,0-0.2,0l-24.9,2.8
		c-0.7,0.1-1.3,0.7-1.3,1.4V309c0,0.8,0.7,1.5,1.5,1.5c0.1,0,0.1,0,0.2,0l25.6-2.9c0.7-0.1,1.3-0.7,1.3-1.5v-24.3
		c0-6.3-0.2-10.9-0.2-10.9c4.5,1.1,9,1.7,13.6,1.8c29.9,0,51.8-16.3,51.8-53.6C362.6,186.4,344.5,175.1,327.5,175.1z M311.6,265.5
		c-5.4,0.1-10.6-2.3-14.1-6.5v-65.2c2.9-1.1,7.3-3.2,14.5-3.2c13.6,0,21.3,9,21.3,34.6C333.2,258,325.7,265.5,311.6,265.5
		L311.6,265.5z"/>
</g>
</svg>
