<svg id="Layer_1" data-name="Layer 1" xmlns="http://www.w3.org/2000/svg" viewBox="0 0 1618.51 464.17"><title>Turing Identity-01</title><path d="M654.94,974l-19.39-15.11a213.29,213.29,0,0,0-8.1-30.3l9.25-22.74-7.63-13.21-10.45-18.06L611,861.32,586.62,858a212.23,212.23,0,0,0-22.08-22.12l-3.4-24.38L548,803.84l-18.1-10.45-13.21-7.62L493.93,795a212.2,212.2,0,0,0-30.3-8.1L448.5,767.51H397.18l-15.11,19.41a211.35,211.35,0,0,0-30.29,8.1L329,785.76l-13.17,7.63-18.1,10.45-13.19,7.61-3.38,24.38A217.86,217.86,0,0,0,259,858l-24.35,3.37-7.63,13.21-10.43,18.06L209,905.8l9.26,22.74a206.81,206.81,0,0,0-8.1,30.29L190.74,974v51.33l19.43,15.11a206.58,206.58,0,0,0,8.1,30.27L209,1093.42l7.62,13.19,10.43,18.08,7.63,13.19,24.35,3.38a219.33,219.33,0,0,0,22.14,22.1l3.38,24.4,13.19,7.6,18.1,10.46,13.17,7.6,22.76-9.22a217.63,217.63,0,0,0,30.29,8.1l15.11,19.37H448.5l15.12-19.37a219.86,219.86,0,0,0,30.3-8.1l22.72,9.26,13.19-7.63L548,1195.37l13.17-7.6,3.4-24.4a215,215,0,0,0,22.08-22.09l24.38-3.4,7.63-13.19,10.45-18.08,7.58-13.19-9.2-22.76a213.45,213.45,0,0,0,8.1-30.27l19.39-15.11V974Zm-232.09,93.76a68.1,68.1,0,1,1,68.08-68.08A68.13,68.13,0,0,1,422.86,1067.71Z" transform="translate(-190.74 -767.51)" style="fill:#fff"/><circle cx="232.28" cy="232.09" r="200.28" style="fill:#231f20;stroke:#000;stroke-miterlimit:10;stroke-width:2px"/><circle cx="232.28" cy="232.09" r="192.46" style="fill:#fff"/><path d="M414.42,1184.7c6.35,1.92,13.21.52,16-3.63a5.19,5.19,0,0,0,.35-4.86c-2.94,3.68-6.92,5.78-11.26,7.34,4.3-2.4,7.91-5,10.45-8.53a4.3,4.3,0,0,0-4.26-1.08c-5.09,1.18-6.49,8.68-11.33,10.77h0Zm-19.3-1.89c6.11,2.57,13.08,1.9,16.34-1.94a5.19,5.19,0,0,0,.86-4.8c-3.31,3.35-7.49,5-12,6.13,4.53-1.93,8.39-4.19,11.28-7.4a4.3,4.3,0,0,0-4.12-1.52c-5.19.64-7.36,7.95-12.39,9.53h0Zm2.49-23.74c6.52-1.25,13.2.86,15.58,5.29a5.2,5.2,0,0,1-.16,4.87c-2.54-4-6.29-6.47-10.43-8.48,4,2.83,7.33,5.84,9.5,9.58a4.31,4.31,0,0,1-4.35.64c-4.94-1.71-5.55-9.31-10.15-11.9h0Zm-21.49,19.84c5.81,3.19,12.81,3.25,16.45-.22a5.19,5.19,0,0,0,1.36-4.68c-3.64,3-8,4.21-12.54,4.84,4.7-1.45,8.78-3.29,12-6.18a4.31,4.31,0,0,0-3.94-1.95c-5.22.09-8.16,7.14-13.32,8.19h0Zm5-23.35c6.61-.56,13,2.24,14.94,6.89a5.2,5.2,0,0,1-.67,4.83c-2.12-4.21-5.57-7.09-9.49-9.52,3.71,3.24,6.68,6.58,8.44,10.52a4.31,4.31,0,0,1-4.39.18c-4.73-2.21-4.55-9.84-8.84-12.9h0ZM357.63,1173c5.44,3.78,12.4,4.57,16.38,1.5a5.17,5.17,0,0,0,1.84-4.52c-3.93,2.59-8.37,3.35-13,3.5,4.83-.95,9.08-2.35,12.57-4.88a4.3,4.3,0,0,0-3.71-2.35c-5.21-.45-8.85,6.25-14.11,6.75h0Zm7.38-22.7c6.63,0.13,12.73,3.59,14.14,8.41a5.19,5.19,0,0,1-1.17,4.73c-1.66-4.41-4.8-7.63-8.44-10.46,3.35,3.61,6,7.24,7.3,11.35a4.31,4.31,0,0,1-4.39-.28c-4.48-2.7-3.49-10.26-7.45-13.75h0Zm-25.15,14.94c5,4.33,11.85,5.85,16.14,3.2a5.19,5.19,0,0,0,2.3-4.3c-4.18,2.17-8.68,2.46-13.27,2.13,4.9-.44,9.27-1.39,13-3.54a4.3,4.3,0,0,0-3.45-2.72c-5.13-1-9.46,5.29-14.73,5.24h0Zm9.71-21.81c6.58,0.83,12.28,4.9,13.18,9.85a5.2,5.2,0,0,1-1.66,4.59c-1.19-4.55-4-8.1-7.3-11.29,3,3.94,5.17,7.82,6.08,12a4.32,4.32,0,0,1-4.33-.74c-4.17-3.15-2.4-10.57-6-14.45h0ZM323,1155.69c4.54,4.83,11.18,7.05,15.71,4.87a5.18,5.18,0,0,0,2.74-4c-4.39,1.71-8.89,1.53-13.43.73,4.92,0.08,9.37-.41,13.32-2.17a4.31,4.31,0,0,0-3.15-3.07c-5-1.53-10,4.27-15.2,3.67h0ZM334.93,1135c6.45,1.51,11.7,6.16,12.08,11.17a5.19,5.19,0,0,1-2.13,4.39c-0.71-4.65-3.11-8.46-6.08-12,2.53,4.22,4.32,8.32,4.78,12.61a4.3,4.3,0,0,1-4.23-1.19c-3.82-3.57-1.28-10.76-4.43-15h0Zm-27.71,9.38c4,5.28,10.38,8.19,15.12,6.49a5.17,5.17,0,0,0,3.14-3.72c-4.54,1.25-9,.6-13.42-0.68,4.88,0.59,9.36.57,13.47-.76a4.3,4.3,0,0,0-2.81-3.38c-4.81-2-10.35,3.2-15.5,2.06h0Zm14-19.31c6.26,2.18,11,7.35,10.85,12.37a5.19,5.19,0,0,1-2.57,4.14c-0.22-4.7-2.21-8.74-4.79-12.56,2.07,4.46,3.43,8.72,3.43,13a4.31,4.31,0,0,1-4.09-1.62c-3.42-3.95-.15-10.84-2.83-15.38h0Zm-28.53,6.43c3.43,5.67,9.47,9.22,14.36,8a5.18,5.18,0,0,0,3.52-3.38c-4.65.77-9-.34-13.28-2.08,4.8,1.1,9.25,1.54,13.48.65a4.3,4.3,0,0,0-2.44-3.65c-4.57-2.54-10.63,2.1-15.63.43h0Zm16-17.74c6,2.82,10.17,8.45,9.5,13.44a5.21,5.21,0,0,1-3,3.85c0.27-4.7-1.28-8.92-3.45-13,1.6,4.66,2.5,9,2.05,13.33a4.31,4.31,0,0,1-3.89-2c-3-4.28,1-10.79-1.21-15.59h0Zm-29.05,3.42c2.82,6,8.45,10.16,13.44,9.49a5.18,5.18,0,0,0,3.85-3c-4.7.28-8.93-1.28-13-3.45,4.65,1.59,9,2.5,13.33,2.05a4.31,4.31,0,0,0-2-3.89c-4.28-3-10.79,1-15.59-1.21h0Zm17.74-16c5.68,3.43,9.23,9.47,8,14.36a5.19,5.19,0,0,1-3.38,3.52c0.77-4.65-.34-9-2.08-13.28,1.1,4.8,1.54,9.25.65,13.47a4.31,4.31,0,0,1-3.66-2.44c-2.53-4.57,2.11-10.63.43-15.63h0Zm-29.24.36c2.18,6.26,7.34,11,12.37,10.84a5.17,5.17,0,0,0,4.14-2.57c-4.7-.22-8.74-2.21-12.56-4.79,4.46,2.07,8.72,3.43,13,3.43a4.3,4.3,0,0,0-1.63-4.08c-3.94-3.43-10.83-.15-15.38-2.84h0Zm19.31-14c5.28,4,8.19,10.38,6.49,15.12a5.2,5.2,0,0,1-3.73,3.14c1.24-4.54.6-9-.68-13.42,0.59,4.88.57,9.36-.77,13.47a4.31,4.31,0,0,1-3.38-2.8c-2-4.81,3.21-10.35,2.06-15.5h0Zm-29.13-2.7c1.51,6.45,6.16,11.7,11.17,12.08a5.19,5.19,0,0,0,4.39-2.12c-4.65-.71-8.46-3.11-12-6.08,4.22,2.53,8.32,4.33,12.61,4.78a4.29,4.29,0,0,0-1.19-4.23c-3.57-3.82-10.76-1.28-15-4.43h0ZM279,1072.91c4.84,4.54,7.06,11.18,4.88,15.71a5.2,5.2,0,0,1-4,2.74c1.71-4.39,1.54-8.89.73-13.42,0.08,4.92-.41,9.37-2.17,13.32a4.32,4.32,0,0,1-3.07-3.15c-1.52-5,4.27-10,3.67-15.2h0Zm-28.68-5.73c0.83,6.58,4.9,12.28,9.85,13.18a5.17,5.17,0,0,0,4.58-1.65c-4.55-1.19-8.09-4-11.29-7.3,3.94,3,7.82,5.17,12,6.08a4.3,4.3,0,0,0-.74-4.33c-3.14-4.17-10.56-2.4-14.45-6h0Zm21.81-9.71c4.34,5,5.85,11.86,3.21,16.14a5.2,5.2,0,0,1-4.3,2.3c2.16-4.18,2.46-8.68,2.13-13.27-0.44,4.9-1.39,9.27-3.55,13a4.32,4.32,0,0,1-2.72-3.45c-1-5.13,5.29-9.46,5.24-14.73h0Zm-27.93-8.69c0.14,6.63,3.59,12.72,8.42,14.13a5.18,5.18,0,0,0,4.73-1.16c-4.41-1.66-7.63-4.8-10.46-8.44,3.61,3.35,7.24,6,11.35,7.3a4.3,4.3,0,0,0-.28-4.39c-2.7-4.48-10.26-3.49-13.75-7.45h0Zm22.7-7.38c3.79,5.44,4.58,12.4,1.5,16.38a5.19,5.19,0,0,1-4.52,1.84c2.59-3.94,3.35-8.37,3.5-13-0.95,4.83-2.35,9.07-4.89,12.57a4.32,4.32,0,0,1-2.35-3.72c-0.45-5.2,6.25-8.85,6.75-14.1h0ZM240,1029.84c-0.56,6.61,2.24,13,6.89,14.94a5.18,5.18,0,0,0,4.83-.66c-4.21-2.11-7.09-5.58-9.52-9.49,3.24,3.71,6.57,6.69,10.52,8.45a4.3,4.3,0,0,0,.18-4.39c-2.21-4.73-9.84-4.55-12.9-8.84h0Zm23.35-5c3.2,5.81,3.26,12.81-.22,16.45a5.2,5.2,0,0,1-4.68,1.35c3-3.64,4.21-8,4.84-12.54-1.45,4.71-3.29,8.78-6.18,12a4.32,4.32,0,0,1-1.95-3.94c0.1-5.22,7.14-8.15,8.19-13.32h0Zm-25.51-14.31c-1.24,6.51.87,13.19,5.29,15.57A5.18,5.18,0,0,0,248,1026c-4-2.54-6.46-6.29-8.48-10.43,2.83,4,5.84,7.33,9.58,9.5a4.3,4.3,0,0,0,.64-4.35c-1.7-4.94-9.31-5.55-11.9-10.14h0Zm23.74-2.5c2.57,6.11,1.9,13.08-1.94,16.34a5.21,5.21,0,0,1-4.8.86c3.35-3.31,5-7.49,6.13-12-1.93,4.53-4.19,8.39-7.4,11.28a4.32,4.32,0,0,1-1.52-4.12c0.64-5.19,8-7.36,9.53-12.39h0Zm-23.87-16.9c-1.92,6.35-.52,13.21,3.64,16a5.19,5.19,0,0,0,4.86.36c-3.68-2.94-5.78-6.93-7.34-11.26,2.39,4.3,5,7.91,8.53,10.45a4.28,4.28,0,0,0,1.08-4.26c-1.18-5.09-8.67-6.49-10.77-11.33h0Zm23.87,0c1.92,6.35.52,13.21-3.63,16a5.18,5.18,0,0,1-4.86.35c3.68-2.94,5.78-6.92,7.34-11.26-2.39,4.3-5,7.91-8.53,10.45a4.31,4.31,0,0,1-1.09-4.26c1.18-5.09,8.68-6.49,10.78-11.33h0Zm-22-19.3c-2.57,6.11-1.9,13.08,1.94,16.34a5.18,5.18,0,0,0,4.8.86c-3.35-3.31-5-7.49-6.12-12,1.93,4.52,4.19,8.39,7.39,11.28a4.3,4.3,0,0,0,1.52-4.12c-0.64-5.19-7.95-7.36-9.53-12.39h0Zm23.74,2.5c1.25,6.51-.86,13.19-5.29,15.58a5.19,5.19,0,0,1-4.87-.16c4-2.54,6.47-6.29,8.48-10.43-2.83,4-5.84,7.34-9.58,9.5a4.31,4.31,0,0,1-.64-4.35c1.71-4.94,9.31-5.55,11.9-10.14h0Zm-19.84-21.49c-3.19,5.81-3.25,12.81.22,16.45a5.17,5.17,0,0,0,4.68,1.36c-3-3.64-4.21-8-4.84-12.54,1.45,4.7,3.29,8.78,6.18,12a4.31,4.31,0,0,0,1.95-3.94c-0.09-5.22-7.14-8.15-8.18-13.32h0Zm23.35,5c0.56,6.61-2.24,13-6.89,14.94a5.19,5.19,0,0,1-4.83-.67c4.21-2.11,7.09-5.57,9.52-9.49-3.24,3.71-6.57,6.68-10.52,8.44a4.32,4.32,0,0,1-.18-4.39c2.22-4.73,9.84-4.55,12.9-8.84h0ZM249.4,934.38c-3.78,5.44-4.57,12.4-1.5,16.38a5.19,5.19,0,0,0,4.52,1.84c-2.59-3.93-3.35-8.37-3.5-13,0.94,4.83,2.35,9.08,4.88,12.57a4.3,4.3,0,0,0,2.35-3.71c0.45-5.21-6.25-8.86-6.75-14.11h0Zm22.7,7.37c-0.13,6.63-3.59,12.73-8.41,14.14a5.2,5.2,0,0,1-4.73-1.17c4.41-1.66,7.63-4.8,10.46-8.44-3.61,3.35-7.24,6-11.35,7.3a4.32,4.32,0,0,1,.28-4.39c2.7-4.48,10.26-3.49,13.75-7.45h0Zm-14.93-25.15c-4.34,5-5.85,11.86-3.21,16.14a5.19,5.19,0,0,0,4.3,2.3c-2.17-4.18-2.46-8.68-2.13-13.27,0.44,4.9,1.39,9.27,3.54,13a4.3,4.3,0,0,0,2.73-3.45c1-5.13-5.29-9.46-5.23-14.74h0ZM279,926.32c-0.83,6.58-4.9,12.28-9.85,13.18a5.2,5.2,0,0,1-4.58-1.65c4.55-1.19,8.09-4,11.29-7.3-3.94,3-7.82,5.17-12,6.07a4.3,4.3,0,0,1,.74-4.33c3.15-4.17,10.57-2.4,14.45-6h0Zm-12.23-26.57c-4.83,4.53-7.05,11.18-4.87,15.71a5.18,5.18,0,0,0,4,2.74c-1.71-4.39-1.53-8.89-.73-13.42-0.08,4.92.41,9.37,2.17,13.32a4.3,4.3,0,0,0,3.07-3.14c1.53-5-4.27-10-3.67-15.2h0Zm20.67,11.93c-1.51,6.46-6.16,11.7-11.17,12.08a5.2,5.2,0,0,1-4.39-2.13c4.65-.71,8.46-3.11,12-6.08-4.22,2.53-8.32,4.33-12.61,4.78a4.31,4.31,0,0,1,1.19-4.23c3.57-3.82,10.76-1.28,15-4.43h0ZM278,884c-5.28,4-8.18,10.38-6.49,15.12a5.18,5.18,0,0,0,3.72,3.15c-1.25-4.54-.6-9,0.68-13.43-0.59,4.89-.57,9.36.76,13.47a4.3,4.3,0,0,0,3.38-2.81c2-4.81-3.2-10.35-2.06-15.5h0Zm19.31,14c-2.18,6.27-7.34,11-12.37,10.85a5.19,5.19,0,0,1-4.14-2.57c4.7-.22,8.74-2.21,12.56-4.79-4.46,2.08-8.72,3.43-13,3.44a4.31,4.31,0,0,1,1.62-4.08c3.95-3.43,10.84-.15,15.38-2.84h0Zm-6.43-28.53c-5.67,3.43-9.23,9.47-8,14.36a5.19,5.19,0,0,0,3.38,3.52c-0.77-4.64.34-9,2.08-13.28-1.1,4.8-1.54,9.25-.65,13.47a4.3,4.3,0,0,0,3.66-2.44c2.53-4.57-2.11-10.63-.43-15.63h0Zm17.74,16c-2.82,6-8.45,10.17-13.44,9.5a5.2,5.2,0,0,1-3.85-3c4.7,0.28,8.93-1.28,13-3.45-4.65,1.6-9,2.5-13.33,2.06a4.31,4.31,0,0,1,2-3.89c4.28-3,10.79,1,15.59-1.21h0Zm-3.41-29c-6,2.82-10.16,8.45-9.49,13.44a5.18,5.18,0,0,0,3,3.85c-0.28-4.7,1.28-8.93,3.45-13-1.59,4.66-2.5,9-2.05,13.33a4.3,4.3,0,0,0,3.89-2c3-4.28-1-10.79,1.21-15.59h0Zm16,17.74c-3.43,5.67-9.47,9.23-14.36,8a5.19,5.19,0,0,1-3.51-3.38c4.64,0.76,9-.34,13.28-2.08-4.8,1.1-9.25,1.54-13.48.65a4.31,4.31,0,0,1,2.44-3.66c4.57-2.53,10.63,2.11,15.63.43h0Zm-0.36-29.25c-6.26,2.18-11,7.35-10.84,12.37a5.18,5.18,0,0,0,2.57,4.14c0.22-4.7,2.21-8.74,4.8-12.56-2.07,4.47-3.43,8.72-3.44,13a4.3,4.3,0,0,0,4.08-1.62c3.43-3.95.15-10.84,2.83-15.38h0Zm14,19.31c-4,5.28-10.38,8.19-15.12,6.49a5.19,5.19,0,0,1-3.14-3.73c4.54,1.25,9,.6,13.43-0.68-4.89.59-9.36,0.57-13.47-.76a4.3,4.3,0,0,1,2.81-3.38c4.81-2,10.35,3.2,15.5,2.06h0Zm2.7-29.12c-6.46,1.51-11.7,6.16-12.08,11.17a5.18,5.18,0,0,0,2.13,4.39c0.71-4.65,3.11-8.46,6.08-12-2.53,4.23-4.33,8.32-4.78,12.62a4.3,4.3,0,0,0,4.23-1.19c3.82-3.57,1.28-10.76,4.43-15h0Zm11.93,20.67c-4.54,4.83-11.18,7.06-15.71,4.87a5.19,5.19,0,0,1-2.74-4c4.39,1.71,8.88,1.54,13.42.73-4.92.08-9.37-.41-13.32-2.16a4.3,4.3,0,0,1,3.14-3.07c5-1.52,10,4.27,15.2,3.67h0Zm5.73-28.68c-6.57.83-12.28,4.9-13.18,9.85a5.18,5.18,0,0,0,1.65,4.58c1.19-4.56,4-8.09,7.3-11.29-3,3.94-5.17,7.82-6.08,12a4.3,4.3,0,0,0,4.33-.74c4.17-3.15,2.4-10.57,6-14.45h0ZM365,848.87c-5,4.34-11.86,5.85-16.14,3.21a5.2,5.2,0,0,1-2.3-4.3c4.18,2.16,8.68,2.46,13.27,2.13-4.9-.44-9.27-1.39-13-3.54a4.31,4.31,0,0,1,3.45-2.72c5.13-1,9.46,5.29,14.73,5.23h0Zm8.7-27.93c-6.63.14-12.73,3.59-14.14,8.41a5.18,5.18,0,0,0,1.16,4.73c1.66-4.41,4.8-7.63,8.44-10.46-3.35,3.61-6,7.24-7.3,11.34a4.29,4.29,0,0,0,4.38-.28c4.48-2.69,3.49-10.26,7.45-13.75h0Zm7.37,22.7c-5.44,3.79-12.4,4.58-16.38,1.5a5.19,5.19,0,0,1-1.84-4.51c3.94,2.59,8.37,3.35,13,3.5-4.83-.95-9.08-2.35-12.57-4.89a4.31,4.31,0,0,1,3.71-2.35c5.21-.45,8.85,6.25,14.1,6.75h0Zm11.57-26.86c-6.61-.56-13,2.24-14.94,6.89a5.18,5.18,0,0,0,.66,4.83c2.11-4.21,5.58-7.09,9.49-9.52-3.71,3.23-6.68,6.57-8.44,10.52a4.29,4.29,0,0,0,4.39.18c4.73-2.21,4.55-9.84,8.84-12.89h0Zm5,23.35c-5.81,3.2-12.82,3.26-16.45-.22a5.19,5.19,0,0,1-1.36-4.68c3.64,3,8,4.21,12.54,4.84-4.71-1.45-8.78-3.29-12-6.18a4.32,4.32,0,0,1,3.94-1.95c5.22,0.1,8.16,7.14,13.33,8.19h0Zm14.31-25.51c-6.51-1.24-13.19.87-15.58,5.29a5.19,5.19,0,0,0,.15,4.87c2.54-4,6.29-6.47,10.43-8.48-4,2.83-7.34,5.84-9.5,9.58a4.29,4.29,0,0,0,4.35.64c4.94-1.7,5.55-9.31,10.15-11.9h0Zm2.5,23.74c-6.11,2.58-13.09,1.9-16.34-1.94a5.19,5.19,0,0,1-.86-4.8c3.31,3.35,7.49,5,12,6.13-4.53-1.93-8.39-4.19-11.28-7.4a4.31,4.31,0,0,1,4.12-1.53c5.19,0.64,7.36,8,12.4,9.53h0Zm16.9-23.87c-6.35-1.92-13.21-.52-16,3.64a5.18,5.18,0,0,0-.35,4.86c2.94-3.68,6.92-5.77,11.26-7.34-4.3,2.39-7.91,5-10.45,8.53a4.3,4.3,0,0,0,4.26,1.08c5.09-1.18,6.49-8.68,11.33-10.78h0Zm0,23.87c-6.35,1.92-13.21.52-16-3.64a5.18,5.18,0,0,1-.35-4.86c2.94,3.68,6.92,5.77,11.26,7.34-4.3-2.39-7.91-5-10.45-8.53a4.3,4.3,0,0,1,4.26-1.08c5.09,1.18,6.49,8.68,11.33,10.78h0Zm19.3-22c-6.11-2.57-13.08-1.9-16.34,1.94a5.19,5.19,0,0,0-.86,4.8c3.31-3.35,7.49-5,12-6.13-4.53,1.93-8.39,4.19-11.29,7.4a4.3,4.3,0,0,0,4.12,1.52c5.19-.64,7.36-7.95,12.39-9.53h0Zm-2.5,23.74c-6.51,1.24-13.19-.87-15.58-5.29a5.19,5.19,0,0,1,.16-4.87c2.54,4,6.29,6.47,10.43,8.48-4-2.83-7.34-5.84-9.5-9.58a4.31,4.31,0,0,1,4.35-.64c4.94,1.71,5.55,9.31,10.14,11.9h0Zm21.49-19.84c-5.81-3.19-12.82-3.25-16.45.22a5.18,5.18,0,0,0-1.36,4.68c3.64-3,8-4.21,12.54-4.84-4.7,1.44-8.78,3.28-12,6.17a4.29,4.29,0,0,0,3.94,1.95c5.22-.09,8.15-7.14,13.32-8.18h0Zm-5,23.35c-6.61.56-13-2.24-14.94-6.89a5.19,5.19,0,0,1,.67-4.83c2.11,4.21,5.57,7.09,9.49,9.52-3.71-3.24-6.68-6.57-8.45-10.52a4.31,4.31,0,0,1,4.39-.18c4.73,2.21,4.55,9.84,8.84,12.9h0Zm23.45-17.48c-5.44-3.79-12.41-4.58-16.39-1.5a5.18,5.18,0,0,0-1.84,4.51c3.93-2.59,8.37-3.35,13-3.5-4.83.95-9.08,2.35-12.57,4.89a4.3,4.3,0,0,0,3.71,2.35c5.21,0.45,8.85-6.25,14.11-6.74h0Zm-7.38,22.7c-6.63-.14-12.73-3.59-14.14-8.42a5.19,5.19,0,0,1,1.17-4.73c1.66,4.41,4.8,7.63,8.44,10.46-3.35-3.61-6-7.24-7.3-11.35a4.31,4.31,0,0,1,4.39.28c4.48,2.7,3.49,10.26,7.45,13.75h0Zm25.15-14.94c-5-4.33-11.86-5.85-16.14-3.2a5.18,5.18,0,0,0-2.3,4.3c4.18-2.16,8.68-2.46,13.27-2.13-4.9.44-9.27,1.39-13,3.55a4.3,4.3,0,0,0,3.45,2.72c5.13,1,9.46-5.29,14.73-5.23h0Zm-9.71,21.81c-6.58-.83-12.28-4.9-13.18-9.85a5.2,5.2,0,0,1,1.66-4.58c1.19,4.55,4,8.09,7.3,11.29-3-3.94-5.17-7.82-6.08-12a4.31,4.31,0,0,1,4.33.74c4.17,3.15,2.4,10.57,6,14.45h0Zm26.57-12.22c-4.54-4.83-11.18-7.05-15.71-4.87a5.18,5.18,0,0,0-2.74,4c4.39-1.71,8.89-1.54,13.42-.73-4.92-.08-9.36.42-13.32,2.17a4.31,4.31,0,0,0,3.14,3.07c5,1.53,10-4.27,15.2-3.66h0Zm-11.94,20.67c-6.45-1.51-11.7-6.16-12.08-11.17a5.2,5.2,0,0,1,2.13-4.39c0.71,4.66,3.11,8.46,6.08,12-2.53-4.23-4.33-8.32-4.78-12.62a4.31,4.31,0,0,1,4.23,1.19c3.82,3.57,1.28,10.76,4.43,15h0Zm27.71-9.38c-4-5.28-10.39-8.18-15.12-6.49A5.18,5.18,0,0,0,520.2,852c4.54-1.25,9-.6,13.43.68-4.88-.59-9.36-0.57-13.47.76a4.31,4.31,0,0,0,2.81,3.38c4.81,2,10.35-3.21,15.5-2.06h0Zm-14,19.31c-6.27-2.18-11-7.35-10.85-12.37a5.2,5.2,0,0,1,2.57-4.14c0.22,4.7,2.21,8.74,4.79,12.56-2.08-4.47-3.43-8.73-3.44-13a4.31,4.31,0,0,1,4.08,1.62c3.43,3.95.15,10.84,2.83,15.38h0ZM553,867.67c-3.43-5.67-9.47-9.22-14.36-8a5.18,5.18,0,0,0-3.52,3.37c4.64-.77,9,0.34,13.28,2.08-4.8-1.1-9.25-1.54-13.48-.65a4.29,4.29,0,0,0,2.44,3.65c4.58,2.53,10.63-2.1,15.63-.43h0Zm-16,17.74c-6-2.82-10.17-8.45-9.49-13.44a5.18,5.18,0,0,1,3-3.85c-0.28,4.7,1.28,8.92,3.45,13-1.6-4.66-2.5-9-2.06-13.34a4.32,4.32,0,0,1,3.89,2c3,4.29-1,10.79,1.21,15.59h0ZM566,882c-2.82-6-8.46-10.16-13.44-9.49a5.19,5.19,0,0,0-3.85,3c4.7-.28,8.92,1.28,13,3.46-4.65-1.6-9-2.5-13.33-2.06a4.3,4.3,0,0,0,2,3.89c4.28,3,10.79-1,15.59,1.21h0ZM548.3,898c-5.67-3.43-9.23-9.47-8-14.36a5.18,5.18,0,0,1,3.37-3.52c-0.76,4.64.34,9,2.08,13.28-1.1-4.8-1.54-9.25-.65-13.48a4.31,4.31,0,0,1,3.66,2.44c2.53,4.57-2.11,10.63-.43,15.63h0Zm29.25-.36c-2.18-6.26-7.35-11-12.37-10.84a5.17,5.17,0,0,0-4.14,2.57c4.7,0.22,8.74,2.21,12.56,4.79-4.46-2.07-8.72-3.43-13-3.44a4.31,4.31,0,0,0,1.62,4.08c3.95,3.43,10.84.15,15.38,2.83h0Zm-19.31,14c-5.28-4-8.19-10.38-6.49-15.12a5.2,5.2,0,0,1,3.73-3.15c-1.25,4.54-.6,9,0.68,13.43-0.59-4.89-.57-9.36.76-13.47a4.32,4.32,0,0,1,3.38,2.81c2,4.81-3.21,10.35-2.06,15.5h0Zm29.13,2.7c-1.51-6.46-6.16-11.7-11.17-12.08a5.18,5.18,0,0,0-4.39,2.12c4.65,0.71,8.46,3.11,12,6.08-4.23-2.53-8.32-4.33-12.62-4.78a4.3,4.3,0,0,0,1.19,4.23c3.57,3.82,10.76,1.28,15,4.43h0Zm-20.68,11.93c-4.83-4.54-7.06-11.18-4.87-15.71a5.2,5.2,0,0,1,4-2.74c-1.72,4.39-1.54,8.88-.73,13.42-0.08-4.92.41-9.37,2.17-13.32a4.31,4.31,0,0,1,3.07,3.14c1.52,5-4.27,10-3.67,15.2h0ZM595.37,932c-0.83-6.58-4.9-12.28-9.85-13.18a5.18,5.18,0,0,0-4.58,1.65c4.56,1.19,8.09,4,11.29,7.3-3.94-3-7.82-5.17-12-6.08a4.31,4.31,0,0,0,.74,4.33c3.15,4.18,10.57,2.4,14.45,6h0Zm-21.81,9.71c-4.34-5-5.85-11.86-3.21-16.14a5.19,5.19,0,0,1,4.3-2.3c-2.16,4.18-2.46,8.67-2.13,13.27,0.44-4.9,1.39-9.27,3.55-13A4.31,4.31,0,0,1,578.8,927c1,5.13-5.29,9.46-5.24,14.73h0Zm27.93,8.7c-0.14-6.63-3.59-12.73-8.42-14.14a5.18,5.18,0,0,0-4.73,1.16c4.41,1.66,7.63,4.8,10.46,8.44-3.6-3.35-7.24-6-11.35-7.3a4.31,4.31,0,0,0,.29,4.39c2.7,4.48,10.26,3.49,13.75,7.45h0Zm-22.71,7.38c-3.79-5.44-4.58-12.4-1.5-16.39a5.19,5.19,0,0,1,4.52-1.84c-2.59,3.93-3.35,8.37-3.5,13,0.95-4.83,2.35-9.08,4.89-12.57a4.31,4.31,0,0,1,2.35,3.72c0.45,5.2-6.25,8.85-6.75,14.1h0Zm26.87,11.57c0.56-6.6-2.24-13-6.89-14.94a5.19,5.19,0,0,0-4.83.67c4.21,2.11,7.08,5.57,9.52,9.49-3.23-3.71-6.57-6.68-10.52-8.44a4.3,4.3,0,0,0-.17,4.39c2.21,4.74,9.84,4.55,12.9,8.84h0Zm-23.35,5c-3.2-5.81-3.26-12.82.22-16.45a5.19,5.19,0,0,1,4.68-1.35c-3,3.64-4.21,8-4.84,12.54,1.44-4.7,3.28-8.78,6.18-12a4.32,4.32,0,0,1,1.95,3.94c-0.1,5.22-7.14,8.15-8.19,13.32h0Zm25.51,14.31c1.24-6.51-.87-13.19-5.29-15.58a5.18,5.18,0,0,0-4.87.16c4,2.54,6.47,6.29,8.48,10.43-2.83-4-5.84-7.33-9.58-9.5a4.3,4.3,0,0,0-.63,4.35c1.7,4.94,9.31,5.55,11.9,10.14h0Zm-23.74,2.5C581.5,985,582.17,978,586,974.78a5.19,5.19,0,0,1,4.8-.86c-3.35,3.31-5,7.49-6.13,12,1.93-4.53,4.19-8.39,7.4-11.28a4.31,4.31,0,0,1,1.53,4.12c-0.64,5.19-8,7.36-9.53,12.39h0Zm23.87,16.9c1.92-6.35.52-13.21-3.64-16a5.18,5.18,0,0,0-4.86-.36c3.68,2.94,5.77,6.93,7.34,11.26-2.39-4.3-5-7.91-8.53-10.45a4.3,4.3,0,0,0-1.08,4.26c1.18,5.09,8.68,6.49,10.78,11.33h0Zm-23.87,0c-1.92-6.35-.52-13.21,3.64-16a5.19,5.19,0,0,1,4.86-.36c-3.68,2.94-5.77,6.92-7.34,11.26,2.39-4.3,5-7.91,8.53-10.45a4.31,4.31,0,0,1,1.08,4.26c-1.18,5.09-8.68,6.49-10.78,11.33h0Zm22,19.31c2.57-6.11,1.9-13.09-1.94-16.34a5.19,5.19,0,0,0-4.8-.86c3.35,3.31,5,7.49,6.13,12-1.93-4.53-4.19-8.39-7.4-11.29a4.31,4.31,0,0,0-1.52,4.12c0.64,5.19,8,7.36,9.53,12.4h0Zm-23.74-2.5c-1.24-6.52.86-13.2,5.29-15.58a5.18,5.18,0,0,1,4.87.16c-4,2.54-6.47,6.28-8.48,10.43,2.83-4,5.84-7.33,9.58-9.5a4.32,4.32,0,0,1,.64,4.35c-1.71,4.94-9.31,5.55-11.9,10.14h0Zm19.84,21.49c3.2-5.81,3.25-12.81-.22-16.45a5.19,5.19,0,0,0-4.68-1.36c3,3.64,4.21,8,4.84,12.54-1.45-4.7-3.29-8.78-6.18-12A4.31,4.31,0,0,0,594,1033c0.1,5.22,7.14,8.16,8.19,13.32h0Zm-23.35-5c-0.56-6.61,2.24-13,6.89-14.94a5.18,5.18,0,0,1,4.83.66c-4.21,2.11-7.09,5.57-9.52,9.49,3.23-3.71,6.57-6.68,10.52-8.45a4.31,4.31,0,0,1,.17,4.39c-2.21,4.73-9.84,4.55-12.89,8.84h0Zm17.48,23.45c3.79-5.44,4.57-12.4,1.5-16.38a5.19,5.19,0,0,0-4.51-1.84c2.59,3.93,3.35,8.37,3.5,13-0.95-4.83-2.35-9.08-4.89-12.58a4.3,4.3,0,0,0-2.35,3.72c-0.45,5.21,6.25,8.85,6.74,14.1h0Zm-22.7-7.37c0.14-6.63,3.59-12.73,8.41-14.14a5.19,5.19,0,0,1,4.73,1.17c-4.41,1.66-7.63,4.8-10.46,8.44,3.61-3.35,7.24-6,11.35-7.3a4.3,4.3,0,0,1-.29,4.39c-2.69,4.48-10.26,3.49-13.75,7.45h0Zm14.94,25.15c4.34-5,5.85-11.86,3.2-16.14a5.18,5.18,0,0,0-4.3-2.3c2.16,4.18,2.46,8.67,2.13,13.27-0.44-4.9-1.39-9.27-3.55-13a4.3,4.3,0,0,0-2.72,3.45c-1,5.13,5.29,9.46,5.23,14.74h0Zm-21.81-9.71c0.83-6.58,4.9-12.28,9.85-13.18a5.2,5.2,0,0,1,4.59,1.65c-4.55,1.19-8.09,4-11.29,7.3,3.94-3,7.82-5.17,12-6.08a4.3,4.3,0,0,1-.74,4.33c-3.15,4.17-10.57,2.4-14.45,6h0Zm12.22,26.57c4.83-4.54,7.06-11.18,4.87-15.71a5.18,5.18,0,0,0-4-2.74c1.72,4.38,1.54,8.88.73,13.42,0.08-4.92-.41-9.37-2.17-13.32a4.31,4.31,0,0,0-3.07,3.15c-1.53,5,4.27,10,3.66,15.2h0Zm-20.67-11.94c1.51-6.45,6.16-11.7,11.17-12.08a5.19,5.19,0,0,1,4.39,2.12c-4.65.71-8.46,3.11-12,6.08,4.22-2.53,8.32-4.33,12.61-4.78a4.3,4.3,0,0,1-1.19,4.23c-3.57,3.82-10.76,1.28-15,4.43h0Zm9.38,27.71c5.28-4,8.19-10.38,6.49-15.12a5.19,5.19,0,0,0-3.72-3.14c1.24,4.54.6,9-.68,13.42,0.59-4.88.57-9.36-.77-13.47a4.31,4.31,0,0,0-3.38,2.81c-2,4.81,3.2,10.35,2.06,15.5h0Zm-19.31-14c2.18-6.27,7.34-11,12.37-10.85a5.19,5.19,0,0,1,4.14,2.57c-4.7.22-8.74,2.21-12.56,4.79,4.46-2.08,8.72-3.43,13-3.44a4.3,4.3,0,0,1-1.63,4.08c-3.94,3.43-10.84.15-15.37,2.83h0Zm6.43,28.53c5.67-3.43,9.23-9.47,8-14.36a5.18,5.18,0,0,0-3.37-3.52c0.77,4.64-.35,9-2.08,13.28,1.1-4.8,1.54-9.25.65-13.48a4.31,4.31,0,0,0-3.65,2.44c-2.54,4.58,2.1,10.63.42,15.63h0Zm-17.74-16c2.82-6,8.45-10.16,13.44-9.49a5.19,5.19,0,0,1,3.85,3c-4.7-.27-8.92,1.28-13,3.46,4.65-1.6,9-2.5,13.33-2.05a4.31,4.31,0,0,1-2,3.89c-4.28,3-10.79-1-15.59,1.21h0Zm3.41,29c6-2.82,10.16-8.45,9.49-13.44a5.19,5.19,0,0,0-3-3.85c0.27,4.7-1.29,8.92-3.46,13,1.59-4.66,2.5-9,2.05-13.33a4.3,4.3,0,0,0-3.89,2c-3,4.28,1,10.79-1.21,15.59h0Zm-16-17.74c3.43-5.67,9.47-9.23,14.36-8a5.19,5.19,0,0,1,3.52,3.38c-4.64-.77-9,0.34-13.28,2.08,4.8-1.1,9.25-1.54,13.48-.65a4.31,4.31,0,0,1-2.44,3.66c-4.57,2.53-10.63-2.11-15.63-.43h0Zm0.36,29.25c6.26-2.18,11-7.35,10.85-12.37a5.2,5.2,0,0,0-2.57-4.14c-0.22,4.7-2.21,8.74-4.79,12.56,2.07-4.46,3.43-8.72,3.44-13a4.3,4.3,0,0,0-4.08,1.62c-3.43,3.95-.15,10.84-2.83,15.38h0Zm-14-19.31c4-5.28,10.38-8.19,15.12-6.49a5.19,5.19,0,0,1,3.14,3.72c-4.54-1.24-9-.6-13.42.68,4.88-.6,9.36-0.57,13.47.76a4.32,4.32,0,0,1-2.81,3.38c-4.81,2-10.35-3.2-15.5-2.06h0Zm-2.7,29.12c6.45-1.51,11.7-6.16,12.08-11.17a5.18,5.18,0,0,0-2.12-4.39c-0.71,4.65-3.11,8.46-6.08,12,2.53-4.22,4.33-8.32,4.78-12.61a4.29,4.29,0,0,0-4.23,1.19c-3.82,3.56-1.29,10.76-4.43,15h0Zm-11.94-20.67c4.54-4.83,11.18-7.05,15.71-4.87a5.18,5.18,0,0,1,2.74,4c-4.39-1.71-8.88-1.54-13.42-.73,4.92-.08,9.37.41,13.32,2.17a4.3,4.3,0,0,1-3.14,3.06c-5,1.53-10-4.27-15.2-3.66h0Zm-5.73,28.68c6.57-.83,12.28-4.9,13.18-9.85a5.19,5.19,0,0,0-1.65-4.58c-1.19,4.55-4,8.09-7.3,11.29,3-3.94,5.17-7.82,6.07-12a4.3,4.3,0,0,0-4.33.75c-4.17,3.14-2.4,10.57-6,14.45h0Zm-9.71-21.81c5-4.34,11.85-5.85,16.14-3.2a5.18,5.18,0,0,1,2.3,4.3c-4.18-2.16-8.67-2.46-13.27-2.13,4.9,0.44,9.27,1.39,13,3.55a4.3,4.3,0,0,1-3.45,2.72c-5.13,1-9.46-5.29-14.73-5.23h0Zm-8.7,27.93c6.63-.14,12.73-3.59,14.14-8.42a5.18,5.18,0,0,0-1.16-4.73c-1.66,4.4-4.8,7.63-8.44,10.46,3.35-3.61,6-7.24,7.3-11.35a4.3,4.3,0,0,0-4.38.28c-4.48,2.7-3.49,10.26-7.45,13.75h0Zm-7.38-22.7c5.44-3.79,12.4-4.58,16.39-1.5a5.19,5.19,0,0,1,1.84,4.52c-3.93-2.59-8.37-3.35-13-3.5,4.83,0.94,9.08,2.35,12.57,4.89a4.31,4.31,0,0,1-3.71,2.35c-5.21.45-8.86-6.25-14.11-6.74h0Zm-11.57,26.86c6.6,0.56,13-2.24,14.94-6.89a5.19,5.19,0,0,0-.66-4.83c-2.11,4.21-5.58,7.09-9.49,9.52,3.71-3.24,6.68-6.57,8.44-10.52a4.3,4.3,0,0,0-4.39-.18c-4.73,2.21-4.55,9.84-8.84,12.9h0Zm-5-23.35c5.81-3.2,12.81-3.25,16.45.22a5.19,5.19,0,0,1,1.36,4.68c-3.64-3-8-4.21-12.54-4.84,4.7,1.45,8.78,3.29,12,6.18a4.31,4.31,0,0,1-3.94,1.95c-5.23-.1-8.16-7.14-13.32-8.18h0Zm-14.31,25.51c6.51,1.24,13.2-.87,15.58-5.29a5.18,5.18,0,0,0-.15-4.87c-2.54,4-6.29,6.46-10.43,8.48,4-2.83,7.34-5.84,9.5-9.58a4.31,4.31,0,0,0-4.35-.64c-4.94,1.7-5.55,9.31-10.15,11.9h0Zm-2.5-23.74c6.11-2.57,13.09-1.9,16.34,1.94a5.18,5.18,0,0,1,.86,4.8c-3.3-3.35-7.49-5-12-6.13,4.53,1.93,8.39,4.19,11.28,7.4a4.3,4.3,0,0,1-4.12,1.52c-5.19-.64-7.36-8-12.4-9.53h0Zm-16.9,0c6.35-1.92,13.21-.52,16,3.63a5.19,5.19,0,0,1,.35,4.86c-2.94-3.68-6.92-5.78-11.26-7.34,4.3,2.4,7.91,5,10.45,8.53a4.3,4.3,0,0,1-4.26,1.08c-5.09-1.18-6.49-8.68-11.33-10.77h0Z" transform="translate(-190.74 -767.51)" style="fill:#231f20;fill-rule:evenodd"/><path d="M488.15,958.4V938.47H434.62v142.79h26.77v9.22H384.3v-9.22h26.77V938.47H357.53V958.4H344.68V919h12.85v7H488.15v-7H501V958.4H488.15Z" transform="translate(-190.74 -767.51)" style="fill:#231f20"/><path d="M852.9,1047.36h-83v-9.93h28.83V883.65H741.05v21.47H727.22v-42.4h13.83v7.51H881.73v-7.51h13.84v42.4H881.73V883.65H824.08v153.78H852.9v9.93Z" transform="translate(-190.74 -767.51)" style="fill:#fff"/><path d="M1112.06,880.16h-21.62V982.41c0,28.72-11,47.23-34.88,59.31a91.9,91.9,0,0,1-40.07,9.12c-41.8,0-72.64-25.76-72.64-60.91V880.16H921.23v-9.93h68.61v9.93H968.22V981.61c0,32.47,20.47,53.67,52.46,53.67,32.86,0,55.06-21.74,55.06-53.94V880.16h-21.62v-9.93h57.94v9.93Z" transform="translate(-190.74 -767.51)" style="fill:#fff"/><path d="M1304.55,1047.36h-24.5c-17,0-20.18-1.61-29.69-15.83l-43-63.6h-22.48v69.51h21.62v9.93h-68.61v-9.93h21.62V880.16h-21.62v-9.93h80.14c28,0,43.82,7.25,52.47,23.88A51.6,51.6,0,0,1,1276.3,918c0,26-15.57,42.67-43.24,46.43l41.51,59.57c6.92,9.93,11.53,13.15,18.74,13.15h11.24v10.2Zm-119.63-91.78h27.67c21.91,0,37.19-15,37.19-37,0-23.08-13.55-36-37.76-36h-27.1v73Z" transform="translate(-190.74 -767.51)" style="fill:#fff"/><path d="M1399.18,1047.36h-68.61v-9.93h21.62V880.16h-21.62v-9.93h68.61v9.93h-21.62v157.26h21.62v9.93Z" transform="translate(-190.74 -767.51)" style="fill:#fff"/><path d="M1586.87,1050.31h-8.94l-110.69-141.7v128.81h21.91v9.93h-58.23v-9.93h21.91V890.36l-7.78-10.2h-19.89v-9.93H1467L1572.46,1005V880.16h-21.91v-9.93h57.94v9.93h-21.62v170.14Z" transform="translate(-190.74 -767.51)" style="fill:#fff"/><path d="M1787.64,1040.65c-25.66,7.78-39.78,10.2-59.67,10.2-30,0-51.89-7.24-70.91-22.81-21.33-17.71-33.44-42.94-33.44-69.51,0-52.87,43.53-91.51,102.33-91.51,17.3,0,30,2.15,47.85,8.32V864.87h13.26v45.62H1773.8V893c-19-8.59-33.44-12.08-49.58-12.08-39.78,0-72.07,34.62-72.07,77.56,0,44,36.9,78.63,83.89,78.63,8.65,0,13.83-.81,26.23-3.76v-47h-24.5v-9.93h71.49v9.93h-21.62v54.21Z" transform="translate(-190.74 -767.51)" style="fill:#fff"/><path d="M870.74,1105.75a16.8,16.8,0,0,0-8.69-2.4c-4.49,0-7.68,2.25-7.68,5.8,0,3.13,1.8,4.65,9.2,8.46,4.32,2.19,8.47,4.39,8.47,9.56,0,5.69-4.32,9.3-11.39,9.3a18,18,0,0,1-10.6-3.34l1.57-2.35c3.14,2,5.44,3.08,9.37,3.08,4.71,0,7.68-2.4,7.68-6.27,0-5.12-6.06-7.21-10-9.3-5.44-2.82-7.63-5.74-7.63-9.09,0-5.22,4.43-8.46,11.44-8.46a17.81,17.81,0,0,1,9.7,2.56Z" transform="translate(-190.74 -767.51)" style="fill:#fff"/><path d="M905.52,1105.81a15.86,15.86,0,0,0-8.86-2.51c-8.41,0-14.3,6.37-14.3,14.83,0,9.24,5.95,15.72,15.2,15.72A21.53,21.53,0,0,0,906,1132l1,2.45a25.48,25.48,0,0,1-9.7,2c-10.66,0-18.29-7.36-18.29-18.07,0-10.18,7.74-17.7,17.84-17.7a18.79,18.79,0,0,1,10.21,2.92Z" transform="translate(-190.74 -767.51)" style="fill:#fff"/><path d="M941.87,1135.78v-16.5H918.48v16.5h-3v-34.47h3v15.46h23.39v-15.46h3v34.47h-3Z" transform="translate(-190.74 -767.51)" style="fill:#fff"/><path d="M972.45,1136.46c-10.27,0-17.84-7.42-17.84-17.91s7.57-17.86,17.84-17.86,17.78,7.42,17.78,17.86S982.66,1136.46,972.45,1136.46Zm0-33.16c-8,0-14.47,7-14.47,15.25s6.45,15.3,14.47,15.3,14.42-7,14.42-15.3S980.41,1103.3,972.45,1103.3Z" transform="translate(-190.74 -767.51)" style="fill:#fff"/><path d="M1014.47,1136.46c-10.27,0-17.84-7.42-17.84-17.91s7.57-17.86,17.84-17.86,17.78,7.42,17.78,17.86S1024.68,1136.46,1014.47,1136.46Zm0-33.16c-8,0-14.47,7-14.47,15.25s6.45,15.3,14.47,15.3,14.42-7,14.42-15.3S1022.43,1103.3,1014.47,1103.3Z" transform="translate(-190.74 -767.51)" style="fill:#fff"/><path d="M1042,1135.78v-34.47h3v32h16.55v2.51H1042Z" transform="translate(-190.74 -767.51)" style="fill:#fff"/><path d="M1097.5,1136.46c-10.27,0-17.84-7.42-17.84-17.91s7.57-17.86,17.84-17.86,17.78,7.42,17.78,17.86S1107.71,1136.46,1097.5,1136.46Zm0-33.16c-8,0-14.47,7-14.47,15.25s6.45,15.3,14.47,15.3,14.42-7,14.42-15.3S1105.46,1103.3,1097.5,1103.3Z" transform="translate(-190.74 -767.51)" style="fill:#fff"/><path d="M1128,1103.82v13.42h13.41v2.51H1128v16h-3v-34.47h19.24v2.51H1128Z" transform="translate(-190.74 -767.51)" style="fill:#fff"/><path d="M1185.12,1105.75a16.8,16.8,0,0,0-8.69-2.4c-4.49,0-7.68,2.25-7.68,5.8,0,3.13,1.8,4.65,9.2,8.46,4.32,2.19,8.47,4.39,8.47,9.56,0,5.69-4.32,9.3-11.39,9.3a18,18,0,0,1-10.6-3.34l1.57-2.35c3.14,2,5.44,3.08,9.37,3.08,4.71,0,7.68-2.4,7.68-6.27,0-5.12-6.06-7.21-10-9.3-5.44-2.82-7.63-5.74-7.63-9.09,0-5.22,4.43-8.46,11.44-8.46a17.81,17.81,0,0,1,9.7,2.56Z" transform="translate(-190.74 -767.51)" style="fill:#fff"/><path d="M1211.21,1136.46c-10.27,0-17.84-7.42-17.84-17.91s7.57-17.86,17.84-17.86,17.78,7.42,17.78,17.86S1221.42,1136.46,1211.21,1136.46Zm0-33.16c-8,0-14.47,7-14.47,15.25s6.45,15.3,14.47,15.3,14.42-7,14.42-15.3S1219.18,1103.3,1211.21,1103.3Z" transform="translate(-190.74 -767.51)" style="fill:#fff"/><path d="M1241.73,1103.82v13.42h13.41v2.51h-13.41v16h-3v-34.47h19.24v2.51h-16.21Z" transform="translate(-190.74 -767.51)" style="fill:#fff"/><path d="M1276.91,1103.82v32h-3v-32h-12.34v-2.51h27.71v2.51h-12.34Z" transform="translate(-190.74 -767.51)" style="fill:#fff"/><path d="M1323.19,1136.46h-1.74l-7.24-17.39-6.79,17.39h-1.85l-14.25-35.15h3.37l11.95,30.6,6.28-16-6.34-14.62h3.14l4.54,11.12,4.26-11.12h2.58l-5.44,14,6.68,16.14,11-30.13h3.37Z" transform="translate(-190.74 -767.51)" style="fill:#fff"/><path d="M1366,1135.78l-3.81-10.6h-16.1l-3.81,10.6H1339l13.29-35.46h3.81l13.24,35.46H1366Zm-11.84-32.59-7.12,19.32h14.19Z" transform="translate(-190.74 -767.51)" style="fill:#fff"/><path d="M1396.06,1135.78l-10.43-15.35H1380v15.35h-3v-34.47h10.83c6.28,0,10.55,2.61,10.55,9,0,5.75-3.81,9.24-9.31,9.71l10.77,15.77h-3.7Zm-9.87-32H1380v14.1h6.79c5.39,0,8.19-2.61,8.19-7.57C1394.94,1104.92,1391.29,1103.82,1386.19,1103.82Z" transform="translate(-190.74 -767.51)" style="fill:#fff"/><path d="M1408.91,1135.78v-34.47h19.24v2.51h-16.21v13.11h13.41v2.51h-13.41v13.84h16.72v2.51h-19.75Z" transform="translate(-190.74 -767.51)" style="fill:#fff"/><path d="M1477.18,1136.41c-2.92,0-4.66-1.51-6.56-4.23-3.93,3.55-7.52,4.28-11.67,4.28-6.34,0-10.55-3.5-10.55-9.09,0-3.5,1.57-6,6.73-10l2.86-2.19c-1.12-1.41-1.8-2.3-2.41-3-2.19-2.82-2.86-4.49-2.86-6.68,0-5.07,4.1-8.36,10.15-8.36,5.55,0,9.31,2.87,9.31,7.05,0,2.14-1.63,4.65-4.77,6.89l-1.85,1.31-1.35-1.67,1.8-1.25c2.3-1.67,3.25-3.13,3.25-5.17,0-2.82-2.69-4.8-6.45-4.8-4.09,0-7.18,2.4-7.18,5.69,0,2.87,2.19,5.59,3.87,7.73l11.72,15.35a18,18,0,0,0,2.86-5.64,24.23,24.23,0,0,0,1.23-5h2.47a29.94,29.94,0,0,1-1.74,6.27,22.06,22.06,0,0,1-3.53,6.22c2.41,3.24,3.48,4,5.22,4,2.13,0,3.37-1.93,4.66-4.18l1.85,1.1C1482.74,1133.9,1480.83,1136.41,1477.18,1136.41Zm-18-19.43-3.08,2.4c-3.31,2.56-4.82,4.6-4.82,7.52,0,4.18,3.37,7.26,8.47,7.26a13.53,13.53,0,0,0,9.76-3.76Z" transform="translate(-190.74 -767.51)" style="fill:#fff"/><path d="M1516.46,1135.78H1505v-34.47h11.56c10.32,0,17.73,6.58,17.73,16.56C1534.24,1128,1527.45,1135.78,1516.46,1135.78Zm-0.67-32H1508v29.45h7.8c9.76,0,15.09-6.32,15.09-15.46C1530.87,1109.52,1524.65,1103.82,1515.78,1103.82Z" transform="translate(-190.74 -767.51)" style="fill:#fff"/><path d="M1544.06,1135.78v-34.47h19.24v2.51h-16.21v13.11h13.41v2.51h-13.41v13.84h16.72v2.51h-19.75Z" transform="translate(-190.74 -767.51)" style="fill:#fff"/><path d="M1591.12,1105.75a16.8,16.8,0,0,0-8.69-2.4c-4.49,0-7.68,2.25-7.68,5.8,0,3.13,1.8,4.65,9.2,8.46,4.32,2.19,8.47,4.39,8.47,9.56,0,5.69-4.32,9.3-11.39,9.3a18,18,0,0,1-10.6-3.34l1.57-2.35c3.14,2,5.44,3.08,9.37,3.08,4.71,0,7.68-2.4,7.68-6.27,0-5.12-6.06-7.21-10-9.3-5.44-2.82-7.63-5.74-7.63-9.09,0-5.22,4.43-8.46,11.44-8.46a17.81,17.81,0,0,1,9.7,2.56Z" transform="translate(-190.74 -767.51)" style="fill:#fff"/><path d="M1602.68,1135.78v-34.47h3v34.47h-3Z" transform="translate(-190.74 -767.51)" style="fill:#fff"/><path d="M1634.1,1136.46c-10.66,0-18.68-7.73-18.68-18s8-17.76,18.79-17.76a26.06,26.06,0,0,1,11.22,2.3l-1.18,2.4a22.56,22.56,0,0,0-9.59-2.09c-9.37,0-15.88,6.11-15.88,14.83,0,8.93,6.56,15.67,16.32,15.67a32.94,32.94,0,0,0,7.46-1.2v-11.54h3v13.53A35.5,35.5,0,0,1,1634.1,1136.46Z" transform="translate(-190.74 -767.51)" style="fill:#fff"/><path d="M1682.62,1136.1l-21.93-31.28v31h-3v-34.47h4.49l21.26,30.66v-30.66h3v34.78h-3.81Z" transform="translate(-190.74 -767.51)" style="fill:#fff"/></svg>