<svg id="Layer_1" data-name="Layer 1" xmlns="http://www.w3.org/2000/svg" viewBox="0 0 320 83.14"><title>ultra-fragola</title><path d="M15.81,78.06c-9.23,0-12.65-5.42-12.65-11.7V6.53H15.52V64.93c0,1.33.48,1.81,1.24,1.81,1,0,1.33-.57,1.33-1.81V6.53H30.36V66.36c0,6.18-4.09,11.7-12.65,11.7h-1.9Z" style="fill:#fff"/><path d="M44.05,6.53l0.09,59.55h7.61L51.66,77.3H32.07V6.53h12Z" style="fill:#fff"/><path d="M53.94,17.37H48.52V6.53H71.25V17.37H65.83V77.3H53.94V17.37Z" style="fill:#fff"/><path d="M84.85,77.3H72.77V6.53H91.51C95.7,6.53,99,9.19,99,15V31.64c0,4.76-2.28,6.75-4.28,7.61a7.1,7.1,0,0,1,4.47,6.56V73.88A6.84,6.84,0,0,0,99.78,77V77.3H87.89a5,5,0,0,1-.76-2.95V47.81c0-1-.19-1.62-1.33-1.62h-1V77.3Zm0-41.19h1c1,0,1.33-.57,1.33-1.62V17.09c0-1.14-.19-1.62-1.24-1.62h-1V36.11Z" style="fill:#fff"/><path d="M115.09,64.56H111L110.33,77.3H100l5.9-70.77h15.22l6.37,70.77h-11.7Zm-2-37.29-1.43,26.92h2.85Z" style="fill:#fff"/><path d="M135.53,6.53H155.7V17.37h-8.37V34.68h6.94l0.09,11.13h-7V77.3h-11.8V6.53Z" style="fill:#fff"/><path d="M169.3,77.3H157.22V6.53H176c4.19,0,7.51,2.66,7.51,8.47V31.64c0,4.76-2.28,6.75-4.28,7.61a7.1,7.1,0,0,1,4.47,6.56V73.88a6.84,6.84,0,0,0,.57,3.14V77.3H172.34a5,5,0,0,1-.76-2.95V47.81c0-1-.19-1.62-1.33-1.62h-1V77.3Zm0-41.19h1c1,0,1.33-.57,1.33-1.62V17.09c0-1.14-.19-1.62-1.24-1.62h-1V36.11Z" style="fill:#fff"/><path d="M199.54,64.56h-4.09L194.78,77.3H184.42l5.9-70.77h15.22l6.37,70.77h-11.7Zm-2-37.29-1.43,26.92H199Z" style="fill:#fff"/><path d="M221.51,78c-6.37,0-9.42-5.42-9.42-11.7V18.13c0-6.66,3.23-12.27,12.75-12.27h1.62c9.7,0,12.37,5.61,12.37,11.32V33.07H227.22V17.66c0-1.14-.29-1.81-1.43-1.81s-1.33.66-1.33,1.81V66c0,1.43.57,2.19,1.71,2.19s1.71-.76,1.71-2.19V44.86h-2.47V35.64H239.3V77.3h-8.09A30.48,30.48,0,0,0,230,72.83c-1.62,2.47-4.19,5.14-8.18,5.14h-0.29Z" style="fill:#fff"/><path d="M268.59,64.27c0,8.85-4.95,13.7-12.75,13.7h-2c-8.28,0-12.84-5-12.84-13.7V19.85c0-8.66,3.9-14,12.84-14h1.9c8.94,0,12.84,5.52,12.84,14V64.27ZM256.22,18.51c0-1.33-.38-2.09-1.43-2.09s-1.33.67-1.33,2.09v46.8c0,1.24.38,1.9,1.33,1.9s1.43-.67,1.43-1.9V18.51Z" style="fill:#fff"/><path d="M282.28,6.53l0.09,59.55H290l-0.1,11.23h-19.6V6.53h12Z" style="fill:#fff"/><path d="M305.77,64.56h-4.09L301,77.3H290.64l5.9-70.77h15.22l6.37,70.77h-11.7Zm-2-37.29-1.43,26.92h2.85Z" style="fill:#fff"/></svg>